<svg width="900" height="900" viewBox="0 0 900 900" fill="none" xmlns="http://www.w3.org/2000/svg">
<path d="M317.57 291.094C318.818 291.094 319.829 290.083 319.829 288.835C319.829 287.588 318.818 286.576 317.57 286.576C316.323 286.576 315.311 287.588 315.311 288.835C315.311 290.083 316.323 291.094 317.57 291.094Z" fill="white"/>
<path d="M381.314 337.547C381.314 337.547 385.049 387.868 405.99 399.742C405.99 399.742 338.755 388.13 322.222 362.95C305.689 337.768 381.314 337.547 381.314 337.547Z" fill="url(#paint0_linear)"/>
<path d="M448.281 486.02C489.713 497.369 499.5 494.192 506.884 505.298C507.733 506.572 512.062 513.086 511.196 521.451C510.505 528.115 506.794 533.257 504.459 535.518C490.266 549.257 451.211 532.449 428.843 514.066C423.967 510.057 410.882 499.306 413.518 491.668C414.598 488.54 417.951 486.985 420.358 485.908C430.997 481.149 442.033 484.31 448.281 486.02Z" fill="url(#paint1_linear)"/>
<path d="M576.198 207.536H567.382V265.403H576.198V207.536Z" fill="url(#paint2_linear)"/>
<path d="M602.24 297.369H541.339C536.85 297.369 533.209 293.729 533.209 289.238V267.473C533.209 262.982 536.848 259.342 541.339 259.342H602.24C606.731 259.342 610.371 262.982 610.371 267.473V289.238C610.371 293.729 606.731 297.369 602.24 297.369Z" fill="url(#paint3_linear)"/>
<path d="M709.843 423.85C709.843 459.004 681.345 487.503 646.191 487.503H497.39C462.38 487.503 433.737 458.858 433.737 423.85V390.782C433.737 328.493 484.7 277.529 546.991 277.529H596.592C658.879 277.529 709.844 328.493 709.844 390.782V423.85H709.843Z" fill="url(#paint4_linear)"/>
<path d="M666.414 417.821C662.801 419.607 658.751 420.543 654.637 420.543H488.941C484.826 420.543 480.778 419.607 477.164 417.821C468.29 413.435 463.28 404.579 464.535 395.489L464.627 394.828C468.871 364.05 496.748 340.387 530.921 338.611C545.378 337.858 560.554 337.469 576.382 337.561C588.782 337.633 600.766 337.997 612.304 338.591C646.609 340.358 674.689 363.929 678.949 394.823C678.982 395.046 679.01 395.267 679.043 395.489C680.297 404.577 675.288 413.435 666.414 417.821Z" fill="url(#paint5_linear)"/>
<path d="M528.12 413.759C545.375 413.759 559.362 399.771 559.362 382.516C559.362 365.261 545.375 351.274 528.12 351.274C510.865 351.274 496.877 365.261 496.877 382.516C496.877 399.771 510.865 413.759 528.12 413.759Z" fill="url(#paint6_radial)"/>
<path d="M528.12 404.942C540.506 404.942 550.546 394.902 550.546 382.516C550.546 370.131 540.506 360.09 528.12 360.09C515.734 360.09 505.694 370.131 505.694 382.516C505.694 394.902 515.734 404.942 528.12 404.942Z" fill="#EEFDFF"/>
<path d="M528.12 401.351C538.522 401.351 546.955 392.919 546.955 382.516C546.955 372.114 538.522 363.681 528.12 363.681C517.718 363.681 509.285 372.114 509.285 382.516C509.285 392.919 517.718 401.351 528.12 401.351Z" fill="url(#paint7_linear)"/>
<path d="M533.21 384.611C537.064 384.611 540.187 381.488 540.187 377.635C540.187 373.781 537.064 370.658 533.21 370.658C529.357 370.658 526.234 373.781 526.234 377.635C526.234 381.488 529.357 384.611 533.21 384.611Z" fill="#EEFDFF"/>
<path d="M525.337 399.744C526.875 399.744 528.122 398.497 528.122 396.959C528.122 395.422 526.875 394.175 525.337 394.175C523.799 394.175 522.553 395.422 522.553 396.959C522.553 398.497 523.799 399.744 525.337 399.744Z" fill="#EEFDFF"/>
<path d="M517.039 394.175C517.808 394.175 518.431 393.552 518.431 392.783C518.431 392.015 517.808 391.392 517.039 391.392C516.271 391.392 515.648 392.015 515.648 392.783C515.648 393.552 516.271 394.175 517.039 394.175Z" fill="#EEFDFF"/>
<path d="M612.526 413.761C629.781 413.761 643.77 399.772 643.77 382.516C643.77 365.26 629.781 351.272 612.526 351.272C595.27 351.272 581.281 365.26 581.281 382.516C581.281 399.772 595.27 413.761 612.526 413.761Z" fill="url(#paint8_radial)"/>
<path d="M612.526 404.941C624.91 404.941 634.95 394.901 634.95 382.516C634.95 370.132 624.91 360.092 612.526 360.092C600.141 360.092 590.101 370.132 590.101 382.516C590.101 394.901 600.141 404.941 612.526 404.941Z" fill="#EEFDFF"/>
<path d="M612.526 401.351C622.928 401.351 631.361 392.919 631.361 382.516C631.361 372.114 622.928 363.681 612.526 363.681C602.123 363.681 593.69 372.114 593.69 382.516C593.69 392.919 602.123 401.351 612.526 401.351Z" fill="url(#paint9_linear)"/>
<path d="M617.616 384.611C621.469 384.611 624.593 381.488 624.593 377.635C624.593 373.781 621.469 370.658 617.616 370.658C613.763 370.658 610.639 373.781 610.639 377.635C610.639 381.488 613.763 384.611 617.616 384.611Z" fill="#EEFDFF"/>
<path d="M609.743 399.742C611.28 399.742 612.526 398.496 612.526 396.959C612.526 395.423 611.28 394.177 609.743 394.177C608.206 394.177 606.96 395.423 606.96 396.959C606.96 398.496 608.206 399.742 609.743 399.742Z" fill="#EEFDFF"/>
<path d="M601.447 394.175C602.215 394.175 602.838 393.552 602.838 392.783C602.838 392.015 602.215 391.392 601.447 391.392C600.678 391.392 600.055 392.015 600.055 392.783C600.055 393.552 600.678 394.175 601.447 394.175Z" fill="#EEFDFF"/>
<path d="M571.79 214.976C578.029 214.976 583.087 209.918 583.087 203.679C583.087 197.44 578.029 192.382 571.79 192.382C565.551 192.382 560.493 197.44 560.493 203.679C560.493 209.918 565.551 214.976 571.79 214.976Z" fill="url(#paint10_linear)"/>
<path d="M576.2 202.716C578.103 202.716 579.645 201.174 579.645 199.271C579.645 197.368 578.103 195.826 576.2 195.826C574.297 195.826 572.755 197.368 572.755 199.271C572.755 201.174 574.297 202.716 576.2 202.716Z" fill="white"/>
<path d="M669.069 313.754C669.22 319.028 664.913 325.337 659.981 325.876C655.358 326.381 651.667 321.658 647.86 316.787C644.107 311.987 635.899 299.653 639.169 296.165C643.477 291.564 668.716 301.311 669.069 313.754Z" fill="white"/>
<path d="M626.839 293.648C629.007 293.648 630.765 291.891 630.765 289.723C630.765 287.554 629.007 285.797 626.839 285.797C624.671 285.797 622.913 287.554 622.913 289.723C622.913 291.891 624.671 293.648 626.839 293.648Z" fill="white"/>
<path d="M668.511 386.921C667.251 387.81 658.469 369.918 634.892 354.406C626.605 348.953 618.426 345.067 618.91 343.935C619.403 342.787 628.619 344.921 635.996 348.343C659.498 359.248 670.009 385.864 668.511 386.921Z" fill="white"/>
<path d="M608.137 270.599C607.858 270.639 607.676 268.988 606.301 266.436C606.301 266.436 605.66 265.243 604.924 264.231C602.557 260.973 594.533 261.045 593.903 261.05C581.405 261.16 573.37 260.366 573.374 260.442C573.376 260.507 579.236 260.386 583.531 260.298C595.645 260.051 602.863 259.4 605.957 262.647C607.243 263.993 607.887 265.747 607.887 265.747C608.764 268.128 608.472 270.551 608.137 270.599Z" fill="white"/>
<path d="M605.54 433.951C605.234 436.945 602.741 439.249 599.746 439.538L558.358 443.529C555.363 443.819 552.476 442.033 551.605 439.153C551.216 437.875 550.917 436.554 550.714 435.199C550.658 434.822 550.757 434.441 550.991 434.142C551.225 433.843 551.57 433.654 551.948 433.618L604.165 428.582C604.537 428.546 604.906 428.665 605.189 428.909C605.47 429.156 605.639 429.505 605.655 429.88C605.718 431.255 605.675 432.616 605.54 433.951Z" fill="#EEFDFF"/>
<path d="M605.542 433.953C604.219 446.783 594.018 457.331 580.691 458.604C567.547 459.877 555.676 451.726 551.776 439.657C552.816 442.238 555.529 443.808 558.355 443.525L599.755 439.54C602.746 439.243 605.227 436.946 605.542 433.953Z" fill="url(#paint11_linear)"/>
<path d="M670.752 526.912C670.752 527.292 670.752 527.656 670.734 528.003C670.603 531.475 669.793 534.087 669.395 535.261C658.004 570.064 651.175 588.415 641.603 603.261C639.95 605.824 638.213 608.287 636.345 610.702C633.899 613.926 631.22 617.067 628.245 620.307C621.63 627.5 611.629 630.758 608.405 631.881C596.617 636.048 586.201 635.288 579.272 635.355H578.065C571.122 635.288 560.722 636.05 548.933 631.881C545.71 630.758 535.691 627.5 529.094 620.307C510.907 600.518 503.914 584.066 487.942 535.261C487.562 534.136 486.803 531.706 486.621 528.449C486.572 527.508 486.554 526.563 486.603 525.622C486.95 519.786 489.316 514.066 493.515 508.842C500.708 499.88 511.817 494.969 523.309 494.921L578.68 494.689L633.04 494.474C644.778 494.426 656.154 499.352 663.61 508.428C667.215 512.825 669.512 517.572 670.356 522.466C670.471 523.161 670.57 523.87 670.637 524.565C670.7 525.339 670.752 526.117 670.752 526.912Z" fill="url(#paint12_linear)"/>
<path d="M578.668 494.694L523.296 494.926C511.807 494.975 500.695 499.887 493.504 508.846C489.303 514.071 486.941 519.791 486.592 525.627C486.873 519.642 489.335 513.772 493.718 508.432C501.158 499.354 512.548 494.429 524.286 494.478L578.668 494.694Z" fill="url(#paint13_linear)"/>
<path d="M633.701 576.268C632.893 533.318 627.08 524.826 635.652 514.607C636.637 513.436 641.664 507.442 649.933 505.912C656.521 504.693 662.501 506.803 665.33 508.406C682.517 518.143 677.417 560.354 666.095 587C663.628 592.812 657.005 608.396 648.936 608.026C645.628 607.873 643.19 605.093 641.479 603.09C633.906 594.225 633.823 582.745 633.701 576.268Z" fill="url(#paint14_linear)"/>
<path d="M641.601 603.263C639.949 605.826 638.212 608.288 636.343 610.704C635.749 610.092 635.22 609.48 634.739 608.918C627.167 600.055 627.084 588.582 626.971 582.102C626.159 539.149 620.339 530.667 628.92 520.448C629.55 519.689 631.847 516.96 635.584 514.696C627.118 524.88 632.889 533.444 633.699 576.266C633.812 582.748 633.913 594.221 641.468 603.099C641.518 603.146 641.57 603.196 641.601 603.263Z" fill="url(#paint15_linear)"/>
<path d="M665.84 540.502C665.595 535.889 664.731 532.494 662.999 525.704C660.735 516.823 657.895 512.494 659.738 510.781C660.938 509.665 663.304 510.419 663.84 510.59C671.958 513.178 674.471 528.408 674.122 537.941C673.907 543.776 672.484 550.301 670.345 550.589C670.007 550.634 669.168 550.591 668.569 550.06C666.185 547.952 666.025 544.012 665.84 540.502Z" fill="white"/>
<path d="M669.728 558.475C670.658 558.475 671.413 557.721 671.413 556.79C671.413 555.86 670.658 555.106 669.728 555.106C668.797 555.106 668.043 555.86 668.043 556.79C668.043 557.721 668.797 558.475 669.728 558.475Z" fill="white"/>
<path d="M331.054 362.952H210.346C163.363 362.952 124.924 324.511 124.924 277.529C124.924 230.546 163.363 192.107 210.346 192.107H331.054C378.038 192.107 416.477 230.546 416.477 277.529C416.477 324.511 378.038 362.952 331.054 362.952Z" fill="url(#paint16_linear)"/>
<path d="M216.554 310.216C216.599 311.198 213.703 311.825 207.864 312.091C202.025 312.359 199.084 312.003 199.039 311.02L198.122 291.076L185.983 291.634L186.899 311.578C186.944 312.561 184.048 313.187 178.209 313.454C172.37 313.722 169.429 313.366 169.384 312.383L166.741 254.894C166.685 253.679 169.576 252.94 175.415 252.671C181.255 252.403 184.201 252.875 184.257 254.09L185.195 274.468L197.334 273.91L196.405 253.705C196.367 252.896 197.786 252.25 200.66 251.771C202.158 251.588 203.629 251.462 205.074 251.395L209.504 251.365C212.409 251.579 213.881 252.09 213.919 252.9L216.554 310.216Z" fill="url(#paint17_linear)"/>
<path d="M257.53 307.463C253.985 309.771 249.352 311.054 243.63 311.319C237.906 311.582 232.99 309.852 228.881 306.131C224.77 302.411 222.556 297.097 222.239 290.189C221.922 283.282 223.558 277.63 227.151 273.236C230.744 268.844 235.431 266.513 241.211 266.247C246.991 265.982 251.523 267.251 254.812 270.054C258.098 272.858 259.837 276.368 260.032 280.589C260.462 289.955 255.301 294.883 244.55 295.378L238.567 295.654C238.646 297.387 239.179 298.566 240.163 299.185C241.148 299.806 242.563 300.074 244.415 299.988C248.461 299.803 252.263 298.703 255.82 296.683C255.874 296.624 256.153 297.016 256.655 297.862C258.156 300.285 258.946 302.35 259.024 304.052C259.101 305.755 258.602 306.895 257.53 307.463ZM245.538 282.902C245.426 280.474 244.186 279.315 241.816 279.425C240.718 279.475 239.792 279.851 239.044 280.55C238.293 281.252 237.947 282.238 238.005 283.509L238.129 286.196L242.811 285.98C244.721 285.896 245.628 284.87 245.538 282.902Z" fill="url(#paint18_linear)"/>
<path d="M282.749 307.955C282.773 308.475 279.837 308.871 273.94 309.141C269.312 309.296 266.99 309.172 266.971 308.767L264.256 249.716C264.217 248.848 266.999 248.287 272.608 248.029C277.529 247.975 279.999 248.153 280.019 248.557L282.749 307.955Z" fill="url(#paint19_linear)"/>
<path d="M306.335 306.871C306.358 307.391 303.422 307.787 297.526 308.057C292.898 308.212 290.576 308.088 290.558 307.683L287.843 248.632C287.804 247.766 290.587 247.203 296.195 246.946C301.115 246.893 303.586 247.07 303.606 247.473L306.335 306.871Z" fill="url(#paint20_linear)"/>
<path d="M317.705 301.918C313.909 298.094 311.848 292.657 311.524 285.604C311.2 278.554 312.754 272.948 316.183 268.794C319.612 264.64 324.392 262.42 330.52 262.139C336.645 261.857 341.593 263.628 345.362 267.453C349.13 271.278 351.175 276.716 351.5 283.768C351.824 290.821 350.285 296.424 346.885 300.577C343.485 304.731 338.719 306.949 332.593 307.229C326.464 307.51 321.502 305.739 317.705 301.918ZM331.229 276.617C327.964 276.766 326.453 279.502 326.696 284.819C326.941 290.138 328.694 292.721 331.961 292.572C335.227 292.423 336.739 289.688 336.494 284.369C336.249 279.052 334.494 276.467 331.229 276.617Z" fill="url(#paint21_linear)"/>
<path d="M358.052 292.156C358.034 291.751 360.698 291.425 366.046 291.181C371.392 290.934 374.074 290.984 374.09 291.332L374.665 303.818C374.692 304.396 372.029 304.808 366.683 305.055C361.336 305.302 358.655 305.249 358.639 304.904L358.052 292.156ZM372.119 286.295C372.136 286.643 370.076 286.911 365.944 287.1C361.809 287.289 359.737 287.242 359.723 286.951L356.024 244.282C356.002 243.821 358.637 243.466 363.926 243.223C369.214 242.98 371.869 243.061 371.887 243.466L372.119 286.295Z" fill="url(#paint22_linear)"/>
<path d="M369.916 278.015C369.916 278.015 366.498 247.057 368.197 246.213C369.896 245.369 370.703 262.28 369.916 278.015Z" fill="white"/>
<path d="M371.443 295.508C372.47 295.508 373.302 294.675 373.302 293.648C373.302 292.621 372.47 291.789 371.443 291.789C370.416 291.789 369.583 292.621 369.583 293.648C369.583 294.675 370.416 295.508 371.443 295.508Z" fill="white"/>
<path d="M348.946 280.089C348.957 278.363 348.752 273.442 345.177 269.453C342.104 266.024 337.995 264.904 336.125 265.122C335.768 265.163 334.559 265.372 334.48 265.878C334.316 266.926 339.259 267.655 342.954 270.425C345.019 271.975 347.472 274.741 348.946 280.089Z" fill="white"/>
<path d="M300.847 248.031C302.746 248.013 303.469 282.73 302.917 289.012C302.366 295.292 300.083 248.038 300.847 248.031Z" fill="white"/>
<path d="M257.899 277.758C257.067 273.064 251.708 267.793 248.364 268.618C245.02 269.442 252.328 271.98 254.948 274.244C257.567 276.509 257.899 277.758 257.899 277.758Z" fill="white"/>
<path d="M228.532 304.497C232.418 308.806 237.969 309.636 238.046 309.452C238.129 309.26 231.97 308.435 228.728 303.489C227.203 301.163 225.693 296.962 224.689 296.959C224.665 296.959 224.626 296.96 224.59 296.987C224.077 297.362 226.044 301.738 228.532 304.497Z" fill="white"/>
<path d="M214.301 303.62C213.061 305.323 212.895 261.509 212.103 257.227C212.103 257.227 212.103 257.227 212.103 256.946C212.087 256.666 212.069 256.104 212.053 254.979C212.049 254.731 211.82 253.872 211.621 253.692C209.997 252.223 202.862 252.963 205.902 252.567C208.589 252.216 211.691 252.479 212.481 252.763C212.827 252.887 212.846 253.559 212.929 253.807C214.483 262.485 215.955 301.37 214.301 303.62Z" fill="white"/>
<path d="M92.8151 297.424C93.1873 297.403 93.238 292.91 92.9283 287.389C92.6186 281.868 92.0658 277.409 91.6936 277.429C91.3214 277.45 91.2708 281.943 91.5805 287.465C91.8902 292.986 92.4429 297.445 92.8151 297.424Z" fill="white"/>
<path d="M294.601 396.599C297.176 403.83 299.873 408.058 299.25 408.449C298.548 408.89 293.902 404.287 291.15 398.248C286.335 387.682 288.922 376.234 289.949 376.198C290.815 376.171 290.196 384.23 294.601 396.599Z" fill="white"/>
<defs>
<linearGradient id="paint0_linear" x1="346.199" y1="333.404" x2="369.346" y2="396.231" gradientUnits="userSpaceOnUse">
<stop stop-color="#AEF0EB"/>
<stop offset="0.0131" stop-color="#B0F0EB"/>
<stop offset="0.1379" stop-color="#C2F4EB"/>
<stop offset="0.2895" stop-color="#CEF6EA"/>
<stop offset="0.4961" stop-color="#D5F8EA"/>
<stop offset="1" stop-color="#D7F8EA"/>
</linearGradient>
<linearGradient id="paint1_linear" x1="471.864" y1="512.131" x2="632.502" y2="636.976" gradientUnits="userSpaceOnUse">
<stop offset="0.0397" stop-color="#06BED8"/>
<stop offset="1" stop-color="#DEFA8E"/>
</linearGradient>
<linearGradient id="paint2_linear" x1="553.822" y1="239.092" x2="580.274" y2="235.235" gradientUnits="userSpaceOnUse">
<stop offset="0.0397" stop-color="#06CFF1"/>
<stop offset="1" stop-color="#678FF8"/>
</linearGradient>
<linearGradient id="paint3_linear" x1="547.072" y1="306.262" x2="594.017" y2="253.259" gradientUnits="userSpaceOnUse">
<stop offset="0.0397" stop-color="#06CFF1"/>
<stop offset="1" stop-color="#7288F9"/>
</linearGradient>
<linearGradient id="paint4_linear" x1="479.076" y1="489.855" x2="665.103" y2="303.828" gradientUnits="userSpaceOnUse">
<stop offset="0.0397" stop-color="#06CFF1"/>
<stop offset="1" stop-color="#7784F9"/>
</linearGradient>
<linearGradient id="paint5_linear" x1="571.301" y1="420.276" x2="572.955" y2="345.875" gradientUnits="userSpaceOnUse">
<stop stop-color="#030D14"/>
<stop offset="1" stop-color="#0B2F45"/>
</linearGradient>
<radialGradient id="paint6_radial" cx="0" cy="0" r="1" gradientUnits="userSpaceOnUse" gradientTransform="translate(528.121 382.516) scale(30.9207)">
<stop offset="0.1296" stop-color="#3280FC"/>
<stop offset="1"/>
</radialGradient>
<linearGradient id="paint7_linear" x1="509.284" y1="382.516" x2="546.956" y2="382.516" gradientUnits="userSpaceOnUse">
<stop stop-color="#030D14"/>
<stop offset="1" stop-color="#0B2F45"/>
</linearGradient>
<radialGradient id="paint8_radial" cx="0" cy="0" r="1" gradientUnits="userSpaceOnUse" gradientTransform="translate(612.527 382.516) scale(30.9207)">
<stop offset="0.1296" stop-color="#3280FC"/>
<stop offset="1"/>
</radialGradient>
<linearGradient id="paint9_linear" x1="593.691" y1="382.516" x2="631.362" y2="382.516" gradientUnits="userSpaceOnUse">
<stop stop-color="#030D14"/>
<stop offset="1" stop-color="#0B2F45"/>
</linearGradient>
<linearGradient id="paint10_linear" x1="548.009" y1="207.147" x2="583.014" y2="202.042" gradientUnits="userSpaceOnUse">
<stop offset="0.0397" stop-color="#06CFF1"/>
<stop offset="1" stop-color="#7387F9"/>
</linearGradient>
<linearGradient id="paint11_linear" x1="570.662" y1="449.172" x2="624.524" y2="395.31" gradientUnits="userSpaceOnUse">
<stop offset="0.0714" stop-color="#0DA9AB"/>
<stop offset="1" stop-color="#DEFA8E"/>
</linearGradient>
<linearGradient id="paint12_linear" x1="519.789" y1="612.619" x2="662.494" y2="445.976" gradientUnits="userSpaceOnUse">
<stop offset="0.0397" stop-color="#06CFF1"/>
<stop offset="0.0408" stop-color="#06CFF1"/>
<stop offset="0.1607" stop-color="#37D9DB"/>
<stop offset="0.2745" stop-color="#5DE0CA"/>
<stop offset="0.3793" stop-color="#78E6BD"/>
<stop offset="0.4719" stop-color="#88E9B6"/>
<stop offset="0.5423" stop-color="#8EEAB3"/>
<stop offset="0.8004" stop-color="#B9F39F"/>
<stop offset="1" stop-color="#DEFA8E"/>
</linearGradient>
<linearGradient id="paint13_linear" x1="512.23" y1="529.539" x2="598.048" y2="429.326" gradientUnits="userSpaceOnUse">
<stop offset="0.0397" stop-color="#06CFF1"/>
<stop offset="1" stop-color="#DEFA8E"/>
</linearGradient>
<linearGradient id="paint14_linear" x1="696.623" y1="587.735" x2="589.776" y2="509.588" gradientUnits="userSpaceOnUse">
<stop offset="0.0397" stop-color="#06CFF1"/>
<stop offset="0.0734" stop-color="#0FD1ED"/>
<stop offset="0.4151" stop-color="#1ED4E6"/>
<stop offset="0.6937" stop-color="#3EABF5"/>
<stop offset="0.8955" stop-color="#49A3F6"/>
<stop offset="1" stop-color="#5D97F1"/>
</linearGradient>
<linearGradient id="paint15_linear" x1="602.46" y1="580.157" x2="678.186" y2="540.695" gradientUnits="userSpaceOnUse">
<stop offset="0.0397" stop-color="#06BED8"/>
<stop offset="1" stop-color="#DEFA8E"/>
</linearGradient>
<linearGradient id="paint16_linear" x1="124.923" y1="277.529" x2="416.477" y2="277.529" gradientUnits="userSpaceOnUse">
<stop stop-color="#D7F8EA"/>
<stop offset="0.5053" stop-color="#ECF8F2"/>
<stop offset="1" stop-color="#D7F8EA"/>
</linearGradient>
<linearGradient id="paint17_linear" x1="170.891" y1="287.842" x2="403.678" y2="227.125" gradientUnits="userSpaceOnUse">
<stop offset="0.0397" stop-color="#06CFF1"/>
<stop offset="1" stop-color="#DEFA8E"/>
</linearGradient>
<linearGradient id="paint18_linear" x1="175.72" y1="306.365" x2="408.516" y2="245.646" gradientUnits="userSpaceOnUse">
<stop offset="0.0397" stop-color="#06CFF1"/>
<stop offset="1" stop-color="#2AB7F4"/>
</linearGradient>
<linearGradient id="paint19_linear" x1="175.193" y1="304.317" x2="407.974" y2="243.602" gradientUnits="userSpaceOnUse">
<stop offset="0.0397" stop-color="#06CFF1"/>
<stop offset="1" stop-color="#35B0F4"/>
</linearGradient>
<linearGradient id="paint20_linear" x1="176.432" y1="309.062" x2="409.214" y2="248.347" gradientUnits="userSpaceOnUse">
<stop offset="0.0397" stop-color="#06CFF1"/>
<stop offset="1" stop-color="#6B8CF8"/>
</linearGradient>
<linearGradient id="paint21_linear" x1="180.354" y1="324.121" x2="413.146" y2="263.403" gradientUnits="userSpaceOnUse">
<stop offset="0.0397" stop-color="#06CFF1"/>
<stop offset="1" stop-color="#5997F7"/>
</linearGradient>
<linearGradient id="paint22_linear" x1="179.935" y1="322.455" x2="412.71" y2="261.742" gradientUnits="userSpaceOnUse">
<stop offset="0.0397" stop-color="#06CFF1"/>
<stop offset="1" stop-color="#688EF8"/>
</linearGradient>
</defs>
</svg>
