<?xml version="1.0" encoding="utf-8"?>
<!-- Generator: Adobe Illustrator 16.0.0, SVG Export Plug-In . SVG Version: 6.00 Build 0)  -->
<!DOCTYPE svg PUBLIC "-//W3C//DTD SVG 1.1//EN" "http://www.w3.org/Graphics/SVG/1.1/DTD/svg11.dtd">
<svg version="1.1" id="Layer_1" xmlns="http://www.w3.org/2000/svg" xmlns:xlink="http://www.w3.org/1999/xlink" x="0px" y="0px"
	 width="522.309px" height="288px" viewBox="0 0 522.309 288" enable-background="new 0 0 522.309 288" xml:space="preserve">
<g>
	
		<linearGradient id="SVGID_1_" gradientUnits="userSpaceOnUse" x1="-754.4883" y1="-45.1074" x2="-416.9839" y2="-382.6117" gradientTransform="matrix(-1 0 0 -1 -446.3818 -34)">
		<stop  offset="0" style="stop-color:#D8D8D8"/>
		<stop  offset="0.1245" style="stop-color:#BAD6DD"/>
		<stop  offset="0.5567" style="stop-color:#58CFEF"/>
		<stop  offset="0.8578" style="stop-color:#1ACBFB"/>
		<stop  offset="1" style="stop-color:#00C9FF"/>
	</linearGradient>
	<rect x="-112.785" fill="url(#SVGID_1_)" width="576" height="288"/>
	<g>
		
			<image overflow="visible" opacity="0.02" width="1106" height="961" xlink:href="B5E6F07C.png"  transform="matrix(1 0 0 1 -290.3457 -321.5)">
		</image>
		<g>
			
				<image overflow="visible" opacity="0.75" width="462" height="319" xlink:href="B5E6F084.png"  transform="matrix(1 0 0 1 23.6543 -8.5)">
			</image>
			<g>
				<path fill="#FFFFFF" d="M182.049,0h-0.561l-8.639,17.054c-0.366-0.172-0.748-0.161-0.964,0.07
					c-0.194,0.208-0.19,0.54-0.046,0.863l-14.107,6c-0.018-0.018-0.026-0.038-0.044-0.055c-0.453-0.423-1.06-0.51-1.355-0.193
					c-0.222,0.237-0.206,0.631,0.005,0.992L114.039,51.82c-0.446-0.386-1.02-0.464-1.305-0.158
					c-0.272,0.291-0.174,0.815,0.192,1.228L91.907,83.065c-0.395-0.224-0.823-0.237-1.059,0.015
					c-0.268,0.286-0.175,0.796,0.176,1.206l-57.243,76.007c-0.401-0.238-0.843-0.258-1.082-0.002
					c-0.297,0.316-0.17,0.916,0.282,1.34c0.346,0.322,0.777,0.445,1.096,0.348l25.332,25.605c-0.128,0.332,0.007,0.795,0.383,1.146
					c0.424,0.396,0.973,0.479,1.285,0.231l37.169,25.062c-0.009,0.299,0.13,0.645,0.425,0.92c0.408,0.381,0.93,0.471,1.248,0.258
					l31.14,22.791c-0.028,0.309,0.115,0.678,0.426,0.969c0.452,0.424,1.06,0.51,1.355,0.193c0.096-0.104,0.132-0.24,0.143-0.387
					l11.536,1.518c0.075,0.152,0.172,0.301,0.313,0.432c0.311,0.291,0.688,0.41,0.994,0.361l23.639,28.143
					c-0.192,0.33-0.067,0.846,0.341,1.229c0.301,0.278,0.663,0.396,0.964,0.358L184.522,288h0.641l-13.93-17.412L206.819,288h3.266
					l102.673-29.408c0.037,0.041,0.063,0.088,0.105,0.129c0.033,0.031,0.069,0.047,0.104,0.076L305.333,288h0.519l7.573-28.961
					c0.06,0.018,0.117,0.047,0.176,0.055l10.849,21.383c-0.037,0.023-0.084,0.035-0.115,0.068c-0.254,0.273-0.18,0.75,0.131,1.15
					L318.711,288h0.678l5.313-5.822L323.385,288h0.515l1.307-5.789c0.141,0.039,0.275,0.053,0.402,0.033l4.813,5.756h0.652
					l-5.049-6.033c0.102-0.174,0.112-0.389,0.043-0.621l62.19-15.051c0.043,0.051,0.072,0.107,0.125,0.154
					c0.064,0.061,0.138,0.098,0.203,0.145L386.196,288h0.502l2.375-21.193c0.059,0.012,0.108,0.01,0.168,0.012L403.092,288h0.601
					l-3.095-4.732l-10.869-16.617c0.005-0.004,0.013-0.004,0.015-0.008c0.166-0.176,0.188-0.438,0.104-0.715l40.769-9.055
					l8.479-1.883c0.047,0.055,0.08,0.115,0.138,0.168c0.051,0.047,0.104,0.074,0.161,0.113L433.668,288h0.508l4.051-23.156
					l1.638-9.348c0.25,0.063,0.479,0.029,0.647-0.102l1.326,0.903l21.377,14.601v-0.605l-22.484-15.355
					c0.005-0.133-0.022-0.271-0.081-0.414l5.631-2.094l13.953-5.188c0.024,0.023,0.038,0.057,0.065,0.082
					c0.23,0.215,0.498,0.342,0.748,0.371l2.168,4.158v-1.082l-1.666-3.191c0.033-0.021,0.076-0.033,0.105-0.063
					c0.049-0.055,0.063-0.121,0.094-0.188l1.467,0.506v-0.525l-1.453-0.504c-0.002-0.008-0.006-0.014-0.008-0.02l1.461-0.354v-0.515
					l-1.717,0.412c-0.012-0.015-0.021-0.026-0.031-0.039l1.748-2.451v-0.86l-2.133,2.99c-0.227-0.13-0.455-0.181-0.662-0.16
					l-35.68-45.681c0.063-0.096,0.096-0.203,0.104-0.323l38.371,4.623v-0.505l-38.488-4.637c-0.073-0.147-0.172-0.295-0.309-0.424
					c-0.018-0.017-0.037-0.023-0.053-0.037l19.576-55.082c0.137,0.051,0.268,0.073,0.395,0.069l18.879,27.016v-0.873l-10.291-14.727
					l-8.111-11.606c0.063-0.071,0.104-0.155,0.128-0.248l13.745,3.502l4.529,1.154v-0.517l-18.338-4.675
					c-0.002-0.005-0.004-0.009-0.006-0.014l18.344-6.41v-0.529l-18.619,6.505c-0.026-0.03-0.045-0.065-0.074-0.094
					c-0.075-0.071-0.159-0.118-0.241-0.17l3.86-65.329c0.063,0.009,0.115-0.004,0.175-0.007l14.899,20.679V96.62l-14.434-20.029
					c0.076-0.093,0.115-0.208,0.127-0.333l14.307,2.171v-0.506l-13.072-1.984l13.072-1.015v-0.501l-14.52,1.127
					c-0.027-0.041-0.064-0.078-0.094-0.116l2.288-2.894l10.625-13.41c0.402,0.247,0.855,0.272,1.101,0.012
					c0.045-0.048,0.063-0.114,0.09-0.175l0.51,0.183v-0.53l-0.488-0.175c-0.063-0.221-0.188-0.449-0.395-0.641
					c-0.08-0.075-0.168-0.125-0.256-0.179l0.498-12.265c0.188,0.025,0.354-0.022,0.494-0.112l0.145,0.109v-1.048
					c-0.022-0.057-0.039-0.113-0.074-0.168l0.074-0.058v-0.627l-0.416,0.315c-0.115-0.093-0.236-0.166-0.361-0.216l-2.666-12.649
					c0.142-0.021,0.271-0.067,0.365-0.168c0.16-0.171,0.188-0.425,0.115-0.689l2.963-0.563v-0.509l-3.211,0.61
					c-0.049-0.063-0.09-0.13-0.15-0.188c-0.452-0.423-1.061-0.509-1.354-0.193c-0.006,0.006-0.006,0.017-0.012,0.023L430.68,13.935
					l32.533,5.953v-0.509l-33.139-6.063c-0.07-0.156-0.166-0.307-0.308-0.444L436.467,0h-0.563l-6.543,12.582
					c-0.066-0.032-0.133-0.045-0.201-0.064L424.793,0h-0.527l4.361,12.508c-0.088,0.031-0.174,0.073-0.236,0.142
					c-0.01,0.009-0.01,0.022-0.018,0.032L404.844,0h-1.055l24.459,13.183c0.004,0.041,0.002,0.079,0.012,0.121l-49.139,7.323
					c-0.055-0.073-0.105-0.148-0.174-0.215c-0.281-0.263-0.617-0.378-0.906-0.365L363.551,0h-0.617l14.252,19.713L351.831,0h-0.814
					l26.437,20.553c-0.019,0.117-0.004,0.242,0.033,0.372l-36.865,7.743c-0.047-0.059-0.084-0.121-0.143-0.175
					c-0.166-0.156-0.354-0.25-0.539-0.311L331.483,0h-0.523l8.441,28.136c-0.107,0.03-0.203,0.083-0.279,0.164
					c-0.232,0.25-0.195,0.674,0.051,1.051l-23.416,18.368c-0.022-0.019-0.049-0.034-0.071-0.051L322.426,0h-0.506l-6.713,47.447
					c-0.174-0.038-0.336-0.03-0.477,0.025L263.523,0h-0.735l51.604,47.839c-0.063,0.203-0.024,0.444,0.095,0.682L261.84,75.537
					c-0.004-0.004-0.006-0.008-0.01-0.012c-0.2-0.188-0.431-0.297-0.649-0.347L229.609,0h-0.543l31.592,75.224
					c-0.043,0.021-0.086,0.042-0.123,0.074l-81.031-53.24l-5.837-3.835c0.003-0.287-0.131-0.612-0.404-0.879L182.049,0z
					 M260.359,76.013l-43.832,7.915c-0.051-0.065-0.093-0.134-0.156-0.194c-0.264-0.246-0.574-0.363-0.85-0.368l-41.957-64.612
					l43.779,28.764l42.992,28.247C260.334,75.846,260.335,75.926,260.359,76.013z M126.715,146.467
					c0.31,0.096,0.61,0.07,0.793-0.125c0.146-0.154,0.187-0.381,0.139-0.617l52.224-5.659l34.688-3.758l-15.354,5.39l-78.135,27.428
					c-0.028-0.031-0.045-0.063-0.075-0.094c-0.034-0.033-0.073-0.05-0.109-0.076l1.597-6.158L126.715,146.467z M120.43,168.713
					c-0.31-0.096-0.61-0.07-0.792,0.125c-0.104,0.109-0.138,0.26-0.143,0.42l-84.067-8.266l71.259-11.84l19.301-3.207
					c0.053,0.07,0.097,0.141,0.164,0.203c0.034,0.033,0.073,0.049,0.108,0.078L120.43,168.713z M338.217,213.908
					c-0.016-0.016-0.035-0.023-0.053-0.039l3.494-9.832c0.149,0.057,0.297,0.078,0.438,0.068l44.459,59.039l-21.742-21.81
					l-26.211-26.289C338.727,214.719,338.592,214.258,338.217,213.908z M398.547,52.252l-58.959,17.079l14.123-12.95l28.363-26.008
					c0.254,0.184,0.524,0.271,0.77,0.252l15.76,20.916C398.465,51.729,398.454,51.985,398.547,52.252z M398.811,52.696
					c0.037,0.042,0.063,0.089,0.104,0.128c0.086,0.081,0.182,0.138,0.275,0.193l-1.306,95.883c-0.053-0.004-0.1,0.006-0.146,0.008
					l-25.633-34.459l-32.63-43.864c0.144-0.188,0.152-0.448,0.06-0.718L398.811,52.696z M324.305,173.289l72.855-22.879
					l-55.092,52.066c-0.215-0.152-0.439-0.24-0.652-0.25l-5.352-8.734L324.186,174.1c0.013-0.012,0.029-0.014,0.041-0.022
					C324.407,173.883,324.415,173.586,324.305,173.289z M324.036,172.85c-0.033-0.037-0.053-0.08-0.092-0.115
					c-0.119-0.108-0.252-0.194-0.388-0.26L321,151.318l-3.627-30.005c0.18-0.007,0.342-0.052,0.455-0.172
					c0.045-0.048,0.063-0.112,0.086-0.171l79.271,28.808c0.011,0.031,0.025,0.063,0.037,0.092L324.036,172.85z M323.043,172.369
					c-0.121,0.006-0.227,0.037-0.32,0.094l-44.356-34.295l-23.772-18.379c0.007-0.052,0.001-0.107-0.004-0.163l61.616,0.984
					c0.07,0.118,0.16,0.232,0.27,0.336c0.121,0.112,0.255,0.197,0.388,0.261L323.043,172.369z M262.258,76.543
					c0.002-0.005,0-0.011,0-0.016l59.791,10.913c0.074,0.167,0.176,0.333,0.33,0.477c0.051,0.047,0.105,0.074,0.158,0.112
					l-5.617,31.432c-0.219-0.054-0.42-0.034-0.582,0.058L262.258,76.543z M323.006,88.256c0.211,0.052,0.402,0.036,0.563-0.045
					l73.291,60.911l-2.086-0.758l-76.828-27.917c-0.063-0.223-0.189-0.453-0.396-0.646c-0.051-0.047-0.104-0.073-0.158-0.112
					l2.849-15.922L323.006,88.256z M323.602,86.956l7.127-7.925l7.589-8.438c0.231,0.154,0.479,0.226,0.7,0.211l57.654,77.508
					l-51.641-42.917l-21.154-17.58C323.932,87.557,323.823,87.238,323.602,86.956z M399.688,53.196
					c0.229,0.024,0.441-0.029,0.582-0.179c0.021-0.02,0.021-0.05,0.037-0.072l46.681,22.728c0.034,0.222,0.153,0.452,0.342,0.659
					l-24.058,35.722l-24.889,36.955L399.688,53.196z M447.36,77.183l-17.986,72.042c-0.307-0.092-0.604-0.063-0.783,0.127
					c-0.123,0.131-0.156,0.314-0.141,0.508l-19.019-0.164l-10.51-0.092c-0.049-0.08-0.115-0.151-0.184-0.229l47.867-71.08
					L447.36,77.183z M423.17,198.611c-0.035,0.021-0.078,0.033-0.107,0.063c-0.133,0.143-0.168,0.346-0.141,0.561l-80.451,3.648
					c-0.014-0.018-0.03-0.035-0.045-0.055l1.502-1.418l53.828-50.873c0.188,0.135,0.387,0.23,0.576,0.256L423.17,198.611z
					 M337.725,213.611c-0.334-0.123-0.666-0.105-0.862,0.104c-0.123,0.133-0.158,0.318-0.142,0.518l-11.34,0.021l-13.789,0.027
					l29.502-10.627c0.025,0.027,0.043,0.061,0.07,0.088c0.02,0.016,0.037,0.023,0.055,0.037L337.725,213.611z M310.758,214.049
					c-0.024-0.029-0.041-0.061-0.07-0.088c-0.021-0.021-0.049-0.031-0.071-0.053l12.772-39.723c0.104,0.032,0.203,0.061,0.304,0.063
					l17.229,28.125c-0.012,0.015-0.027,0.017-0.041,0.022c-0.186,0.199-0.188,0.513-0.063,0.818L310.758,214.049z M310.172,213.656
					c-0.289-0.102-0.563-0.084-0.76,0.063l-6.088-4.205l-1.697-1.172c0.014-0.27-0.107-0.574-0.352-0.84l16.055-24.471l5.275-8.043
					l-10.813,33.615L310.172,213.656z M300.885,207.188c-0.383-0.211-0.793-0.217-1.025,0.021l-38.947-23.313l-13.373-8.004
					c0.058-0.07,0.104-0.127,0.14-0.174l20.69-0.59l54.26-1.549c0.047,0.07,0.105,0.143,0.166,0.207l-10.297,15.697L300.885,207.188
					z M247.532,175.885l-0.163-0.098c-0.001-0.02,0.002-0.039-0.001-0.061l0.302-0.011
					C247.633,175.762,247.583,175.822,247.532,175.885z M247.187,175.232c-0.066-0.105-0.145-0.209-0.242-0.301
					c-0.062-0.06-0.129-0.095-0.193-0.14l5.81-45.165l1.202-9.344c0.21,0.043,0.397,0.013,0.553-0.08l61.645,47.658l6.484,5.017
					c-0.009,0.063-0.004,0.138,0.004,0.205L247.187,175.232z M246.275,174.578c-0.09-0.018-0.173-0.018-0.256-0.012l-28.487-38.028
					c0.159-0.212,0.154-0.519,0.014-0.823l28.904-12.882l6.607-2.945c0.015,0.014,0.021,0.031,0.035,0.044
					c0.062,0.057,0.129,0.091,0.193,0.135l-6.295,48.939L246.275,174.578z M252.769,119.47l-35.512,15.827
					c-0.014-0.014-0.021-0.031-0.036-0.044c-0.094-0.088-0.196-0.151-0.299-0.21l-0.416-25.16L216.1,85.251
					c0.121,0.009,0.232-0.007,0.334-0.046l6.181,5.732l30.075,27.894C252.633,119.021,252.666,119.245,252.769,119.47z
					 M245.562,174.791c-0.087,0.117-0.12,0.26-0.114,0.418l-123.695-5.795l26.12-9.168l68.201-23.941
					c0.027,0.03,0.045,0.065,0.075,0.094c0.288,0.269,0.633,0.384,0.926,0.364l26.051,34.776L245.562,174.791z M127.646,145.221
					l87.723-60.291c0.074,0.062,0.15,0.115,0.229,0.16l0.378,22.917l0.444,26.875c-0.219-0.016-0.42,0.034-0.554,0.177
					c-0.146,0.156-0.187,0.381-0.14,0.619L127.646,145.221z M260.921,76.783l-7.384,41.665c-0.186-0.045-0.357-0.043-0.508,0.015
					l-36.257-33.625c0.041-0.135,0.041-0.286-0.001-0.445l11.822-2.135l32.01-5.78c0.051,0.065,0.093,0.134,0.156,0.194
					C260.811,76.718,260.868,76.745,260.921,76.783z M261.969,76.952l54.078,42.976c-0.008,0.057,0,0.119,0.004,0.18l-61.615-0.984
					c-0.07-0.118-0.16-0.233-0.271-0.336c-0.051-0.047-0.106-0.074-0.16-0.113l5.814-32.814l1.568-8.851
					C261.607,77.063,261.807,77.043,261.969,76.952z M322.479,86.409c-0.147,0.019-0.284,0.064-0.383,0.168
					c-0.084,0.091-0.125,0.209-0.145,0.336L262.161,76c-0.009-0.019-0.013-0.037-0.021-0.056l51.547-26.452l1.099-0.563
					c0.004,0.003,0.006,0.008,0.01,0.012c0.142,0.13,0.293,0.216,0.447,0.281L322.479,86.409z M315.934,49.265l21.759,20.076
					c-0.08,0.272,0.018,0.613,0.256,0.916l-14.715,16.361c-0.076-0.05-0.15-0.095-0.229-0.127l-7.236-37.186
					C315.827,49.296,315.881,49.286,315.934,49.265z M339.667,29.821l-1.254,39.102c-0.139-0.017-0.267,0.004-0.381,0.05
					l-17.48-16.128l-4.276-3.949c0.069-0.241,0.008-0.536-0.175-0.813l23.416-18.368C339.565,29.754,339.616,29.79,339.667,29.821z
					 M340.901,29.329l40.741,0.598c0.021,0.033,0.056,0.061,0.076,0.093l-42.713,39.164c-0.033-0.025-0.063-0.051-0.102-0.072
					l1.254-39.102c0.235,0.029,0.455-0.026,0.6-0.18C340.881,29.702,340.915,29.521,340.901,29.329z M381.78,28.834
					c-0.052,0.028-0.107,0.045-0.146,0.088c-0.121,0.129-0.153,0.31-0.143,0.502l-1.129-0.017l-38.17-0.56l35.543-7.465
					c0.047,0.059,0.084,0.121,0.143,0.175c0.213,0.199,0.459,0.317,0.693,0.36L381.78,28.834z M426.61,14.055L383.065,29.21
					c-0.029-0.031-0.048-0.066-0.076-0.095c-0.215-0.2-0.461-0.317-0.695-0.36l-0.543-1.171l-2.666-5.746
					c0.051-0.028,0.107-0.045,0.148-0.088c0.147-0.164,0.188-0.403,0.129-0.654L426.61,14.055z M428.502,13.926L399.717,51.49
					c-0.223-0.134-0.451-0.192-0.66-0.176l-15.758-20.916c0.146-0.197,0.148-0.472,0.037-0.754L428.502,13.926z M461.424,43.883
					c-0.037,0.123-0.051,0.257-0.02,0.401l-42.433,5.284l-18.803,2.341c-0.02-0.032-0.049-0.062-0.074-0.093l28.847-37.64
					c0.301,0.181,0.614,0.232,0.86,0.139L461.424,43.883z M461.909,43.483c-0.049,0.008-0.101,0.017-0.146,0.035l-8.422-7.876
					L430.84,14.598l27.516,15.135c0.025,0.273,0.164,0.572,0.425,0.816c0.145,0.134,0.303,0.221,0.463,0.286l2.106,9.995
					L461.909,43.483z M449.038,74.083l13.021-28.409l-0.479,11.76c-0.24-0.031-0.461,0.025-0.605,0.18
					c-0.266,0.282-0.178,0.785,0.164,1.191L449.038,74.083z M448.059,75.016c-0.354-0.157-0.723-0.145-0.934,0.08
					c-0.018,0.02-0.02,0.049-0.037,0.071l-46.68-22.728c-0.002-0.02,0.002-0.037-0.002-0.056l61.229-7.625
					c0.06,0.079,0.107,0.159,0.188,0.229L448.059,75.016z M443.79,141.935c-0.246-0.037-0.475,0.019-0.625,0.179
					c-0.203,0.218-0.193,0.571-0.027,0.907l-5.203,2.584l-7.973,3.959c-0.008-0.006-0.01-0.016-0.016-0.021
					c-0.037-0.033-0.078-0.051-0.115-0.08l17.707-70.935L443.79,141.935z M424.372,197.316l5.186-46.271
					c0.267,0.054,0.515,0.006,0.673-0.164c0.204-0.219,0.192-0.567,0.026-0.905l13.179-6.543c0.006,0.006,0.01,0.014,0.016,0.02
					c0.016,0.016,0.037,0.023,0.053,0.038L424.372,197.316z M423.735,198.51c-0.021-0.004-0.041-0.014-0.064-0.016l-24.838-47.818
					c0.035-0.023,0.078-0.031,0.106-0.063c0.121-0.131,0.154-0.314,0.142-0.508l29.522,0.256c0.068,0.115,0.156,0.229,0.267,0.33
					c0.063,0.061,0.135,0.098,0.205,0.143L423.735,198.51z M424.48,200.611l24.253,31.049l11.241,14.398
					c-0.137,0.196-0.139,0.473-0.02,0.752l-19.584,7.28c-0.025-0.024-0.041-0.057-0.066-0.082c-0.164-0.151-0.348-0.243-0.528-0.309
					L424.48,200.611z M389.489,265.34l34.235-65.066c0.052,0.023,0.103,0.031,0.148,0.047l15.363,53.334
					c-0.113,0.029-0.213,0.08-0.291,0.164c-0.166,0.179-0.188,0.441-0.105,0.718l-9.209,2.045l-40.037,8.896
					C389.559,265.428,389.532,265.381,389.489,265.34z M369.145,239.195l-26.596-35.316c0.104-0.137,0.139-0.313,0.111-0.504
					l80.453-3.648c0.057,0.086,0.123,0.172,0.203,0.252l-34.238,65.066c-0.189-0.092-0.375-0.117-0.549-0.105L369.145,239.195z
					 M314.104,258.982c0.037-0.025,0.084-0.035,0.113-0.068c0.104-0.109,0.14-0.258,0.144-0.418l73.088,7.48l-61.636,14.916
					c-0.043-0.054-0.073-0.107-0.125-0.154c-0.229-0.211-0.489-0.34-0.735-0.375L314.104,258.982z M313.975,257.625l23.531-42.318
					c0.26,0.129,0.523,0.16,0.738,0.094l18.131,18.188l31.627,31.726c-0.023,0.065-0.039,0.141-0.041,0.219l-73.725-7.545
					C314.172,257.857,314.086,257.736,313.975,257.625z M310.473,215.475c0.195,0.002,0.377-0.045,0.498-0.176
					c0.123-0.133,0.158-0.318,0.142-0.518l25.772-0.049c0.062,0.096,0.135,0.186,0.221,0.271l-23.521,42.293L310.473,215.475z
					 M312.938,255.313l-1.088-4.285l-10.688-42.112c0.092-0.021,0.172-0.063,0.243-0.117l5.71,3.943l2.075,1.436
					c-0.014,0.304,0.128,0.652,0.427,0.937c0.108,0.1,0.227,0.18,0.346,0.242L312.938,255.313z M209.066,287.771l91.206-79.117
					c0.117,0.086,0.232,0.152,0.355,0.197l9.771,38.496l2.504,9.864c-0.125,0.027-0.238,0.076-0.324,0.166
					c-0.176,0.188-0.189,0.478-0.086,0.769L209.066,287.771z M208.583,287.527l36.922-108.588l0.872-2.563
					c0.323,0.117,0.644,0.099,0.839-0.101l30.927,18.513l21.563,12.907c0.01,0.195,0.08,0.398,0.217,0.599l-29.385,25.49
					L208.583,287.527z M171.001,269.453l74.716-92.693L208.08,287.451c-0.329-0.121-0.657-0.102-0.852,0.105
					c-0.019,0.02-0.021,0.047-0.035,0.065l-28.317-13.854l-7.576-3.709C171.269,269.857,171.163,269.648,171.001,269.453z
					 M146.183,239.918l99.067-63.377l-74.626,92.58c-0.252-0.154-0.514-0.219-0.741-0.182l-23.64-28.146
					C146.383,240.559,146.365,240.23,146.183,239.918z M139.606,223.076l-18.563-52.566c0.088-0.031,0.171-0.072,0.234-0.141
					c0.113-0.121,0.147-0.291,0.141-0.471l124.17,5.815c0.004,0.004,0.004,0.011,0.006,0.015l-97.881,62.614l-1.858,1.189
					c-0.17-0.148-0.354-0.24-0.539-0.293L139.606,223.076z M132.133,237.539l-10.949-65.131l23.6,66.828
					c-0.088,0.031-0.171,0.072-0.234,0.141c-0.097,0.102-0.133,0.24-0.143,0.387l-11.537-1.52c-0.074-0.15-0.171-0.301-0.312-0.432
					C132.425,237.689,132.28,237.604,132.133,237.539z M99.752,213.805l20.583-43.354c0.004,0.002,0.008,0.002,0.012,0.004
					l7.155,42.563l4.108,24.437c-0.113,0.012-0.212,0.047-0.3,0.104l-31.141-22.793C100.198,214.457,100.056,214.094,99.752,213.805
					z M61.226,188.139l58.602-18.078c0.03,0.035,0.051,0.072,0.086,0.105l-20.583,43.359c-0.328-0.148-0.656-0.142-0.874,0.035
					L61.29,188.5C61.293,188.385,61.272,188.266,61.226,188.139z M34.437,161.629c0.027-0.072,0.041-0.146,0.043-0.227l84.717,8.328
					l-1.192,0.369L60.959,187.7c-0.034-0.039-0.057-0.082-0.095-0.117c-0.345-0.322-0.777-0.447-1.096-0.349L34.437,161.629z
					 M91.918,84.789l28.708,50.607l5.315,9.372c-0.022,0.019-0.053,0.021-0.072,0.043c-0.156,0.166-0.188,0.412-0.123,0.668
					l-91.527,15.207c-0.018-0.021-0.036-0.045-0.056-0.065l57.243-76.01C91.577,84.71,91.75,84.773,91.918,84.789z M113.419,53.266
					l12.838,91.042L92.416,84.654c0.022-0.018,0.053-0.022,0.072-0.043c0.271-0.291,0.173-0.815-0.193-1.228l21.019-30.175
					C113.349,53.229,113.383,53.25,113.419,53.266z M114.373,53.193c0.056-0.06,0.082-0.137,0.109-0.214l75.332,23.48l25.107,7.826
					c0.029,0.09,0.06,0.18,0.113,0.269l-22.162,15.232l-65.72,45.167c-0.106-0.088-0.217-0.163-0.331-0.217l-12.884-91.371
					C114.107,53.354,114.263,53.31,114.373,53.193z M197.58,66.061l17.338,17.67c-0.003,0.009-0.01,0.016-0.012,0.025
					L114.467,52.449c-0.027-0.083-0.051-0.166-0.099-0.248l42.298-27.089c0.335,0.29,0.738,0.407,1.041,0.315L197.58,66.061z
					 M173.018,18.832l41.249,63.521l-56.199-57.272c0.076-0.196,0.058-0.433-0.051-0.673l14.107-5.999
					c0.018,0.017,0.026,0.038,0.045,0.055C172.432,18.709,172.743,18.826,173.018,18.832z"/>
			</g>
		</g>
	</g>
	<g opacity="0.06" enable-background="new    ">
		
			<image overflow="visible" opacity="0.77" enable-background="new    " width="1248" height="1153" xlink:href="B5E6F07E.png"  transform="matrix(1 0 0 1 -287.3457 -382.5)">
		</image>
		<g>
			<polygon fill="#525252" points="80.061,144 269.241,288 463.215,288 463.215,0 269.252,0 			"/>
		</g>
	</g>
	<g opacity="0.2" enable-background="new    ">
		
			<image overflow="visible" enable-background="new    " width="1179" height="1153" xlink:href="B5E6F082.png"  transform="matrix(1 0 0 1 -218.3457 -382.5)">
		</image>
		<g>
			<polygon fill="#C7C7C7" points="149.405,144 311.756,288 463.215,288 463.215,0 311.766,0 			"/>
		</g>
	</g>
	<g>
		
			<image overflow="visible" opacity="0.75" enable-background="new    " width="374" height="319" xlink:href="B5E6F085.png"  transform="matrix(1 0 0 1 171.6543 -8.5)">
		</image>
		<g>
			
				<linearGradient id="SVGID_2_" gradientUnits="userSpaceOnUse" x1="-1066.3706" y1="-374.4937" x2="-837.3533" y2="-145.4763" gradientTransform="matrix(-1 0 0 -1 -446.3818 -34)">
				<stop  offset="0" style="stop-color:#D8D8D8"/>
				<stop  offset="0.3543" style="stop-color:#E7E7E7"/>
				<stop  offset="1" style="stop-color:#FFFFFF"/>
			</linearGradient>
			<polygon fill="url(#SVGID_2_)" points="180.085,144 349.35,288 522.905,288 522.905,0 349.362,0 			"/>
		</g>
	</g>
</g>
</svg>
