<?xml version="1.0" encoding="utf-8"?>
<!-- Generator: Adobe Illustrator 16.0.0, SVG Export Plug-In . SVG Version: 6.00 Build 0)  -->
<!DOCTYPE svg PUBLIC "-//W3C//DTD SVG 1.1//EN" "http://www.w3.org/Graphics/SVG/1.1/DTD/svg11.dtd">
<svg version="1.1" id="Ñëîé_5" xmlns="http://www.w3.org/2000/svg" xmlns:xlink="http://www.w3.org/1999/xlink" x="0px" y="0px"
	 width="521px" height="262px" viewBox="-40.5 -3.167 521 262" enable-background="new -40.5 -3.167 521 262" xml:space="preserve">
<g>
	<ellipse fill="#032237" cx="174.519" cy="113.827" rx="195.778" ry="87.792"/>
	<g>
		<g>
			<g>
				<defs>
					<path id="SVGID_1_" d="M34.466,86.742v19.738h32.763V86.742c0-2.818,0.69-4.935,2.07-6.342c1.38-1.412,3.195-2.115,5.443-2.115
						c2.283,0,4.132,0.698,5.547,2.09c1.413,1.395,2.12,3.519,2.12,6.368v54.277c0,2.85-0.715,4.979-2.146,6.392
						c-1.43,1.409-3.271,2.113-5.521,2.113c-2.282,0-4.105-0.712-5.469-2.137c-1.362-1.427-2.043-3.548-2.043-6.368v-23.168H34.466
						v23.166c0,2.852-0.716,4.981-2.147,6.39c-1.43,1.412-3.27,2.114-5.52,2.114c-2.284,0-4.106-0.712-5.468-2.138
						c-1.364-1.424-2.045-3.548-2.045-6.366V86.742c0-2.818,0.673-4.935,2.02-6.342c1.345-1.412,3.177-2.115,5.494-2.115
						c2.282,0,4.132,0.698,5.546,2.09C33.759,81.77,34.466,83.893,34.466,86.742z M149.977,123.442
						c0,3.823-0.647,7.348-1.942,10.574c-1.295,3.228-3.168,5.999-5.622,8.316c-2.454,2.32-5.384,4.098-8.792,5.334
						c-3.407,1.239-7.24,1.856-11.5,1.856c-4.226,0-8.025-0.628-11.398-1.879c-3.373-1.251-6.295-3.047-8.765-5.38
						c-2.471-2.333-4.345-5.091-5.623-8.272c-1.277-3.178-1.916-6.693-1.916-10.55c0-3.882,0.646-7.439,1.942-10.667
						c1.294-3.227,3.152-5.981,5.571-8.27c2.42-2.285,5.349-4.049,8.792-5.287c3.441-1.238,7.239-1.855,11.397-1.855
						c4.225,0,8.059,0.626,11.5,1.878s6.389,3.038,8.842,5.355c2.453,2.321,4.319,5.077,5.597,8.272
						C149.338,116.067,149.977,119.589,149.977,123.442z M135.973,123.442c0-5.231-1.251-9.304-3.757-12.215
						c-2.503-2.916-5.869-4.371-10.095-4.371c-2.726,0-5.127,0.651-7.207,1.952c-2.078,1.299-3.68,3.218-4.804,5.756
						c-1.124,2.536-1.687,5.498-1.687,8.88c0,3.354,0.553,6.282,1.661,8.79c1.107,2.506,2.691,4.424,4.754,5.756
						c2.061,1.332,4.489,1.997,7.282,1.997c4.224,0,7.59-1.464,10.094-4.393C134.722,132.663,135.973,128.612,135.973,123.442z
						 M160.966,141.723V86.086c0-2.569,0.622-4.511,1.866-5.828c1.243-1.316,2.921-1.974,5.034-1.974
						c2.113,0,3.816,0.651,5.111,1.95c1.294,1.299,1.941,3.249,1.941,5.851v55.637c0,2.601-0.656,4.552-1.968,5.85
						c-1.313,1.301-3.007,1.955-5.084,1.955c-2.044,0-3.706-0.679-4.983-2.021C161.606,146.155,160.966,144.23,160.966,141.723z
						 M238.247,140.548l-3.578-8.646h-30.462l-3.578,8.836c-1.396,3.446-2.589,5.771-3.578,6.977
						c-0.987,1.206-2.604,1.81-4.853,1.81c-1.909,0-3.597-0.642-5.06-1.927c-1.466-1.284-2.199-2.74-2.199-4.37
						c0-0.94,0.172-1.911,0.512-2.913c0.339-1.005,0.901-2.399,1.688-4.183l19.166-44.736c0.545-1.284,1.201-2.827,1.966-4.628
						c0.767-1.801,1.587-3.296,2.456-4.487c0.869-1.191,2.01-2.154,3.425-2.89c1.415-0.735,3.16-1.104,5.238-1.104
						c2.114,0,3.875,0.369,5.291,1.104c1.412,0.736,2.554,1.686,3.422,2.842c0.871,1.16,1.604,2.405,2.2,3.736
						c0.597,1.332,1.353,3.109,2.274,5.333l19.577,44.454c1.534,3.385,2.301,5.843,2.301,7.375c0,1.599-0.725,3.063-2.173,4.395
						c-1.449,1.331-3.193,1.997-5.239,1.997c-1.192,0-2.214-0.194-3.067-0.588c-0.852-0.392-1.565-0.921-2.144-1.596
						c-0.581-0.672-1.203-1.707-1.866-3.102C239.293,142.844,238.724,141.613,238.247,140.548z M208.193,121.422h22.386
						l-11.296-28.431L208.193,121.422z M313.533,140.548l-3.578-8.646h-30.462l-3.578,8.836c-1.396,3.446-2.588,5.771-3.577,6.977
						c-0.987,1.206-2.606,1.81-4.855,1.81c-1.904,0-3.595-0.642-5.061-1.927c-1.467-1.284-2.197-2.74-2.197-4.37
						c0-0.94,0.172-1.911,0.511-2.913c0.341-1.005,0.902-2.399,1.687-4.183l19.166-44.736c0.547-1.284,1.201-2.827,1.969-4.628
						c0.767-1.801,1.584-3.296,2.453-4.487c0.872-1.191,2.01-2.154,3.43-2.89c1.41-0.735,3.156-1.104,5.234-1.104
						c2.116,0,3.876,0.369,5.289,1.104c1.415,0.736,2.555,1.686,3.426,2.842c0.868,1.16,1.604,2.405,2.198,3.736
						c0.596,1.332,1.354,3.109,2.275,5.333l19.576,44.454c1.533,3.385,2.3,5.843,2.3,7.375c0,1.599-0.724,3.063-2.173,4.395
						c-1.447,1.331-3.192,1.997-5.236,1.997c-1.195,0-2.214-0.194-3.067-0.588c-0.852-0.392-1.568-0.921-2.148-1.596
						c-0.576-0.672-1.199-1.707-1.862-3.102C314.58,142.844,314.01,141.613,313.533,140.548z M283.478,121.422h22.388
						l-11.293-28.431L283.478,121.422z"/>
				</defs>
				<clipPath id="SVGID_2_">
					<use xlink:href="#SVGID_1_"  overflow="visible"/>
				</clipPath>
				<rect x="-56.319" y="-43.889" clip-path="url(#SVGID_2_)" fill="#F4FFEB" width="468.416" height="488.96"/>
			</g>
		</g>
		<g>
			<g>
				<defs>
					<path id="SVGID_3_" d="M34.466,86.742v19.738h32.763V86.742c0-2.818,0.69-4.935,2.07-6.342c1.38-1.412,3.195-2.115,5.443-2.115
						c2.283,0,4.132,0.698,5.547,2.09c1.413,1.395,2.12,3.519,2.12,6.368v54.277c0,2.85-0.715,4.979-2.146,6.392
						c-1.43,1.409-3.271,2.113-5.521,2.113c-2.282,0-4.105-0.712-5.469-2.137c-1.362-1.427-2.043-3.548-2.043-6.368v-23.168H34.466
						v23.166c0,2.852-0.716,4.981-2.147,6.39c-1.43,1.412-3.27,2.114-5.52,2.114c-2.284,0-4.106-0.712-5.468-2.138
						c-1.364-1.424-2.045-3.548-2.045-6.366V86.742c0-2.818,0.673-4.935,2.02-6.342c1.345-1.412,3.177-2.115,5.494-2.115
						c2.282,0,4.132,0.698,5.546,2.09C33.759,81.77,34.466,83.893,34.466,86.742z M149.977,123.442
						c0,3.823-0.647,7.348-1.942,10.574c-1.295,3.228-3.168,5.999-5.622,8.316c-2.454,2.32-5.384,4.098-8.792,5.334
						c-3.407,1.239-7.24,1.856-11.5,1.856c-4.226,0-8.025-0.628-11.398-1.879c-3.373-1.251-6.295-3.047-8.765-5.38
						c-2.471-2.333-4.345-5.091-5.623-8.272c-1.277-3.178-1.916-6.693-1.916-10.55c0-3.882,0.646-7.439,1.942-10.667
						c1.294-3.227,3.152-5.981,5.571-8.27c2.42-2.285,5.349-4.049,8.792-5.287c3.441-1.238,7.239-1.855,11.397-1.855
						c4.225,0,8.059,0.626,11.5,1.878s6.389,3.038,8.842,5.355c2.453,2.321,4.319,5.077,5.597,8.272
						C149.338,116.067,149.977,119.589,149.977,123.442z M135.973,123.442c0-5.231-1.251-9.304-3.757-12.215
						c-2.503-2.916-5.869-4.371-10.095-4.371c-2.726,0-5.127,0.651-7.207,1.952c-2.078,1.299-3.68,3.218-4.804,5.756
						c-1.124,2.536-1.687,5.498-1.687,8.88c0,3.354,0.553,6.282,1.661,8.79c1.107,2.506,2.691,4.424,4.754,5.756
						c2.061,1.332,4.489,1.997,7.282,1.997c4.224,0,7.59-1.464,10.094-4.393C134.722,132.663,135.973,128.612,135.973,123.442z
						 M160.966,141.723V86.086c0-2.569,0.622-4.511,1.866-5.828c1.243-1.316,2.921-1.974,5.034-1.974
						c2.113,0,3.816,0.651,5.111,1.95c1.294,1.299,1.941,3.249,1.941,5.851v55.637c0,2.601-0.656,4.552-1.968,5.85
						c-1.313,1.301-3.007,1.955-5.084,1.955c-2.044,0-3.706-0.679-4.983-2.021C161.606,146.155,160.966,144.23,160.966,141.723z
						 M238.247,140.548l-3.578-8.646h-30.462l-3.578,8.836c-1.396,3.446-2.589,5.771-3.578,6.977
						c-0.987,1.206-2.604,1.81-4.853,1.81c-1.909,0-3.597-0.642-5.06-1.927c-1.466-1.284-2.199-2.74-2.199-4.37
						c0-0.94,0.172-1.911,0.512-2.913c0.339-1.005,0.901-2.399,1.688-4.183l19.166-44.736c0.545-1.284,1.201-2.827,1.966-4.628
						c0.767-1.801,1.587-3.296,2.456-4.487c0.869-1.191,2.01-2.154,3.425-2.89c1.415-0.735,3.16-1.104,5.238-1.104
						c2.114,0,3.875,0.369,5.291,1.104c1.412,0.736,2.554,1.686,3.422,2.842c0.871,1.16,1.604,2.405,2.2,3.736
						c0.597,1.332,1.353,3.109,2.274,5.333l19.577,44.454c1.534,3.385,2.301,5.843,2.301,7.375c0,1.599-0.725,3.063-2.173,4.395
						c-1.449,1.331-3.193,1.997-5.239,1.997c-1.192,0-2.214-0.194-3.067-0.588c-0.852-0.392-1.565-0.921-2.144-1.596
						c-0.581-0.672-1.203-1.707-1.866-3.102C239.293,142.844,238.724,141.613,238.247,140.548z M208.193,121.422h22.386
						l-11.296-28.431L208.193,121.422z M313.533,140.548l-3.578-8.646h-30.462l-3.578,8.836c-1.396,3.446-2.588,5.771-3.577,6.977
						c-0.987,1.206-2.606,1.81-4.855,1.81c-1.904,0-3.595-0.642-5.061-1.927c-1.467-1.284-2.197-2.74-2.197-4.37
						c0-0.94,0.172-1.911,0.511-2.913c0.341-1.005,0.902-2.399,1.687-4.183l19.166-44.736c0.547-1.284,1.201-2.827,1.969-4.628
						c0.767-1.801,1.584-3.296,2.453-4.487c0.872-1.191,2.01-2.154,3.43-2.89c1.41-0.735,3.156-1.104,5.234-1.104
						c2.116,0,3.876,0.369,5.289,1.104c1.415,0.736,2.555,1.686,3.426,2.842c0.868,1.16,1.604,2.405,2.198,3.736
						c0.596,1.332,1.354,3.109,2.275,5.333l19.576,44.454c1.533,3.385,2.3,5.843,2.3,7.375c0,1.599-0.724,3.063-2.173,4.395
						c-1.447,1.331-3.192,1.997-5.236,1.997c-1.195,0-2.214-0.194-3.067-0.588c-0.852-0.392-1.568-0.921-2.148-1.596
						c-0.576-0.672-1.199-1.707-1.862-3.102C314.58,142.844,314.01,141.613,313.533,140.548z M283.478,121.422h22.388
						l-11.293-28.431L283.478,121.422z"/>
				</defs>
				<clipPath id="SVGID_4_">
					<use xlink:href="#SVGID_3_"  overflow="visible"/>
				</clipPath>
				
					<linearGradient id="SVGID_5_" gradientUnits="userSpaceOnUse" x1="-293.8823" y1="607.0366" x2="-278.3997" y2="604.7787" gradientTransform="matrix(1 0 0 1 540 -596.333)">
					<stop  offset="0.0397" style="stop-color:#06CFF1"/>
					<stop  offset="1" style="stop-color:#DEFA8E"/>
				</linearGradient>
				<rect x="254.27" y="-9.245" clip-path="url(#SVGID_4_)" fill="url(#SVGID_5_)" width="4.729" height="36.831"/>
			</g>
		</g>
		<g>
			<g>
				<defs>
					<path id="SVGID_6_" d="M34.466,86.742v19.738h32.763V86.742c0-2.818,0.69-4.935,2.07-6.342c1.38-1.412,3.195-2.115,5.443-2.115
						c2.283,0,4.132,0.698,5.547,2.09c1.413,1.395,2.12,3.519,2.12,6.368v54.277c0,2.85-0.715,4.979-2.146,6.392
						c-1.43,1.409-3.271,2.113-5.521,2.113c-2.282,0-4.105-0.712-5.469-2.137c-1.362-1.427-2.043-3.548-2.043-6.368v-23.168H34.466
						v23.166c0,2.852-0.716,4.981-2.147,6.39c-1.43,1.412-3.27,2.114-5.52,2.114c-2.284,0-4.106-0.712-5.468-2.138
						c-1.364-1.424-2.045-3.548-2.045-6.366V86.742c0-2.818,0.673-4.935,2.02-6.342c1.345-1.412,3.177-2.115,5.494-2.115
						c2.282,0,4.132,0.698,5.546,2.09C33.759,81.77,34.466,83.893,34.466,86.742z M149.977,123.442
						c0,3.823-0.647,7.348-1.942,10.574c-1.295,3.228-3.168,5.999-5.622,8.316c-2.454,2.32-5.384,4.098-8.792,5.334
						c-3.407,1.239-7.24,1.856-11.5,1.856c-4.226,0-8.025-0.628-11.398-1.879c-3.373-1.251-6.295-3.047-8.765-5.38
						c-2.471-2.333-4.345-5.091-5.623-8.272c-1.277-3.178-1.916-6.693-1.916-10.55c0-3.882,0.646-7.439,1.942-10.667
						c1.294-3.227,3.152-5.981,5.571-8.27c2.42-2.285,5.349-4.049,8.792-5.287c3.441-1.238,7.239-1.855,11.397-1.855
						c4.225,0,8.059,0.626,11.5,1.878s6.389,3.038,8.842,5.355c2.453,2.321,4.319,5.077,5.597,8.272
						C149.338,116.067,149.977,119.589,149.977,123.442z M135.973,123.442c0-5.231-1.251-9.304-3.757-12.215
						c-2.503-2.916-5.869-4.371-10.095-4.371c-2.726,0-5.127,0.651-7.207,1.952c-2.078,1.299-3.68,3.218-4.804,5.756
						c-1.124,2.536-1.687,5.498-1.687,8.88c0,3.354,0.553,6.282,1.661,8.79c1.107,2.506,2.691,4.424,4.754,5.756
						c2.061,1.332,4.489,1.997,7.282,1.997c4.224,0,7.59-1.464,10.094-4.393C134.722,132.663,135.973,128.612,135.973,123.442z
						 M160.966,141.723V86.086c0-2.569,0.622-4.511,1.866-5.828c1.243-1.316,2.921-1.974,5.034-1.974
						c2.113,0,3.816,0.651,5.111,1.95c1.294,1.299,1.941,3.249,1.941,5.851v55.637c0,2.601-0.656,4.552-1.968,5.85
						c-1.313,1.301-3.007,1.955-5.084,1.955c-2.044,0-3.706-0.679-4.983-2.021C161.606,146.155,160.966,144.23,160.966,141.723z
						 M238.247,140.548l-3.578-8.646h-30.462l-3.578,8.836c-1.396,3.446-2.589,5.771-3.578,6.977
						c-0.987,1.206-2.604,1.81-4.853,1.81c-1.909,0-3.597-0.642-5.06-1.927c-1.466-1.284-2.199-2.74-2.199-4.37
						c0-0.94,0.172-1.911,0.512-2.913c0.339-1.005,0.901-2.399,1.688-4.183l19.166-44.736c0.545-1.284,1.201-2.827,1.966-4.628
						c0.767-1.801,1.587-3.296,2.456-4.487c0.869-1.191,2.01-2.154,3.425-2.89c1.415-0.735,3.16-1.104,5.238-1.104
						c2.114,0,3.875,0.369,5.291,1.104c1.412,0.736,2.554,1.686,3.422,2.842c0.871,1.16,1.604,2.405,2.2,3.736
						c0.597,1.332,1.353,3.109,2.274,5.333l19.577,44.454c1.534,3.385,2.301,5.843,2.301,7.375c0,1.599-0.725,3.063-2.173,4.395
						c-1.449,1.331-3.193,1.997-5.239,1.997c-1.192,0-2.214-0.194-3.067-0.588c-0.852-0.392-1.565-0.921-2.144-1.596
						c-0.581-0.672-1.203-1.707-1.866-3.102C239.293,142.844,238.724,141.613,238.247,140.548z M208.193,121.422h22.386
						l-11.296-28.431L208.193,121.422z M313.533,140.548l-3.578-8.646h-30.462l-3.578,8.836c-1.396,3.446-2.588,5.771-3.577,6.977
						c-0.987,1.206-2.606,1.81-4.855,1.81c-1.904,0-3.595-0.642-5.061-1.927c-1.467-1.284-2.197-2.74-2.197-4.37
						c0-0.94,0.172-1.911,0.511-2.913c0.341-1.005,0.902-2.399,1.687-4.183l19.166-44.736c0.547-1.284,1.201-2.827,1.969-4.628
						c0.767-1.801,1.584-3.296,2.453-4.487c0.872-1.191,2.01-2.154,3.43-2.89c1.41-0.735,3.156-1.104,5.234-1.104
						c2.116,0,3.876,0.369,5.289,1.104c1.415,0.736,2.555,1.686,3.426,2.842c0.868,1.16,1.604,2.405,2.198,3.736
						c0.596,1.332,1.354,3.109,2.275,5.333l19.576,44.454c1.533,3.385,2.3,5.843,2.3,7.375c0,1.599-0.724,3.063-2.173,4.395
						c-1.447,1.331-3.192,1.997-5.236,1.997c-1.195,0-2.214-0.194-3.067-0.588c-0.852-0.392-1.568-0.921-2.148-1.596
						c-0.576-0.672-1.199-1.707-1.862-3.102C314.58,142.844,314.01,141.613,313.533,140.548z M283.478,121.422h22.388
						l-11.293-28.431L283.478,121.422z"/>
				</defs>
				<clipPath id="SVGID_7_">
					<use xlink:href="#SVGID_6_"  overflow="visible"/>
				</clipPath>
				
					<linearGradient id="SVGID_8_" gradientUnits="userSpaceOnUse" x1="-297.4971" y1="648.1187" x2="-270.6569" y2="617.8152" gradientTransform="matrix(1 0 0 1 540 -596.333)">
					<stop  offset="0.0397" style="stop-color:#06CFF1"/>
					<stop  offset="1" style="stop-color:#DEFA8E"/>
				</linearGradient>
				<path clip-path="url(#SVGID_7_)" fill="url(#SVGID_8_)" d="M272.969,47.931h-32.665c-2.411,0-4.362-2.315-4.362-5.175V28.903
					c0-2.858,1.951-5.175,4.362-5.175h32.665c2.408,0,4.359,2.316,4.359,5.175v13.854C277.328,45.616,275.377,47.931,272.969,47.931
					z"/>
			</g>
		</g>
		<g>
			<g>
				<defs>
					<path id="SVGID_9_" d="M34.466,86.742v19.738h32.763V86.742c0-2.818,0.69-4.935,2.07-6.342c1.38-1.412,3.195-2.115,5.443-2.115
						c2.283,0,4.132,0.698,5.547,2.09c1.413,1.395,2.12,3.519,2.12,6.368v54.277c0,2.85-0.715,4.979-2.146,6.392
						c-1.43,1.409-3.271,2.113-5.521,2.113c-2.282,0-4.105-0.712-5.469-2.137c-1.362-1.427-2.043-3.548-2.043-6.368v-23.168H34.466
						v23.166c0,2.852-0.716,4.981-2.147,6.39c-1.43,1.412-3.27,2.114-5.52,2.114c-2.284,0-4.106-0.712-5.468-2.138
						c-1.364-1.424-2.045-3.548-2.045-6.366V86.742c0-2.818,0.673-4.935,2.02-6.342c1.345-1.412,3.177-2.115,5.494-2.115
						c2.282,0,4.132,0.698,5.546,2.09C33.759,81.77,34.466,83.893,34.466,86.742z M149.977,123.442
						c0,3.823-0.647,7.348-1.942,10.574c-1.295,3.228-3.168,5.999-5.622,8.316c-2.454,2.32-5.384,4.098-8.792,5.334
						c-3.407,1.239-7.24,1.856-11.5,1.856c-4.226,0-8.025-0.628-11.398-1.879c-3.373-1.251-6.295-3.047-8.765-5.38
						c-2.471-2.333-4.345-5.091-5.623-8.272c-1.277-3.178-1.916-6.693-1.916-10.55c0-3.882,0.646-7.439,1.942-10.667
						c1.294-3.227,3.152-5.981,5.571-8.27c2.42-2.285,5.349-4.049,8.792-5.287c3.441-1.238,7.239-1.855,11.397-1.855
						c4.225,0,8.059,0.626,11.5,1.878s6.389,3.038,8.842,5.355c2.453,2.321,4.319,5.077,5.597,8.272
						C149.338,116.067,149.977,119.589,149.977,123.442z M135.973,123.442c0-5.231-1.251-9.304-3.757-12.215
						c-2.503-2.916-5.869-4.371-10.095-4.371c-2.726,0-5.127,0.651-7.207,1.952c-2.078,1.299-3.68,3.218-4.804,5.756
						c-1.124,2.536-1.687,5.498-1.687,8.88c0,3.354,0.553,6.282,1.661,8.79c1.107,2.506,2.691,4.424,4.754,5.756
						c2.061,1.332,4.489,1.997,7.282,1.997c4.224,0,7.59-1.464,10.094-4.393C134.722,132.663,135.973,128.612,135.973,123.442z
						 M160.966,141.723V86.086c0-2.569,0.622-4.511,1.866-5.828c1.243-1.316,2.921-1.974,5.034-1.974
						c2.113,0,3.816,0.651,5.111,1.95c1.294,1.299,1.941,3.249,1.941,5.851v55.637c0,2.601-0.656,4.552-1.968,5.85
						c-1.313,1.301-3.007,1.955-5.084,1.955c-2.044,0-3.706-0.679-4.983-2.021C161.606,146.155,160.966,144.23,160.966,141.723z
						 M238.247,140.548l-3.578-8.646h-30.462l-3.578,8.836c-1.396,3.446-2.589,5.771-3.578,6.977
						c-0.987,1.206-2.604,1.81-4.853,1.81c-1.909,0-3.597-0.642-5.06-1.927c-1.466-1.284-2.199-2.74-2.199-4.37
						c0-0.94,0.172-1.911,0.512-2.913c0.339-1.005,0.901-2.399,1.688-4.183l19.166-44.736c0.545-1.284,1.201-2.827,1.966-4.628
						c0.767-1.801,1.587-3.296,2.456-4.487c0.869-1.191,2.01-2.154,3.425-2.89c1.415-0.735,3.16-1.104,5.238-1.104
						c2.114,0,3.875,0.369,5.291,1.104c1.412,0.736,2.554,1.686,3.422,2.842c0.871,1.16,1.604,2.405,2.2,3.736
						c0.597,1.332,1.353,3.109,2.274,5.333l19.577,44.454c1.534,3.385,2.301,5.843,2.301,7.375c0,1.599-0.725,3.063-2.173,4.395
						c-1.449,1.331-3.193,1.997-5.239,1.997c-1.192,0-2.214-0.194-3.067-0.588c-0.852-0.392-1.565-0.921-2.144-1.596
						c-0.581-0.672-1.203-1.707-1.866-3.102C239.293,142.844,238.724,141.613,238.247,140.548z M208.193,121.422h22.386
						l-11.296-28.431L208.193,121.422z M313.533,140.548l-3.578-8.646h-30.462l-3.578,8.836c-1.396,3.446-2.588,5.771-3.577,6.977
						c-0.987,1.206-2.606,1.81-4.855,1.81c-1.904,0-3.595-0.642-5.061-1.927c-1.467-1.284-2.197-2.74-2.197-4.37
						c0-0.94,0.172-1.911,0.511-2.913c0.341-1.005,0.902-2.399,1.687-4.183l19.166-44.736c0.547-1.284,1.201-2.827,1.969-4.628
						c0.767-1.801,1.584-3.296,2.453-4.487c0.872-1.191,2.01-2.154,3.43-2.89c1.41-0.735,3.156-1.104,5.234-1.104
						c2.116,0,3.876,0.369,5.289,1.104c1.415,0.736,2.555,1.686,3.426,2.842c0.868,1.16,1.604,2.405,2.198,3.736
						c0.596,1.332,1.354,3.109,2.275,5.333l19.576,44.454c1.533,3.385,2.3,5.843,2.3,7.375c0,1.599-0.724,3.063-2.173,4.395
						c-1.447,1.331-3.192,1.997-5.236,1.997c-1.195,0-2.214-0.194-3.067-0.588c-0.852-0.392-1.568-0.921-2.148-1.596
						c-0.576-0.672-1.199-1.707-1.862-3.102C314.58,142.844,314.01,141.613,313.533,140.548z M283.478,121.422h22.388
						l-11.293-28.431L283.478,121.422z"/>
				</defs>
				<clipPath id="SVGID_10_">
					<use xlink:href="#SVGID_9_"  overflow="visible"/>
				</clipPath>
				
					<linearGradient id="SVGID_11_" gradientUnits="userSpaceOnUse" x1="-337.064" y1="760.6597" x2="-229.3193" y2="652.915" gradientTransform="matrix(1 0 0 1 540 -596.333)">
					<stop  offset="0.0397" style="stop-color:#06CFF1"/>
					<stop  offset="1" style="stop-color:#DEFA8E"/>
				</linearGradient>
				<path clip-path="url(#SVGID_10_)" fill="url(#SVGID_11_)" d="M330.682,128.436c0,22.375-15.284,40.516-34.14,40.516h-79.814
					c-18.776,0-34.141-18.23-34.141-40.516v-21.047c0-39.647,27.335-72.087,60.746-72.087h26.604
					c33.408,0,60.744,32.438,60.744,72.087V128.436z"/>
			</g>
		</g>
		<g>
			<g>
				<defs>
					<path id="SVGID_12_" d="M34.466,86.742v19.738h32.763V86.742c0-2.818,0.69-4.935,2.07-6.342
						c1.38-1.412,3.195-2.115,5.443-2.115c2.283,0,4.132,0.698,5.547,2.09c1.413,1.395,2.12,3.519,2.12,6.368v54.277
						c0,2.85-0.715,4.979-2.146,6.392c-1.43,1.409-3.271,2.113-5.521,2.113c-2.282,0-4.105-0.712-5.469-2.137
						c-1.362-1.427-2.043-3.548-2.043-6.368v-23.168H34.466v23.166c0,2.852-0.716,4.981-2.147,6.39
						c-1.43,1.412-3.27,2.114-5.52,2.114c-2.284,0-4.106-0.712-5.468-2.138c-1.364-1.424-2.045-3.548-2.045-6.366V86.742
						c0-2.818,0.673-4.935,2.02-6.342c1.345-1.412,3.177-2.115,5.494-2.115c2.282,0,4.132,0.698,5.546,2.09
						C33.759,81.77,34.466,83.893,34.466,86.742z M149.977,123.442c0,3.823-0.647,7.348-1.942,10.574
						c-1.295,3.228-3.168,5.999-5.622,8.316c-2.454,2.32-5.384,4.098-8.792,5.334c-3.407,1.239-7.24,1.856-11.5,1.856
						c-4.226,0-8.025-0.628-11.398-1.879c-3.373-1.251-6.295-3.047-8.765-5.38c-2.471-2.333-4.345-5.091-5.623-8.272
						c-1.277-3.178-1.916-6.693-1.916-10.55c0-3.882,0.646-7.439,1.942-10.667c1.294-3.227,3.152-5.981,5.571-8.27
						c2.42-2.285,5.349-4.049,8.792-5.287c3.441-1.238,7.239-1.855,11.397-1.855c4.225,0,8.059,0.626,11.5,1.878
						s6.389,3.038,8.842,5.355c2.453,2.321,4.319,5.077,5.597,8.272C149.338,116.067,149.977,119.589,149.977,123.442z
						 M135.973,123.442c0-5.231-1.251-9.304-3.757-12.215c-2.503-2.916-5.869-4.371-10.095-4.371c-2.726,0-5.127,0.651-7.207,1.952
						c-2.078,1.299-3.68,3.218-4.804,5.756c-1.124,2.536-1.687,5.498-1.687,8.88c0,3.354,0.553,6.282,1.661,8.79
						c1.107,2.506,2.691,4.424,4.754,5.756c2.061,1.332,4.489,1.997,7.282,1.997c4.224,0,7.59-1.464,10.094-4.393
						C134.722,132.663,135.973,128.612,135.973,123.442z M160.966,141.723V86.086c0-2.569,0.622-4.511,1.866-5.828
						c1.243-1.316,2.921-1.974,5.034-1.974c2.113,0,3.816,0.651,5.111,1.95c1.294,1.299,1.941,3.249,1.941,5.851v55.637
						c0,2.601-0.656,4.552-1.968,5.85c-1.313,1.301-3.007,1.955-5.084,1.955c-2.044,0-3.706-0.679-4.983-2.021
						C161.606,146.155,160.966,144.23,160.966,141.723z M238.247,140.548l-3.578-8.646h-30.462l-3.578,8.836
						c-1.396,3.446-2.589,5.771-3.578,6.977c-0.987,1.206-2.604,1.81-4.853,1.81c-1.909,0-3.597-0.642-5.06-1.927
						c-1.466-1.284-2.199-2.74-2.199-4.37c0-0.94,0.172-1.911,0.512-2.913c0.339-1.005,0.901-2.399,1.688-4.183l19.166-44.736
						c0.545-1.284,1.201-2.827,1.966-4.628c0.767-1.801,1.587-3.296,2.456-4.487c0.869-1.191,2.01-2.154,3.425-2.89
						c1.415-0.735,3.16-1.104,5.238-1.104c2.114,0,3.875,0.369,5.291,1.104c1.412,0.736,2.554,1.686,3.422,2.842
						c0.871,1.16,1.604,2.405,2.2,3.736c0.597,1.332,1.353,3.109,2.274,5.333l19.577,44.454c1.534,3.385,2.301,5.843,2.301,7.375
						c0,1.599-0.725,3.063-2.173,4.395c-1.449,1.331-3.193,1.997-5.239,1.997c-1.192,0-2.214-0.194-3.067-0.588
						c-0.852-0.392-1.565-0.921-2.144-1.596c-0.581-0.672-1.203-1.707-1.866-3.102C239.293,142.844,238.724,141.613,238.247,140.548
						z M208.193,121.422h22.386l-11.296-28.431L208.193,121.422z M313.533,140.548l-3.578-8.646h-30.462l-3.578,8.836
						c-1.396,3.446-2.588,5.771-3.577,6.977c-0.987,1.206-2.606,1.81-4.855,1.81c-1.904,0-3.595-0.642-5.061-1.927
						c-1.467-1.284-2.197-2.74-2.197-4.37c0-0.94,0.172-1.911,0.511-2.913c0.341-1.005,0.902-2.399,1.687-4.183l19.166-44.736
						c0.547-1.284,1.201-2.827,1.969-4.628c0.767-1.801,1.584-3.296,2.453-4.487c0.872-1.191,2.01-2.154,3.43-2.89
						c1.41-0.735,3.156-1.104,5.234-1.104c2.116,0,3.876,0.369,5.289,1.104c1.415,0.736,2.555,1.686,3.426,2.842
						c0.868,1.16,1.604,2.405,2.198,3.736c0.596,1.332,1.354,3.109,2.275,5.333l19.576,44.454c1.533,3.385,2.3,5.843,2.3,7.375
						c0,1.599-0.724,3.063-2.173,4.395c-1.447,1.331-3.192,1.997-5.236,1.997c-1.195,0-2.214-0.194-3.067-0.588
						c-0.852-0.392-1.568-0.921-2.148-1.596c-0.576-0.672-1.199-1.707-1.862-3.102C314.58,142.844,314.01,141.613,313.533,140.548z
						 M283.478,121.422h22.388l-11.293-28.431L283.478,121.422z"/>
				</defs>
				<clipPath id="SVGID_13_">
					<use xlink:href="#SVGID_12_"  overflow="visible"/>
				</clipPath>
				
					<linearGradient id="SVGID_14_" gradientUnits="userSpaceOnUse" x1="-283.6729" y1="722.3159" x2="-282.6249" y2="675.155" gradientTransform="matrix(1 0 0 1 540 -596.333)">
					<stop  offset="0" style="stop-color:#030D14"/>
					<stop  offset="1" style="stop-color:#0B2F45"/>
				</linearGradient>
				<path clip-path="url(#SVGID_13_)" fill="url(#SVGID_14_)" d="M307.39,124.599L307.39,124.599
					c-1.938,1.139-4.109,1.732-6.316,1.732h-88.874c-2.205,0-4.381-0.594-6.317-1.732l0,0c-4.76-2.792-7.446-8.429-6.776-14.214
					l0.049-0.421c2.279-19.591,17.233-34.652,35.561-35.783c7.754-0.479,15.895-0.726,24.383-0.666
					c6.651,0.045,13.081,0.276,19.269,0.656c18.398,1.125,33.462,16.127,35.747,35.79c0.02,0.143,0.032,0.284,0.051,0.424
					C314.834,116.169,312.147,121.807,307.39,124.599z"/>
			</g>
		</g>
		<g>
			<g>
				<defs>
					<path id="SVGID_15_" d="M34.466,86.742v19.738h32.763V86.742c0-2.818,0.69-4.935,2.07-6.342
						c1.38-1.412,3.195-2.115,5.443-2.115c2.283,0,4.132,0.698,5.547,2.09c1.413,1.395,2.12,3.519,2.12,6.368v54.277
						c0,2.85-0.715,4.979-2.146,6.392c-1.43,1.409-3.271,2.113-5.521,2.113c-2.282,0-4.105-0.712-5.469-2.137
						c-1.362-1.427-2.043-3.548-2.043-6.368v-23.168H34.466v23.166c0,2.852-0.716,4.981-2.147,6.39
						c-1.43,1.412-3.27,2.114-5.52,2.114c-2.284,0-4.106-0.712-5.468-2.138c-1.364-1.424-2.045-3.548-2.045-6.366V86.742
						c0-2.818,0.673-4.935,2.02-6.342c1.345-1.412,3.177-2.115,5.494-2.115c2.282,0,4.132,0.698,5.546,2.09
						C33.759,81.77,34.466,83.893,34.466,86.742z M149.977,123.442c0,3.823-0.647,7.348-1.942,10.574
						c-1.295,3.228-3.168,5.999-5.622,8.316c-2.454,2.32-5.384,4.098-8.792,5.334c-3.407,1.239-7.24,1.856-11.5,1.856
						c-4.226,0-8.025-0.628-11.398-1.879c-3.373-1.251-6.295-3.047-8.765-5.38c-2.471-2.333-4.345-5.091-5.623-8.272
						c-1.277-3.178-1.916-6.693-1.916-10.55c0-3.882,0.646-7.439,1.942-10.667c1.294-3.227,3.152-5.981,5.571-8.27
						c2.42-2.285,5.349-4.049,8.792-5.287c3.441-1.238,7.239-1.855,11.397-1.855c4.225,0,8.059,0.626,11.5,1.878
						s6.389,3.038,8.842,5.355c2.453,2.321,4.319,5.077,5.597,8.272C149.338,116.067,149.977,119.589,149.977,123.442z
						 M135.973,123.442c0-5.231-1.251-9.304-3.757-12.215c-2.503-2.916-5.869-4.371-10.095-4.371c-2.726,0-5.127,0.651-7.207,1.952
						c-2.078,1.299-3.68,3.218-4.804,5.756c-1.124,2.536-1.687,5.498-1.687,8.88c0,3.354,0.553,6.282,1.661,8.79
						c1.107,2.506,2.691,4.424,4.754,5.756c2.061,1.332,4.489,1.997,7.282,1.997c4.224,0,7.59-1.464,10.094-4.393
						C134.722,132.663,135.973,128.612,135.973,123.442z M160.966,141.723V86.086c0-2.569,0.622-4.511,1.866-5.828
						c1.243-1.316,2.921-1.974,5.034-1.974c2.113,0,3.816,0.651,5.111,1.95c1.294,1.299,1.941,3.249,1.941,5.851v55.637
						c0,2.601-0.656,4.552-1.968,5.85c-1.313,1.301-3.007,1.955-5.084,1.955c-2.044,0-3.706-0.679-4.983-2.021
						C161.606,146.155,160.966,144.23,160.966,141.723z M238.247,140.548l-3.578-8.646h-30.462l-3.578,8.836
						c-1.396,3.446-2.589,5.771-3.578,6.977c-0.987,1.206-2.604,1.81-4.853,1.81c-1.909,0-3.597-0.642-5.06-1.927
						c-1.466-1.284-2.199-2.74-2.199-4.37c0-0.94,0.172-1.911,0.512-2.913c0.339-1.005,0.901-2.399,1.688-4.183l19.166-44.736
						c0.545-1.284,1.201-2.827,1.966-4.628c0.767-1.801,1.587-3.296,2.456-4.487c0.869-1.191,2.01-2.154,3.425-2.89
						c1.415-0.735,3.16-1.104,5.238-1.104c2.114,0,3.875,0.369,5.291,1.104c1.412,0.736,2.554,1.686,3.422,2.842
						c0.871,1.16,1.604,2.405,2.2,3.736c0.597,1.332,1.353,3.109,2.274,5.333l19.577,44.454c1.534,3.385,2.301,5.843,2.301,7.375
						c0,1.599-0.725,3.063-2.173,4.395c-1.449,1.331-3.193,1.997-5.239,1.997c-1.192,0-2.214-0.194-3.067-0.588
						c-0.852-0.392-1.565-0.921-2.144-1.596c-0.581-0.672-1.203-1.707-1.866-3.102C239.293,142.844,238.724,141.613,238.247,140.548
						z M208.193,121.422h22.386l-11.296-28.431L208.193,121.422z M313.533,140.548l-3.578-8.646h-30.462l-3.578,8.836
						c-1.396,3.446-2.588,5.771-3.577,6.977c-0.987,1.206-2.606,1.81-4.855,1.81c-1.904,0-3.595-0.642-5.061-1.927
						c-1.467-1.284-2.197-2.74-2.197-4.37c0-0.94,0.172-1.911,0.511-2.913c0.341-1.005,0.902-2.399,1.687-4.183l19.166-44.736
						c0.547-1.284,1.201-2.827,1.969-4.628c0.767-1.801,1.584-3.296,2.453-4.487c0.872-1.191,2.01-2.154,3.43-2.89
						c1.41-0.735,3.156-1.104,5.234-1.104c2.116,0,3.876,0.369,5.289,1.104c1.415,0.736,2.555,1.686,3.426,2.842
						c0.868,1.16,1.604,2.405,2.198,3.736c0.596,1.332,1.354,3.109,2.275,5.333l19.576,44.454c1.533,3.385,2.3,5.843,2.3,7.375
						c0,1.599-0.724,3.063-2.173,4.395c-1.447,1.331-3.192,1.997-5.236,1.997c-1.195,0-2.214-0.194-3.067-0.588
						c-0.852-0.392-1.568-0.921-2.148-1.596c-0.576-0.672-1.199-1.707-1.862-3.102C314.58,142.844,314.01,141.613,313.533,140.548z
						 M283.478,121.422h22.388l-11.293-28.431L283.478,121.422z"/>
				</defs>
				<clipPath id="SVGID_16_">
					<use xlink:href="#SVGID_15_"  overflow="visible"/>
				</clipPath>
				<g clip-path="url(#SVGID_16_)">
					
						<radialGradient id="SVGID_17_" cx="-268.6919" cy="719.6304" r="16.1803" gradientTransform="matrix(1.025 0 0 1.2163 508.621 -773.1594)" gradientUnits="userSpaceOnUse">
						<stop  offset="0.1296" style="stop-color:#3280FC"/>
						<stop  offset="1" style="stop-color:#000000"/>
					</radialGradient>
					<ellipse fill="url(#SVGID_17_)" cx="233.211" cy="102.128" rx="16.759" ry="19.886"/>
					<g>
						<ellipse fill="#EEFDFF" cx="233.211" cy="102.128" rx="12.028" ry="14.273"/>
					</g>
					<g>
						
							<linearGradient id="SVGID_18_" gradientUnits="userSpaceOnUse" x1="-316.8916" y1="698.4614" x2="-296.6865" y2="698.4614" gradientTransform="matrix(1 0 0 1 540 -596.333)">
							<stop  offset="0" style="stop-color:#030D14"/>
							<stop  offset="1" style="stop-color:#0B2F45"/>
						</linearGradient>
						<ellipse fill="url(#SVGID_18_)" cx="233.211" cy="102.128" rx="10.103" ry="11.988"/>
					</g>
					<g>
						<ellipse fill="#EEFDFF" cx="235.941" cy="99.021" rx="3.743" ry="4.442"/>
					</g>
					<g>
						<ellipse fill="#EEFDFF" cx="231.718" cy="111.32" rx="1.495" ry="1.772"/>
					</g>
					<g>
						<ellipse fill="#EEFDFF" cx="227.271" cy="108.662" rx="0.746" ry="0.885"/>
					</g>
				</g>
			</g>
		</g>
		<g>
			<g>
				<defs>
					<path id="SVGID_19_" d="M34.466,86.742v19.738h32.763V86.742c0-2.818,0.69-4.935,2.07-6.342
						c1.38-1.412,3.195-2.115,5.443-2.115c2.283,0,4.132,0.698,5.547,2.09c1.413,1.395,2.12,3.519,2.12,6.368v54.277
						c0,2.85-0.715,4.979-2.146,6.392c-1.43,1.409-3.271,2.113-5.521,2.113c-2.282,0-4.105-0.712-5.469-2.137
						c-1.362-1.427-2.043-3.548-2.043-6.368v-23.168H34.466v23.166c0,2.852-0.716,4.981-2.147,6.39
						c-1.43,1.412-3.27,2.114-5.52,2.114c-2.284,0-4.106-0.712-5.468-2.138c-1.364-1.424-2.045-3.548-2.045-6.366V86.742
						c0-2.818,0.673-4.935,2.02-6.342c1.345-1.412,3.177-2.115,5.494-2.115c2.282,0,4.132,0.698,5.546,2.09
						C33.759,81.77,34.466,83.893,34.466,86.742z M149.977,123.442c0,3.823-0.647,7.348-1.942,10.574
						c-1.295,3.228-3.168,5.999-5.622,8.316c-2.454,2.32-5.384,4.098-8.792,5.334c-3.407,1.239-7.24,1.856-11.5,1.856
						c-4.226,0-8.025-0.628-11.398-1.879c-3.373-1.251-6.295-3.047-8.765-5.38c-2.471-2.333-4.345-5.091-5.623-8.272
						c-1.277-3.178-1.916-6.693-1.916-10.55c0-3.882,0.646-7.439,1.942-10.667c1.294-3.227,3.152-5.981,5.571-8.27
						c2.42-2.285,5.349-4.049,8.792-5.287c3.441-1.238,7.239-1.855,11.397-1.855c4.225,0,8.059,0.626,11.5,1.878
						s6.389,3.038,8.842,5.355c2.453,2.321,4.319,5.077,5.597,8.272C149.338,116.067,149.977,119.589,149.977,123.442z
						 M135.973,123.442c0-5.231-1.251-9.304-3.757-12.215c-2.503-2.916-5.869-4.371-10.095-4.371c-2.726,0-5.127,0.651-7.207,1.952
						c-2.078,1.299-3.68,3.218-4.804,5.756c-1.124,2.536-1.687,5.498-1.687,8.88c0,3.354,0.553,6.282,1.661,8.79
						c1.107,2.506,2.691,4.424,4.754,5.756c2.061,1.332,4.489,1.997,7.282,1.997c4.224,0,7.59-1.464,10.094-4.393
						C134.722,132.663,135.973,128.612,135.973,123.442z M160.966,141.723V86.086c0-2.569,0.622-4.511,1.866-5.828
						c1.243-1.316,2.921-1.974,5.034-1.974c2.113,0,3.816,0.651,5.111,1.95c1.294,1.299,1.941,3.249,1.941,5.851v55.637
						c0,2.601-0.656,4.552-1.968,5.85c-1.313,1.301-3.007,1.955-5.084,1.955c-2.044,0-3.706-0.679-4.983-2.021
						C161.606,146.155,160.966,144.23,160.966,141.723z M238.247,140.548l-3.578-8.646h-30.462l-3.578,8.836
						c-1.396,3.446-2.589,5.771-3.578,6.977c-0.987,1.206-2.604,1.81-4.853,1.81c-1.909,0-3.597-0.642-5.06-1.927
						c-1.466-1.284-2.199-2.74-2.199-4.37c0-0.94,0.172-1.911,0.512-2.913c0.339-1.005,0.901-2.399,1.688-4.183l19.166-44.736
						c0.545-1.284,1.201-2.827,1.966-4.628c0.767-1.801,1.587-3.296,2.456-4.487c0.869-1.191,2.01-2.154,3.425-2.89
						c1.415-0.735,3.16-1.104,5.238-1.104c2.114,0,3.875,0.369,5.291,1.104c1.412,0.736,2.554,1.686,3.422,2.842
						c0.871,1.16,1.604,2.405,2.2,3.736c0.597,1.332,1.353,3.109,2.274,5.333l19.577,44.454c1.534,3.385,2.301,5.843,2.301,7.375
						c0,1.599-0.725,3.063-2.173,4.395c-1.449,1.331-3.193,1.997-5.239,1.997c-1.192,0-2.214-0.194-3.067-0.588
						c-0.852-0.392-1.565-0.921-2.144-1.596c-0.581-0.672-1.203-1.707-1.866-3.102C239.293,142.844,238.724,141.613,238.247,140.548
						z M208.193,121.422h22.386l-11.296-28.431L208.193,121.422z M313.533,140.548l-3.578-8.646h-30.462l-3.578,8.836
						c-1.396,3.446-2.588,5.771-3.577,6.977c-0.987,1.206-2.606,1.81-4.855,1.81c-1.904,0-3.595-0.642-5.061-1.927
						c-1.467-1.284-2.197-2.74-2.197-4.37c0-0.94,0.172-1.911,0.511-2.913c0.341-1.005,0.902-2.399,1.687-4.183l19.166-44.736
						c0.547-1.284,1.201-2.827,1.969-4.628c0.767-1.801,1.584-3.296,2.453-4.487c0.872-1.191,2.01-2.154,3.43-2.89
						c1.41-0.735,3.156-1.104,5.234-1.104c2.116,0,3.876,0.369,5.289,1.104c1.415,0.736,2.555,1.686,3.426,2.842
						c0.868,1.16,1.604,2.405,2.198,3.736c0.596,1.332,1.354,3.109,2.275,5.333l19.576,44.454c1.533,3.385,2.3,5.843,2.3,7.375
						c0,1.599-0.724,3.063-2.173,4.395c-1.447,1.331-3.192,1.997-5.236,1.997c-1.195,0-2.214-0.194-3.067-0.588
						c-0.852-0.392-1.568-0.921-2.148-1.596c-0.576-0.672-1.199-1.707-1.862-3.102C314.58,142.844,314.01,141.613,313.533,140.548z
						 M283.478,121.422h22.388l-11.293-28.431L283.478,121.422z"/>
				</defs>
				<clipPath id="SVGID_20_">
					<use xlink:href="#SVGID_19_"  overflow="visible"/>
				</clipPath>
				<g clip-path="url(#SVGID_20_)">
					
						<radialGradient id="SVGID_21_" cx="-224.5234" cy="719.6304" r="16.1806" gradientTransform="matrix(1.025 0 0 1.2163 508.621 -773.1594)" gradientUnits="userSpaceOnUse">
						<stop  offset="0.1296" style="stop-color:#3280FC"/>
						<stop  offset="1" style="stop-color:#000000"/>
					</radialGradient>
					<ellipse fill="url(#SVGID_21_)" cx="278.485" cy="102.128" rx="16.758" ry="19.886"/>
					<g>
						<ellipse fill="#EEFDFF" cx="278.485" cy="102.128" rx="12.027" ry="14.273"/>
					</g>
					<g>
						
							<linearGradient id="SVGID_22_" gradientUnits="userSpaceOnUse" x1="-271.6172" y1="698.4604" x2="-251.4121" y2="698.4604" gradientTransform="matrix(1 0 0 1 540 -596.333)">
							<stop  offset="0" style="stop-color:#030D14"/>
							<stop  offset="1" style="stop-color:#0B2F45"/>
						</linearGradient>
						<ellipse fill="url(#SVGID_22_)" cx="278.485" cy="102.128" rx="10.103" ry="11.989"/>
					</g>
					<g>
						<ellipse fill="#EEFDFF" cx="281.213" cy="99.02" rx="3.743" ry="4.441"/>
					</g>
					<g>
						<ellipse fill="#EEFDFF" cx="276.991" cy="111.32" rx="1.494" ry="1.772"/>
					</g>
					<g>
						<ellipse fill="#EEFDFF" cx="272.543" cy="108.662" rx="0.746" ry="0.886"/>
					</g>
				</g>
			</g>
		</g>
		<g>
			<g>
				<defs>
					<path id="SVGID_23_" d="M34.466,86.742v19.738h32.763V86.742c0-2.818,0.69-4.935,2.07-6.342
						c1.38-1.412,3.195-2.115,5.443-2.115c2.283,0,4.132,0.698,5.547,2.09c1.413,1.395,2.12,3.519,2.12,6.368v54.277
						c0,2.85-0.715,4.979-2.146,6.392c-1.43,1.409-3.271,2.113-5.521,2.113c-2.282,0-4.105-0.712-5.469-2.137
						c-1.362-1.427-2.043-3.548-2.043-6.368v-23.168H34.466v23.166c0,2.852-0.716,4.981-2.147,6.39
						c-1.43,1.412-3.27,2.114-5.52,2.114c-2.284,0-4.106-0.712-5.468-2.138c-1.364-1.424-2.045-3.548-2.045-6.366V86.742
						c0-2.818,0.673-4.935,2.02-6.342c1.345-1.412,3.177-2.115,5.494-2.115c2.282,0,4.132,0.698,5.546,2.09
						C33.759,81.77,34.466,83.893,34.466,86.742z M149.977,123.442c0,3.823-0.647,7.348-1.942,10.574
						c-1.295,3.228-3.168,5.999-5.622,8.316c-2.454,2.32-5.384,4.098-8.792,5.334c-3.407,1.239-7.24,1.856-11.5,1.856
						c-4.226,0-8.025-0.628-11.398-1.879c-3.373-1.251-6.295-3.047-8.765-5.38c-2.471-2.333-4.345-5.091-5.623-8.272
						c-1.277-3.178-1.916-6.693-1.916-10.55c0-3.882,0.646-7.439,1.942-10.667c1.294-3.227,3.152-5.981,5.571-8.27
						c2.42-2.285,5.349-4.049,8.792-5.287c3.441-1.238,7.239-1.855,11.397-1.855c4.225,0,8.059,0.626,11.5,1.878
						s6.389,3.038,8.842,5.355c2.453,2.321,4.319,5.077,5.597,8.272C149.338,116.067,149.977,119.589,149.977,123.442z
						 M135.973,123.442c0-5.231-1.251-9.304-3.757-12.215c-2.503-2.916-5.869-4.371-10.095-4.371c-2.726,0-5.127,0.651-7.207,1.952
						c-2.078,1.299-3.68,3.218-4.804,5.756c-1.124,2.536-1.687,5.498-1.687,8.88c0,3.354,0.553,6.282,1.661,8.79
						c1.107,2.506,2.691,4.424,4.754,5.756c2.061,1.332,4.489,1.997,7.282,1.997c4.224,0,7.59-1.464,10.094-4.393
						C134.722,132.663,135.973,128.612,135.973,123.442z M160.966,141.723V86.086c0-2.569,0.622-4.511,1.866-5.828
						c1.243-1.316,2.921-1.974,5.034-1.974c2.113,0,3.816,0.651,5.111,1.95c1.294,1.299,1.941,3.249,1.941,5.851v55.637
						c0,2.601-0.656,4.552-1.968,5.85c-1.313,1.301-3.007,1.955-5.084,1.955c-2.044,0-3.706-0.679-4.983-2.021
						C161.606,146.155,160.966,144.23,160.966,141.723z M238.247,140.548l-3.578-8.646h-30.462l-3.578,8.836
						c-1.396,3.446-2.589,5.771-3.578,6.977c-0.987,1.206-2.604,1.81-4.853,1.81c-1.909,0-3.597-0.642-5.06-1.927
						c-1.466-1.284-2.199-2.74-2.199-4.37c0-0.94,0.172-1.911,0.512-2.913c0.339-1.005,0.901-2.399,1.688-4.183l19.166-44.736
						c0.545-1.284,1.201-2.827,1.966-4.628c0.767-1.801,1.587-3.296,2.456-4.487c0.869-1.191,2.01-2.154,3.425-2.89
						c1.415-0.735,3.16-1.104,5.238-1.104c2.114,0,3.875,0.369,5.291,1.104c1.412,0.736,2.554,1.686,3.422,2.842
						c0.871,1.16,1.604,2.405,2.2,3.736c0.597,1.332,1.353,3.109,2.274,5.333l19.577,44.454c1.534,3.385,2.301,5.843,2.301,7.375
						c0,1.599-0.725,3.063-2.173,4.395c-1.449,1.331-3.193,1.997-5.239,1.997c-1.192,0-2.214-0.194-3.067-0.588
						c-0.852-0.392-1.565-0.921-2.144-1.596c-0.581-0.672-1.203-1.707-1.866-3.102C239.293,142.844,238.724,141.613,238.247,140.548
						z M208.193,121.422h22.386l-11.296-28.431L208.193,121.422z M313.533,140.548l-3.578-8.646h-30.462l-3.578,8.836
						c-1.396,3.446-2.588,5.771-3.577,6.977c-0.987,1.206-2.606,1.81-4.855,1.81c-1.904,0-3.595-0.642-5.061-1.927
						c-1.467-1.284-2.197-2.74-2.197-4.37c0-0.94,0.172-1.911,0.511-2.913c0.341-1.005,0.902-2.399,1.687-4.183l19.166-44.736
						c0.547-1.284,1.201-2.827,1.969-4.628c0.767-1.801,1.584-3.296,2.453-4.487c0.872-1.191,2.01-2.154,3.43-2.89
						c1.41-0.735,3.156-1.104,5.234-1.104c2.116,0,3.876,0.369,5.289,1.104c1.415,0.736,2.555,1.686,3.426,2.842
						c0.868,1.16,1.604,2.405,2.198,3.736c0.596,1.332,1.354,3.109,2.275,5.333l19.576,44.454c1.533,3.385,2.3,5.843,2.3,7.375
						c0,1.599-0.724,3.063-2.173,4.395c-1.447,1.331-3.192,1.997-5.236,1.997c-1.195,0-2.214-0.194-3.067-0.588
						c-0.852-0.392-1.568-0.921-2.148-1.596c-0.576-0.672-1.199-1.707-1.862-3.102C314.58,142.844,314.01,141.613,313.533,140.548z
						 M283.478,121.422h22.388l-11.293-28.431L283.478,121.422z"/>
				</defs>
				<clipPath id="SVGID_24_">
					<use xlink:href="#SVGID_23_"  overflow="visible"/>
				</clipPath>
				
					<linearGradient id="SVGID_25_" gradientUnits="userSpaceOnUse" x1="-296.1763" y1="586.4995" x2="-277.3171" y2="583.7491" gradientTransform="matrix(1 0 0 1 540 -596.333)">
					<stop  offset="0.0397" style="stop-color:#06CFF1"/>
					<stop  offset="1" style="stop-color:#DEFA8E"/>
				</linearGradient>
				<ellipse clip-path="url(#SVGID_24_)" fill="url(#SVGID_25_)" cx="256.636" cy="-11.701" rx="6.059" ry="7.191"/>
			</g>
		</g>
		<g>
			<g>
				<defs>
					<path id="SVGID_26_" d="M34.466,86.742v19.738h32.763V86.742c0-2.818,0.69-4.935,2.07-6.342
						c1.38-1.412,3.195-2.115,5.443-2.115c2.283,0,4.132,0.698,5.547,2.09c1.413,1.395,2.12,3.519,2.12,6.368v54.277
						c0,2.85-0.715,4.979-2.146,6.392c-1.43,1.409-3.271,2.113-5.521,2.113c-2.282,0-4.105-0.712-5.469-2.137
						c-1.362-1.427-2.043-3.548-2.043-6.368v-23.168H34.466v23.166c0,2.852-0.716,4.981-2.147,6.39
						c-1.43,1.412-3.27,2.114-5.52,2.114c-2.284,0-4.106-0.712-5.468-2.138c-1.364-1.424-2.045-3.548-2.045-6.366V86.742
						c0-2.818,0.673-4.935,2.02-6.342c1.345-1.412,3.177-2.115,5.494-2.115c2.282,0,4.132,0.698,5.546,2.09
						C33.759,81.77,34.466,83.893,34.466,86.742z M149.977,123.442c0,3.823-0.647,7.348-1.942,10.574
						c-1.295,3.228-3.168,5.999-5.622,8.316c-2.454,2.32-5.384,4.098-8.792,5.334c-3.407,1.239-7.24,1.856-11.5,1.856
						c-4.226,0-8.025-0.628-11.398-1.879c-3.373-1.251-6.295-3.047-8.765-5.38c-2.471-2.333-4.345-5.091-5.623-8.272
						c-1.277-3.178-1.916-6.693-1.916-10.55c0-3.882,0.646-7.439,1.942-10.667c1.294-3.227,3.152-5.981,5.571-8.27
						c2.42-2.285,5.349-4.049,8.792-5.287c3.441-1.238,7.239-1.855,11.397-1.855c4.225,0,8.059,0.626,11.5,1.878
						s6.389,3.038,8.842,5.355c2.453,2.321,4.319,5.077,5.597,8.272C149.338,116.067,149.977,119.589,149.977,123.442z
						 M135.973,123.442c0-5.231-1.251-9.304-3.757-12.215c-2.503-2.916-5.869-4.371-10.095-4.371c-2.726,0-5.127,0.651-7.207,1.952
						c-2.078,1.299-3.68,3.218-4.804,5.756c-1.124,2.536-1.687,5.498-1.687,8.88c0,3.354,0.553,6.282,1.661,8.79
						c1.107,2.506,2.691,4.424,4.754,5.756c2.061,1.332,4.489,1.997,7.282,1.997c4.224,0,7.59-1.464,10.094-4.393
						C134.722,132.663,135.973,128.612,135.973,123.442z M160.966,141.723V86.086c0-2.569,0.622-4.511,1.866-5.828
						c1.243-1.316,2.921-1.974,5.034-1.974c2.113,0,3.816,0.651,5.111,1.95c1.294,1.299,1.941,3.249,1.941,5.851v55.637
						c0,2.601-0.656,4.552-1.968,5.85c-1.313,1.301-3.007,1.955-5.084,1.955c-2.044,0-3.706-0.679-4.983-2.021
						C161.606,146.155,160.966,144.23,160.966,141.723z M238.247,140.548l-3.578-8.646h-30.462l-3.578,8.836
						c-1.396,3.446-2.589,5.771-3.578,6.977c-0.987,1.206-2.604,1.81-4.853,1.81c-1.909,0-3.597-0.642-5.06-1.927
						c-1.466-1.284-2.199-2.74-2.199-4.37c0-0.94,0.172-1.911,0.512-2.913c0.339-1.005,0.901-2.399,1.688-4.183l19.166-44.736
						c0.545-1.284,1.201-2.827,1.966-4.628c0.767-1.801,1.587-3.296,2.456-4.487c0.869-1.191,2.01-2.154,3.425-2.89
						c1.415-0.735,3.16-1.104,5.238-1.104c2.114,0,3.875,0.369,5.291,1.104c1.412,0.736,2.554,1.686,3.422,2.842
						c0.871,1.16,1.604,2.405,2.2,3.736c0.597,1.332,1.353,3.109,2.274,5.333l19.577,44.454c1.534,3.385,2.301,5.843,2.301,7.375
						c0,1.599-0.725,3.063-2.173,4.395c-1.449,1.331-3.193,1.997-5.239,1.997c-1.192,0-2.214-0.194-3.067-0.588
						c-0.852-0.392-1.565-0.921-2.144-1.596c-0.581-0.672-1.203-1.707-1.866-3.102C239.293,142.844,238.724,141.613,238.247,140.548
						z M208.193,121.422h22.386l-11.296-28.431L208.193,121.422z M313.533,140.548l-3.578-8.646h-30.462l-3.578,8.836
						c-1.396,3.446-2.588,5.771-3.577,6.977c-0.987,1.206-2.606,1.81-4.855,1.81c-1.904,0-3.595-0.642-5.061-1.927
						c-1.467-1.284-2.197-2.74-2.197-4.37c0-0.94,0.172-1.911,0.511-2.913c0.341-1.005,0.902-2.399,1.687-4.183l19.166-44.736
						c0.547-1.284,1.201-2.827,1.969-4.628c0.767-1.801,1.584-3.296,2.453-4.487c0.872-1.191,2.01-2.154,3.43-2.89
						c1.41-0.735,3.156-1.104,5.234-1.104c2.116,0,3.876,0.369,5.289,1.104c1.415,0.736,2.555,1.686,3.426,2.842
						c0.868,1.16,1.604,2.405,2.198,3.736c0.596,1.332,1.354,3.109,2.275,5.333l19.576,44.454c1.533,3.385,2.3,5.843,2.3,7.375
						c0,1.599-0.724,3.063-2.173,4.395c-1.447,1.331-3.192,1.997-5.236,1.997c-1.195,0-2.214-0.194-3.067-0.588
						c-0.852-0.392-1.568-0.921-2.148-1.596c-0.576-0.672-1.199-1.707-1.862-3.102C314.58,142.844,314.01,141.613,313.533,140.548z
						 M283.478,121.422h22.388l-11.293-28.431L283.478,121.422z"/>
				</defs>
				<clipPath id="SVGID_27_">
					<use xlink:href="#SVGID_26_"  overflow="visible"/>
				</clipPath>
				<ellipse clip-path="url(#SVGID_27_)" fill="#FFFFFF" cx="259" cy="-14.507" rx="1.848" ry="2.192"/>
			</g>
		</g>
		<g>
			<g>
				<defs>
					<path id="SVGID_28_" d="M34.466,86.742v19.738h32.763V86.742c0-2.818,0.69-4.935,2.07-6.342
						c1.38-1.412,3.195-2.115,5.443-2.115c2.283,0,4.132,0.698,5.547,2.09c1.413,1.395,2.12,3.519,2.12,6.368v54.277
						c0,2.85-0.715,4.979-2.146,6.392c-1.43,1.409-3.271,2.113-5.521,2.113c-2.282,0-4.105-0.712-5.469-2.137
						c-1.362-1.427-2.043-3.548-2.043-6.368v-23.168H34.466v23.166c0,2.852-0.716,4.981-2.147,6.39
						c-1.43,1.412-3.27,2.114-5.52,2.114c-2.284,0-4.106-0.712-5.468-2.138c-1.364-1.424-2.045-3.548-2.045-6.366V86.742
						c0-2.818,0.673-4.935,2.02-6.342c1.345-1.412,3.177-2.115,5.494-2.115c2.282,0,4.132,0.698,5.546,2.09
						C33.759,81.77,34.466,83.893,34.466,86.742z M149.977,123.442c0,3.823-0.647,7.348-1.942,10.574
						c-1.295,3.228-3.168,5.999-5.622,8.316c-2.454,2.32-5.384,4.098-8.792,5.334c-3.407,1.239-7.24,1.856-11.5,1.856
						c-4.226,0-8.025-0.628-11.398-1.879c-3.373-1.251-6.295-3.047-8.765-5.38c-2.471-2.333-4.345-5.091-5.623-8.272
						c-1.277-3.178-1.916-6.693-1.916-10.55c0-3.882,0.646-7.439,1.942-10.667c1.294-3.227,3.152-5.981,5.571-8.27
						c2.42-2.285,5.349-4.049,8.792-5.287c3.441-1.238,7.239-1.855,11.397-1.855c4.225,0,8.059,0.626,11.5,1.878
						s6.389,3.038,8.842,5.355c2.453,2.321,4.319,5.077,5.597,8.272C149.338,116.067,149.977,119.589,149.977,123.442z
						 M135.973,123.442c0-5.231-1.251-9.304-3.757-12.215c-2.503-2.916-5.869-4.371-10.095-4.371c-2.726,0-5.127,0.651-7.207,1.952
						c-2.078,1.299-3.68,3.218-4.804,5.756c-1.124,2.536-1.687,5.498-1.687,8.88c0,3.354,0.553,6.282,1.661,8.79
						c1.107,2.506,2.691,4.424,4.754,5.756c2.061,1.332,4.489,1.997,7.282,1.997c4.224,0,7.59-1.464,10.094-4.393
						C134.722,132.663,135.973,128.612,135.973,123.442z M160.966,141.723V86.086c0-2.569,0.622-4.511,1.866-5.828
						c1.243-1.316,2.921-1.974,5.034-1.974c2.113,0,3.816,0.651,5.111,1.95c1.294,1.299,1.941,3.249,1.941,5.851v55.637
						c0,2.601-0.656,4.552-1.968,5.85c-1.313,1.301-3.007,1.955-5.084,1.955c-2.044,0-3.706-0.679-4.983-2.021
						C161.606,146.155,160.966,144.23,160.966,141.723z M238.247,140.548l-3.578-8.646h-30.462l-3.578,8.836
						c-1.396,3.446-2.589,5.771-3.578,6.977c-0.987,1.206-2.604,1.81-4.853,1.81c-1.909,0-3.597-0.642-5.06-1.927
						c-1.466-1.284-2.199-2.74-2.199-4.37c0-0.94,0.172-1.911,0.512-2.913c0.339-1.005,0.901-2.399,1.688-4.183l19.166-44.736
						c0.545-1.284,1.201-2.827,1.966-4.628c0.767-1.801,1.587-3.296,2.456-4.487c0.869-1.191,2.01-2.154,3.425-2.89
						c1.415-0.735,3.16-1.104,5.238-1.104c2.114,0,3.875,0.369,5.291,1.104c1.412,0.736,2.554,1.686,3.422,2.842
						c0.871,1.16,1.604,2.405,2.2,3.736c0.597,1.332,1.353,3.109,2.274,5.333l19.577,44.454c1.534,3.385,2.301,5.843,2.301,7.375
						c0,1.599-0.725,3.063-2.173,4.395c-1.449,1.331-3.193,1.997-5.239,1.997c-1.192,0-2.214-0.194-3.067-0.588
						c-0.852-0.392-1.565-0.921-2.144-1.596c-0.581-0.672-1.203-1.707-1.866-3.102C239.293,142.844,238.724,141.613,238.247,140.548
						z M208.193,121.422h22.386l-11.296-28.431L208.193,121.422z M313.533,140.548l-3.578-8.646h-30.462l-3.578,8.836
						c-1.396,3.446-2.588,5.771-3.577,6.977c-0.987,1.206-2.606,1.81-4.855,1.81c-1.904,0-3.595-0.642-5.061-1.927
						c-1.467-1.284-2.197-2.74-2.197-4.37c0-0.94,0.172-1.911,0.511-2.913c0.341-1.005,0.902-2.399,1.687-4.183l19.166-44.736
						c0.547-1.284,1.201-2.827,1.969-4.628c0.767-1.801,1.584-3.296,2.453-4.487c0.872-1.191,2.01-2.154,3.43-2.89
						c1.41-0.735,3.156-1.104,5.234-1.104c2.116,0,3.876,0.369,5.289,1.104c1.415,0.736,2.555,1.686,3.426,2.842
						c0.868,1.16,1.604,2.405,2.198,3.736c0.596,1.332,1.354,3.109,2.275,5.333l19.576,44.454c1.533,3.385,2.3,5.843,2.3,7.375
						c0,1.599-0.724,3.063-2.173,4.395c-1.447,1.331-3.192,1.997-5.236,1.997c-1.195,0-2.214-0.194-3.067-0.588
						c-0.852-0.392-1.568-0.921-2.148-1.596c-0.576-0.672-1.199-1.707-1.862-3.102C314.58,142.844,314.01,141.613,313.533,140.548z
						 M283.478,121.422h22.388l-11.293-28.431L283.478,121.422z"/>
				</defs>
				<clipPath id="SVGID_29_">
					<use xlink:href="#SVGID_28_"  overflow="visible"/>
				</clipPath>
				<path clip-path="url(#SVGID_29_)" fill="#FFFFFF" d="M308.812,58.361c0.082,3.357-2.229,7.372-4.874,7.716
					c-2.479,0.322-4.46-2.685-6.502-5.785c-2.012-3.056-6.412-10.905-4.66-13.125C295.087,44.237,308.623,50.44,308.812,58.361z"/>
			</g>
		</g>
		<g>
			<g>
				<defs>
					<path id="SVGID_30_" d="M34.466,86.742v19.738h32.763V86.742c0-2.818,0.69-4.935,2.07-6.342
						c1.38-1.412,3.195-2.115,5.443-2.115c2.283,0,4.132,0.698,5.547,2.09c1.413,1.395,2.12,3.519,2.12,6.368v54.277
						c0,2.85-0.715,4.979-2.146,6.392c-1.43,1.409-3.271,2.113-5.521,2.113c-2.282,0-4.105-0.712-5.469-2.137
						c-1.362-1.427-2.043-3.548-2.043-6.368v-23.168H34.466v23.166c0,2.852-0.716,4.981-2.147,6.39
						c-1.43,1.412-3.27,2.114-5.52,2.114c-2.284,0-4.106-0.712-5.468-2.138c-1.364-1.424-2.045-3.548-2.045-6.366V86.742
						c0-2.818,0.673-4.935,2.02-6.342c1.345-1.412,3.177-2.115,5.494-2.115c2.282,0,4.132,0.698,5.546,2.09
						C33.759,81.77,34.466,83.893,34.466,86.742z M149.977,123.442c0,3.823-0.647,7.348-1.942,10.574
						c-1.295,3.228-3.168,5.999-5.622,8.316c-2.454,2.32-5.384,4.098-8.792,5.334c-3.407,1.239-7.24,1.856-11.5,1.856
						c-4.226,0-8.025-0.628-11.398-1.879c-3.373-1.251-6.295-3.047-8.765-5.38c-2.471-2.333-4.345-5.091-5.623-8.272
						c-1.277-3.178-1.916-6.693-1.916-10.55c0-3.882,0.646-7.439,1.942-10.667c1.294-3.227,3.152-5.981,5.571-8.27
						c2.42-2.285,5.349-4.049,8.792-5.287c3.441-1.238,7.239-1.855,11.397-1.855c4.225,0,8.059,0.626,11.5,1.878
						s6.389,3.038,8.842,5.355c2.453,2.321,4.319,5.077,5.597,8.272C149.338,116.067,149.977,119.589,149.977,123.442z
						 M135.973,123.442c0-5.231-1.251-9.304-3.757-12.215c-2.503-2.916-5.869-4.371-10.095-4.371c-2.726,0-5.127,0.651-7.207,1.952
						c-2.078,1.299-3.68,3.218-4.804,5.756c-1.124,2.536-1.687,5.498-1.687,8.88c0,3.354,0.553,6.282,1.661,8.79
						c1.107,2.506,2.691,4.424,4.754,5.756c2.061,1.332,4.489,1.997,7.282,1.997c4.224,0,7.59-1.464,10.094-4.393
						C134.722,132.663,135.973,128.612,135.973,123.442z M160.966,141.723V86.086c0-2.569,0.622-4.511,1.866-5.828
						c1.243-1.316,2.921-1.974,5.034-1.974c2.113,0,3.816,0.651,5.111,1.95c1.294,1.299,1.941,3.249,1.941,5.851v55.637
						c0,2.601-0.656,4.552-1.968,5.85c-1.313,1.301-3.007,1.955-5.084,1.955c-2.044,0-3.706-0.679-4.983-2.021
						C161.606,146.155,160.966,144.23,160.966,141.723z M238.247,140.548l-3.578-8.646h-30.462l-3.578,8.836
						c-1.396,3.446-2.589,5.771-3.578,6.977c-0.987,1.206-2.604,1.81-4.853,1.81c-1.909,0-3.597-0.642-5.06-1.927
						c-1.466-1.284-2.199-2.74-2.199-4.37c0-0.94,0.172-1.911,0.512-2.913c0.339-1.005,0.901-2.399,1.688-4.183l19.166-44.736
						c0.545-1.284,1.201-2.827,1.966-4.628c0.767-1.801,1.587-3.296,2.456-4.487c0.869-1.191,2.01-2.154,3.425-2.89
						c1.415-0.735,3.16-1.104,5.238-1.104c2.114,0,3.875,0.369,5.291,1.104c1.412,0.736,2.554,1.686,3.422,2.842
						c0.871,1.16,1.604,2.405,2.2,3.736c0.597,1.332,1.353,3.109,2.274,5.333l19.577,44.454c1.534,3.385,2.301,5.843,2.301,7.375
						c0,1.599-0.725,3.063-2.173,4.395c-1.449,1.331-3.193,1.997-5.239,1.997c-1.192,0-2.214-0.194-3.067-0.588
						c-0.852-0.392-1.565-0.921-2.144-1.596c-0.581-0.672-1.203-1.707-1.866-3.102C239.293,142.844,238.724,141.613,238.247,140.548
						z M208.193,121.422h22.386l-11.296-28.431L208.193,121.422z M313.533,140.548l-3.578-8.646h-30.462l-3.578,8.836
						c-1.396,3.446-2.588,5.771-3.577,6.977c-0.987,1.206-2.606,1.81-4.855,1.81c-1.904,0-3.595-0.642-5.061-1.927
						c-1.467-1.284-2.197-2.74-2.197-4.37c0-0.94,0.172-1.911,0.511-2.913c0.341-1.005,0.902-2.399,1.687-4.183l19.166-44.736
						c0.547-1.284,1.201-2.827,1.969-4.628c0.767-1.801,1.584-3.296,2.453-4.487c0.872-1.191,2.01-2.154,3.43-2.89
						c1.41-0.735,3.156-1.104,5.234-1.104c2.116,0,3.876,0.369,5.289,1.104c1.415,0.736,2.555,1.686,3.426,2.842
						c0.868,1.16,1.604,2.405,2.198,3.736c0.596,1.332,1.354,3.109,2.275,5.333l19.576,44.454c1.533,3.385,2.3,5.843,2.3,7.375
						c0,1.599-0.724,3.063-2.173,4.395c-1.447,1.331-3.192,1.997-5.236,1.997c-1.195,0-2.214-0.194-3.067-0.588
						c-0.852-0.392-1.568-0.921-2.148-1.596c-0.576-0.672-1.199-1.707-1.862-3.102C314.58,142.844,314.01,141.613,313.533,140.548z
						 M283.478,121.422h22.388l-11.293-28.431L283.478,121.422z"/>
				</defs>
				<clipPath id="SVGID_31_">
					<use xlink:href="#SVGID_30_"  overflow="visible"/>
				</clipPath>
				<ellipse clip-path="url(#SVGID_31_)" fill="#FFFFFF" cx="286.164" cy="43.064" rx="2.105" ry="2.5"/>
			</g>
		</g>
		<g>
			<g>
				<defs>
					<path id="SVGID_32_" d="M34.466,86.742v19.738h32.763V86.742c0-2.818,0.69-4.935,2.07-6.342
						c1.38-1.412,3.195-2.115,5.443-2.115c2.283,0,4.132,0.698,5.547,2.09c1.413,1.395,2.12,3.519,2.12,6.368v54.277
						c0,2.85-0.715,4.979-2.146,6.392c-1.43,1.409-3.271,2.113-5.521,2.113c-2.282,0-4.105-0.712-5.469-2.137
						c-1.362-1.427-2.043-3.548-2.043-6.368v-23.168H34.466v23.166c0,2.852-0.716,4.981-2.147,6.39
						c-1.43,1.412-3.27,2.114-5.52,2.114c-2.284,0-4.106-0.712-5.468-2.138c-1.364-1.424-2.045-3.548-2.045-6.366V86.742
						c0-2.818,0.673-4.935,2.02-6.342c1.345-1.412,3.177-2.115,5.494-2.115c2.282,0,4.132,0.698,5.546,2.09
						C33.759,81.77,34.466,83.893,34.466,86.742z M149.977,123.442c0,3.823-0.647,7.348-1.942,10.574
						c-1.295,3.228-3.168,5.999-5.622,8.316c-2.454,2.32-5.384,4.098-8.792,5.334c-3.407,1.239-7.24,1.856-11.5,1.856
						c-4.226,0-8.025-0.628-11.398-1.879c-3.373-1.251-6.295-3.047-8.765-5.38c-2.471-2.333-4.345-5.091-5.623-8.272
						c-1.277-3.178-1.916-6.693-1.916-10.55c0-3.882,0.646-7.439,1.942-10.667c1.294-3.227,3.152-5.981,5.571-8.27
						c2.42-2.285,5.349-4.049,8.792-5.287c3.441-1.238,7.239-1.855,11.397-1.855c4.225,0,8.059,0.626,11.5,1.878
						s6.389,3.038,8.842,5.355c2.453,2.321,4.319,5.077,5.597,8.272C149.338,116.067,149.977,119.589,149.977,123.442z
						 M135.973,123.442c0-5.231-1.251-9.304-3.757-12.215c-2.503-2.916-5.869-4.371-10.095-4.371c-2.726,0-5.127,0.651-7.207,1.952
						c-2.078,1.299-3.68,3.218-4.804,5.756c-1.124,2.536-1.687,5.498-1.687,8.88c0,3.354,0.553,6.282,1.661,8.79
						c1.107,2.506,2.691,4.424,4.754,5.756c2.061,1.332,4.489,1.997,7.282,1.997c4.224,0,7.59-1.464,10.094-4.393
						C134.722,132.663,135.973,128.612,135.973,123.442z M160.966,141.723V86.086c0-2.569,0.622-4.511,1.866-5.828
						c1.243-1.316,2.921-1.974,5.034-1.974c2.113,0,3.816,0.651,5.111,1.95c1.294,1.299,1.941,3.249,1.941,5.851v55.637
						c0,2.601-0.656,4.552-1.968,5.85c-1.313,1.301-3.007,1.955-5.084,1.955c-2.044,0-3.706-0.679-4.983-2.021
						C161.606,146.155,160.966,144.23,160.966,141.723z M238.247,140.548l-3.578-8.646h-30.462l-3.578,8.836
						c-1.396,3.446-2.589,5.771-3.578,6.977c-0.987,1.206-2.604,1.81-4.853,1.81c-1.909,0-3.597-0.642-5.06-1.927
						c-1.466-1.284-2.199-2.74-2.199-4.37c0-0.94,0.172-1.911,0.512-2.913c0.339-1.005,0.901-2.399,1.688-4.183l19.166-44.736
						c0.545-1.284,1.201-2.827,1.966-4.628c0.767-1.801,1.587-3.296,2.456-4.487c0.869-1.191,2.01-2.154,3.425-2.89
						c1.415-0.735,3.16-1.104,5.238-1.104c2.114,0,3.875,0.369,5.291,1.104c1.412,0.736,2.554,1.686,3.422,2.842
						c0.871,1.16,1.604,2.405,2.2,3.736c0.597,1.332,1.353,3.109,2.274,5.333l19.577,44.454c1.534,3.385,2.301,5.843,2.301,7.375
						c0,1.599-0.725,3.063-2.173,4.395c-1.449,1.331-3.193,1.997-5.239,1.997c-1.192,0-2.214-0.194-3.067-0.588
						c-0.852-0.392-1.565-0.921-2.144-1.596c-0.581-0.672-1.203-1.707-1.866-3.102C239.293,142.844,238.724,141.613,238.247,140.548
						z M208.193,121.422h22.386l-11.296-28.431L208.193,121.422z M313.533,140.548l-3.578-8.646h-30.462l-3.578,8.836
						c-1.396,3.446-2.588,5.771-3.577,6.977c-0.987,1.206-2.606,1.81-4.855,1.81c-1.904,0-3.595-0.642-5.061-1.927
						c-1.467-1.284-2.197-2.74-2.197-4.37c0-0.94,0.172-1.911,0.511-2.913c0.341-1.005,0.902-2.399,1.687-4.183l19.166-44.736
						c0.547-1.284,1.201-2.827,1.969-4.628c0.767-1.801,1.584-3.296,2.453-4.487c0.872-1.191,2.01-2.154,3.43-2.89
						c1.41-0.735,3.156-1.104,5.234-1.104c2.116,0,3.876,0.369,5.289,1.104c1.415,0.736,2.555,1.686,3.426,2.842
						c0.868,1.16,1.604,2.405,2.198,3.736c0.596,1.332,1.354,3.109,2.275,5.333l19.576,44.454c1.533,3.385,2.3,5.843,2.3,7.375
						c0,1.599-0.724,3.063-2.173,4.395c-1.447,1.331-3.192,1.997-5.236,1.997c-1.195,0-2.214-0.194-3.067-0.588
						c-0.852-0.392-1.568-0.921-2.148-1.596c-0.576-0.672-1.199-1.707-1.862-3.102C314.58,142.844,314.01,141.613,313.533,140.548z
						 M283.478,121.422h22.388l-11.293-28.431L283.478,121.422z"/>
				</defs>
				<clipPath id="SVGID_33_">
					<use xlink:href="#SVGID_32_"  overflow="visible"/>
				</clipPath>
				<path clip-path="url(#SVGID_33_)" fill="#FFFFFF" d="M308.513,104.932c-0.676,0.566-5.387-10.824-18.033-20.697
					c-4.442-3.472-8.832-5.945-8.571-6.664c0.267-0.731,5.207,0.627,9.164,2.807C303.679,87.316,309.315,104.257,308.513,104.932z"
					/>
			</g>
		</g>
		<g>
			<g>
				<defs>
					<path id="SVGID_34_" d="M34.466,86.742v19.738h32.763V86.742c0-2.818,0.69-4.935,2.07-6.342
						c1.38-1.412,3.195-2.115,5.443-2.115c2.283,0,4.132,0.698,5.547,2.09c1.413,1.395,2.12,3.519,2.12,6.368v54.277
						c0,2.85-0.715,4.979-2.146,6.392c-1.43,1.409-3.271,2.113-5.521,2.113c-2.282,0-4.105-0.712-5.469-2.137
						c-1.362-1.427-2.043-3.548-2.043-6.368v-23.168H34.466v23.166c0,2.852-0.716,4.981-2.147,6.39
						c-1.43,1.412-3.27,2.114-5.52,2.114c-2.284,0-4.106-0.712-5.468-2.138c-1.364-1.424-2.045-3.548-2.045-6.366V86.742
						c0-2.818,0.673-4.935,2.02-6.342c1.345-1.412,3.177-2.115,5.494-2.115c2.282,0,4.132,0.698,5.546,2.09
						C33.759,81.77,34.466,83.893,34.466,86.742z M149.977,123.442c0,3.823-0.647,7.348-1.942,10.574
						c-1.295,3.228-3.168,5.999-5.622,8.316c-2.454,2.32-5.384,4.098-8.792,5.334c-3.407,1.239-7.24,1.856-11.5,1.856
						c-4.226,0-8.025-0.628-11.398-1.879c-3.373-1.251-6.295-3.047-8.765-5.38c-2.471-2.333-4.345-5.091-5.623-8.272
						c-1.277-3.178-1.916-6.693-1.916-10.55c0-3.882,0.646-7.439,1.942-10.667c1.294-3.227,3.152-5.981,5.571-8.27
						c2.42-2.285,5.349-4.049,8.792-5.287c3.441-1.238,7.239-1.855,11.397-1.855c4.225,0,8.059,0.626,11.5,1.878
						s6.389,3.038,8.842,5.355c2.453,2.321,4.319,5.077,5.597,8.272C149.338,116.067,149.977,119.589,149.977,123.442z
						 M135.973,123.442c0-5.231-1.251-9.304-3.757-12.215c-2.503-2.916-5.869-4.371-10.095-4.371c-2.726,0-5.127,0.651-7.207,1.952
						c-2.078,1.299-3.68,3.218-4.804,5.756c-1.124,2.536-1.687,5.498-1.687,8.88c0,3.354,0.553,6.282,1.661,8.79
						c1.107,2.506,2.691,4.424,4.754,5.756c2.061,1.332,4.489,1.997,7.282,1.997c4.224,0,7.59-1.464,10.094-4.393
						C134.722,132.663,135.973,128.612,135.973,123.442z M160.966,141.723V86.086c0-2.569,0.622-4.511,1.866-5.828
						c1.243-1.316,2.921-1.974,5.034-1.974c2.113,0,3.816,0.651,5.111,1.95c1.294,1.299,1.941,3.249,1.941,5.851v55.637
						c0,2.601-0.656,4.552-1.968,5.85c-1.313,1.301-3.007,1.955-5.084,1.955c-2.044,0-3.706-0.679-4.983-2.021
						C161.606,146.155,160.966,144.23,160.966,141.723z M238.247,140.548l-3.578-8.646h-30.462l-3.578,8.836
						c-1.396,3.446-2.589,5.771-3.578,6.977c-0.987,1.206-2.604,1.81-4.853,1.81c-1.909,0-3.597-0.642-5.06-1.927
						c-1.466-1.284-2.199-2.74-2.199-4.37c0-0.94,0.172-1.911,0.512-2.913c0.339-1.005,0.901-2.399,1.688-4.183l19.166-44.736
						c0.545-1.284,1.201-2.827,1.966-4.628c0.767-1.801,1.587-3.296,2.456-4.487c0.869-1.191,2.01-2.154,3.425-2.89
						c1.415-0.735,3.16-1.104,5.238-1.104c2.114,0,3.875,0.369,5.291,1.104c1.412,0.736,2.554,1.686,3.422,2.842
						c0.871,1.16,1.604,2.405,2.2,3.736c0.597,1.332,1.353,3.109,2.274,5.333l19.577,44.454c1.534,3.385,2.301,5.843,2.301,7.375
						c0,1.599-0.725,3.063-2.173,4.395c-1.449,1.331-3.193,1.997-5.239,1.997c-1.192,0-2.214-0.194-3.067-0.588
						c-0.852-0.392-1.565-0.921-2.144-1.596c-0.581-0.672-1.203-1.707-1.866-3.102C239.293,142.844,238.724,141.613,238.247,140.548
						z M208.193,121.422h22.386l-11.296-28.431L208.193,121.422z M313.533,140.548l-3.578-8.646h-30.462l-3.578,8.836
						c-1.396,3.446-2.588,5.771-3.577,6.977c-0.987,1.206-2.606,1.81-4.855,1.81c-1.904,0-3.595-0.642-5.061-1.927
						c-1.467-1.284-2.197-2.74-2.197-4.37c0-0.94,0.172-1.911,0.511-2.913c0.341-1.005,0.902-2.399,1.687-4.183l19.166-44.736
						c0.547-1.284,1.201-2.827,1.969-4.628c0.767-1.801,1.584-3.296,2.453-4.487c0.872-1.191,2.01-2.154,3.43-2.89
						c1.41-0.735,3.156-1.104,5.234-1.104c2.116,0,3.876,0.369,5.289,1.104c1.415,0.736,2.555,1.686,3.426,2.842
						c0.868,1.16,1.604,2.405,2.198,3.736c0.596,1.332,1.354,3.109,2.275,5.333l19.576,44.454c1.533,3.385,2.3,5.843,2.3,7.375
						c0,1.599-0.724,3.063-2.173,4.395c-1.447,1.331-3.192,1.997-5.236,1.997c-1.195,0-2.214-0.194-3.067-0.588
						c-0.852-0.392-1.568-0.921-2.148-1.596c-0.576-0.672-1.199-1.707-1.862-3.102C314.58,142.844,314.01,141.613,313.533,140.548z
						 M283.478,121.422h22.388l-11.293-28.431L283.478,121.422z"/>
				</defs>
				<clipPath id="SVGID_35_">
					<use xlink:href="#SVGID_34_"  overflow="visible"/>
				</clipPath>
				<path clip-path="url(#SVGID_35_)" fill="#FFFFFF" d="M276.132,30.893c-0.15,0.026-0.248-1.025-0.987-2.649
					c0,0-0.342-0.759-0.737-1.402c-1.269-2.073-5.573-2.028-5.912-2.024c-6.703,0.07-11.012-0.436-11.01-0.388
					c0,0.041,3.142-0.036,5.444-0.092c6.499-0.156,10.371-0.571,12.028,1.496c0.69,0.858,1.036,1.973,1.036,1.973
					C276.468,29.321,276.31,30.862,276.132,30.893z"/>
			</g>
		</g>
		<g>
			<g>
				<defs>
					<path id="SVGID_36_" d="M34.466,86.742v19.738h32.763V86.742c0-2.818,0.69-4.935,2.07-6.342
						c1.38-1.412,3.195-2.115,5.443-2.115c2.283,0,4.132,0.698,5.547,2.09c1.413,1.395,2.12,3.519,2.12,6.368v54.277
						c0,2.85-0.715,4.979-2.146,6.392c-1.43,1.409-3.271,2.113-5.521,2.113c-2.282,0-4.105-0.712-5.469-2.137
						c-1.362-1.427-2.043-3.548-2.043-6.368v-23.168H34.466v23.166c0,2.852-0.716,4.981-2.147,6.39
						c-1.43,1.412-3.27,2.114-5.52,2.114c-2.284,0-4.106-0.712-5.468-2.138c-1.364-1.424-2.045-3.548-2.045-6.366V86.742
						c0-2.818,0.673-4.935,2.02-6.342c1.345-1.412,3.177-2.115,5.494-2.115c2.282,0,4.132,0.698,5.546,2.09
						C33.759,81.77,34.466,83.893,34.466,86.742z M149.977,123.442c0,3.823-0.647,7.348-1.942,10.574
						c-1.295,3.228-3.168,5.999-5.622,8.316c-2.454,2.32-5.384,4.098-8.792,5.334c-3.407,1.239-7.24,1.856-11.5,1.856
						c-4.226,0-8.025-0.628-11.398-1.879c-3.373-1.251-6.295-3.047-8.765-5.38c-2.471-2.333-4.345-5.091-5.623-8.272
						c-1.277-3.178-1.916-6.693-1.916-10.55c0-3.882,0.646-7.439,1.942-10.667c1.294-3.227,3.152-5.981,5.571-8.27
						c2.42-2.285,5.349-4.049,8.792-5.287c3.441-1.238,7.239-1.855,11.397-1.855c4.225,0,8.059,0.626,11.5,1.878
						s6.389,3.038,8.842,5.355c2.453,2.321,4.319,5.077,5.597,8.272C149.338,116.067,149.977,119.589,149.977,123.442z
						 M135.973,123.442c0-5.231-1.251-9.304-3.757-12.215c-2.503-2.916-5.869-4.371-10.095-4.371c-2.726,0-5.127,0.651-7.207,1.952
						c-2.078,1.299-3.68,3.218-4.804,5.756c-1.124,2.536-1.687,5.498-1.687,8.88c0,3.354,0.553,6.282,1.661,8.79
						c1.107,2.506,2.691,4.424,4.754,5.756c2.061,1.332,4.489,1.997,7.282,1.997c4.224,0,7.59-1.464,10.094-4.393
						C134.722,132.663,135.973,128.612,135.973,123.442z M160.966,141.723V86.086c0-2.569,0.622-4.511,1.866-5.828
						c1.243-1.316,2.921-1.974,5.034-1.974c2.113,0,3.816,0.651,5.111,1.95c1.294,1.299,1.941,3.249,1.941,5.851v55.637
						c0,2.601-0.656,4.552-1.968,5.85c-1.313,1.301-3.007,1.955-5.084,1.955c-2.044,0-3.706-0.679-4.983-2.021
						C161.606,146.155,160.966,144.23,160.966,141.723z M238.247,140.548l-3.578-8.646h-30.462l-3.578,8.836
						c-1.396,3.446-2.589,5.771-3.578,6.977c-0.987,1.206-2.604,1.81-4.853,1.81c-1.909,0-3.597-0.642-5.06-1.927
						c-1.466-1.284-2.199-2.74-2.199-4.37c0-0.94,0.172-1.911,0.512-2.913c0.339-1.005,0.901-2.399,1.688-4.183l19.166-44.736
						c0.545-1.284,1.201-2.827,1.966-4.628c0.767-1.801,1.587-3.296,2.456-4.487c0.869-1.191,2.01-2.154,3.425-2.89
						c1.415-0.735,3.16-1.104,5.238-1.104c2.114,0,3.875,0.369,5.291,1.104c1.412,0.736,2.554,1.686,3.422,2.842
						c0.871,1.16,1.604,2.405,2.2,3.736c0.597,1.332,1.353,3.109,2.274,5.333l19.577,44.454c1.534,3.385,2.301,5.843,2.301,7.375
						c0,1.599-0.725,3.063-2.173,4.395c-1.449,1.331-3.193,1.997-5.239,1.997c-1.192,0-2.214-0.194-3.067-0.588
						c-0.852-0.392-1.565-0.921-2.144-1.596c-0.581-0.672-1.203-1.707-1.866-3.102C239.293,142.844,238.724,141.613,238.247,140.548
						z M208.193,121.422h22.386l-11.296-28.431L208.193,121.422z M313.533,140.548l-3.578-8.646h-30.462l-3.578,8.836
						c-1.396,3.446-2.588,5.771-3.577,6.977c-0.987,1.206-2.606,1.81-4.855,1.81c-1.904,0-3.595-0.642-5.061-1.927
						c-1.467-1.284-2.197-2.74-2.197-4.37c0-0.94,0.172-1.911,0.511-2.913c0.341-1.005,0.902-2.399,1.687-4.183l19.166-44.736
						c0.547-1.284,1.201-2.827,1.969-4.628c0.767-1.801,1.584-3.296,2.453-4.487c0.872-1.191,2.01-2.154,3.43-2.89
						c1.41-0.735,3.156-1.104,5.234-1.104c2.116,0,3.876,0.369,5.289,1.104c1.415,0.736,2.555,1.686,3.426,2.842
						c0.868,1.16,1.604,2.405,2.198,3.736c0.596,1.332,1.354,3.109,2.275,5.333l19.576,44.454c1.533,3.385,2.3,5.843,2.3,7.375
						c0,1.599-0.724,3.063-2.173,4.395c-1.447,1.331-3.192,1.997-5.236,1.997c-1.195,0-2.214-0.194-3.067-0.588
						c-0.852-0.392-1.568-0.921-2.148-1.596c-0.576-0.672-1.199-1.707-1.862-3.102C314.58,142.844,314.01,141.613,313.533,140.548z
						 M283.478,121.422h22.388l-11.293-28.431L283.478,121.422z"/>
				</defs>
				<clipPath id="SVGID_37_">
					<use xlink:href="#SVGID_36_"  overflow="visible"/>
				</clipPath>
				
					<linearGradient id="SVGID_38_" gradientUnits="userSpaceOnUse" x1="-284.0806" y1="740.6353" x2="-253.7073" y2="710.2619" gradientTransform="matrix(1 0 0 1 540 -596.333)">
					<stop  offset="0.0714" style="stop-color:#0DA9AB"/>
					<stop  offset="1" style="stop-color:#DEFA8E"/>
				</linearGradient>
				<path clip-path="url(#SVGID_37_)" fill="url(#SVGID_38_)" d="M274.739,134.869c-0.711,8.163-6.181,14.879-13.33,15.688
					c-7.05,0.811-13.418-4.379-15.511-12.061c0.559,1.643,2.015,2.644,3.531,2.465l22.204-2.538
					C273.24,138.237,274.57,136.772,274.739,134.869z"/>
			</g>
		</g>
		<g>
			<g>
				<defs>
					<path id="SVGID_39_" d="M34.466,86.742v19.738h32.763V86.742c0-2.818,0.69-4.935,2.07-6.342
						c1.38-1.412,3.195-2.115,5.443-2.115c2.283,0,4.132,0.698,5.547,2.09c1.413,1.395,2.12,3.519,2.12,6.368v54.277
						c0,2.85-0.715,4.979-2.146,6.392c-1.43,1.409-3.271,2.113-5.521,2.113c-2.282,0-4.105-0.712-5.469-2.137
						c-1.362-1.427-2.043-3.548-2.043-6.368v-23.168H34.466v23.166c0,2.852-0.716,4.981-2.147,6.39
						c-1.43,1.412-3.27,2.114-5.52,2.114c-2.284,0-4.106-0.712-5.468-2.138c-1.364-1.424-2.045-3.548-2.045-6.366V86.742
						c0-2.818,0.673-4.935,2.02-6.342c1.345-1.412,3.177-2.115,5.494-2.115c2.282,0,4.132,0.698,5.546,2.09
						C33.759,81.77,34.466,83.893,34.466,86.742z M149.977,123.442c0,3.823-0.647,7.348-1.942,10.574
						c-1.295,3.228-3.168,5.999-5.622,8.316c-2.454,2.32-5.384,4.098-8.792,5.334c-3.407,1.239-7.24,1.856-11.5,1.856
						c-4.226,0-8.025-0.628-11.398-1.879c-3.373-1.251-6.295-3.047-8.765-5.38c-2.471-2.333-4.345-5.091-5.623-8.272
						c-1.277-3.178-1.916-6.693-1.916-10.55c0-3.882,0.646-7.439,1.942-10.667c1.294-3.227,3.152-5.981,5.571-8.27
						c2.42-2.285,5.349-4.049,8.792-5.287c3.441-1.238,7.239-1.855,11.397-1.855c4.225,0,8.059,0.626,11.5,1.878
						s6.389,3.038,8.842,5.355c2.453,2.321,4.319,5.077,5.597,8.272C149.338,116.067,149.977,119.589,149.977,123.442z
						 M135.973,123.442c0-5.231-1.251-9.304-3.757-12.215c-2.503-2.916-5.869-4.371-10.095-4.371c-2.726,0-5.127,0.651-7.207,1.952
						c-2.078,1.299-3.68,3.218-4.804,5.756c-1.124,2.536-1.687,5.498-1.687,8.88c0,3.354,0.553,6.282,1.661,8.79
						c1.107,2.506,2.691,4.424,4.754,5.756c2.061,1.332,4.489,1.997,7.282,1.997c4.224,0,7.59-1.464,10.094-4.393
						C134.722,132.663,135.973,128.612,135.973,123.442z M160.966,141.723V86.086c0-2.569,0.622-4.511,1.866-5.828
						c1.243-1.316,2.921-1.974,5.034-1.974c2.113,0,3.816,0.651,5.111,1.95c1.294,1.299,1.941,3.249,1.941,5.851v55.637
						c0,2.601-0.656,4.552-1.968,5.85c-1.313,1.301-3.007,1.955-5.084,1.955c-2.044,0-3.706-0.679-4.983-2.021
						C161.606,146.155,160.966,144.23,160.966,141.723z M238.247,140.548l-3.578-8.646h-30.462l-3.578,8.836
						c-1.396,3.446-2.589,5.771-3.578,6.977c-0.987,1.206-2.604,1.81-4.853,1.81c-1.909,0-3.597-0.642-5.06-1.927
						c-1.466-1.284-2.199-2.74-2.199-4.37c0-0.94,0.172-1.911,0.512-2.913c0.339-1.005,0.901-2.399,1.688-4.183l19.166-44.736
						c0.545-1.284,1.201-2.827,1.966-4.628c0.767-1.801,1.587-3.296,2.456-4.487c0.869-1.191,2.01-2.154,3.425-2.89
						c1.415-0.735,3.16-1.104,5.238-1.104c2.114,0,3.875,0.369,5.291,1.104c1.412,0.736,2.554,1.686,3.422,2.842
						c0.871,1.16,1.604,2.405,2.2,3.736c0.597,1.332,1.353,3.109,2.274,5.333l19.577,44.454c1.534,3.385,2.301,5.843,2.301,7.375
						c0,1.599-0.725,3.063-2.173,4.395c-1.449,1.331-3.193,1.997-5.239,1.997c-1.192,0-2.214-0.194-3.067-0.588
						c-0.852-0.392-1.565-0.921-2.144-1.596c-0.581-0.672-1.203-1.707-1.866-3.102C239.293,142.844,238.724,141.613,238.247,140.548
						z M208.193,121.422h22.386l-11.296-28.431L208.193,121.422z M313.533,140.548l-3.578-8.646h-30.462l-3.578,8.836
						c-1.396,3.446-2.588,5.771-3.577,6.977c-0.987,1.206-2.606,1.81-4.855,1.81c-1.904,0-3.595-0.642-5.061-1.927
						c-1.467-1.284-2.197-2.74-2.197-4.37c0-0.94,0.172-1.911,0.511-2.913c0.341-1.005,0.902-2.399,1.687-4.183l19.166-44.736
						c0.547-1.284,1.201-2.827,1.969-4.628c0.767-1.801,1.584-3.296,2.453-4.487c0.872-1.191,2.01-2.154,3.43-2.89
						c1.41-0.735,3.156-1.104,5.234-1.104c2.116,0,3.876,0.369,5.289,1.104c1.415,0.736,2.555,1.686,3.426,2.842
						c0.868,1.16,1.604,2.405,2.198,3.736c0.596,1.332,1.354,3.109,2.275,5.333l19.576,44.454c1.533,3.385,2.3,5.843,2.3,7.375
						c0,1.599-0.724,3.063-2.173,4.395c-1.447,1.331-3.192,1.997-5.236,1.997c-1.195,0-2.214-0.194-3.067-0.588
						c-0.852-0.392-1.568-0.921-2.148-1.596c-0.576-0.672-1.199-1.707-1.862-3.102C314.58,142.844,314.01,141.613,313.533,140.548z
						 M283.478,121.422h22.388l-11.293-28.431L283.478,121.422z"/>
				</defs>
				<clipPath id="SVGID_40_">
					<use xlink:href="#SVGID_39_"  overflow="visible"/>
				</clipPath>
				<ellipse clip-path="url(#SVGID_40_)" fill="#FFFFFF" cx="149.174" cy="45.564" rx="0.998" ry="1.185"/>
			</g>
		</g>
	</g>
	
		<radialGradient id="SVGID_41_" cx="-942.2979" cy="723.1743" r="1.7178" gradientTransform="matrix(0 7.9061 96.8605 0 -69866.7188 7671.9614)" gradientUnits="userSpaceOnUse">
		<stop  offset="0.0876" style="stop-color:#032237"/>
		<stop  offset="0.3505" style="stop-color:#032237"/>
		<stop  offset="0.6495" style="stop-color:#032237;stop-opacity:0.5"/>
		<stop  offset="0.8351" style="stop-color:#032237;stop-opacity:0.7964"/>
		<stop  offset="1" style="stop-color:#032237;stop-opacity:0"/>
	</radialGradient>
	<ellipse fill="url(#SVGID_41_)" fill-opacity="0.1" cx="180.336" cy="222.062" rx="166.404" ry="13.583"/>
</g>
<linearGradient id="eXzeciATjta4_1_" gradientUnits="userSpaceOnUse" x1="-67.8438" y1="237.562" x2="-3.4496" y2="187.516" gradientTransform="matrix(1.1449 0.5724 0.5724 -1.1449 293.6121 489.8054)">
	<stop  offset="0.0397" style="stop-color:#06BED8"/>
	<stop  offset="1" style="stop-color:#DEFA8E"/>
</linearGradient>
<path id="eXzeciATjta4" fill="url(#eXzeciATjta4_1_)" d="M347.087,161.591c16.411,14.716,21.632,15.503,22.472,22.295
	c0.098,0.779,0.59,4.762-1.727,8.402c-1.847,2.9-4.729,4.408-6.32,4.91c-9.666,3.049-23.734-13.627-29.781-27.196
	c-1.318-2.958-4.857-10.896-1.895-13.796c1.214-1.188,3.109-1.132,4.461-1.074C340.271,155.39,344.611,159.373,347.087,161.591z"/>
<linearGradient id="eXzeciATjta5_1_" gradientUnits="userSpaceOnUse" x1="16.2417" y1="412.23" x2="26.847" y2="413.7764" gradientTransform="matrix(1.28 0 0 -1.28 373.74 564.3394)">
	<stop  offset="0.0397" style="stop-color:#06CFF1"/>
	<stop  offset="1" style="stop-color:#678FF8"/>
</linearGradient>
<path id="eXzeciATjta5" fill="url(#eXzeciATjta5_1_)" d="M406.012,20.495h-4.523v29.692h4.523V20.495z"/>
<linearGradient id="eXzeciATjta6_1_" gradientUnits="userSpaceOnUse" x1="13.5371" y1="385.3042" x2="32.3556" y2="406.5511" gradientTransform="matrix(1.28 0 0 -1.28 373.74 564.3394)">
	<stop  offset="0.0397" style="stop-color:#06CFF1"/>
	<stop  offset="1" style="stop-color:#7288F9"/>
</linearGradient>
<path id="eXzeciATjta6" fill="url(#eXzeciATjta6_1_)" d="M419.373,66.589h-31.248c-2.304,0-4.172-1.868-4.172-4.172V51.249
	c0-2.304,1.867-4.172,4.172-4.172h31.248c2.305,0,4.173,1.868,4.173,4.172v11.168C423.546,64.721,421.678,66.589,419.373,66.589z"/>
<linearGradient id="eXzeciATjta7_1_" gradientUnits="userSpaceOnUse" x1="-13.7207" y1="311.7065" x2="60.8512" y2="386.2784" gradientTransform="matrix(1.28 0 0 -1.28 373.74 564.3394)">
	<stop  offset="0.0397" style="stop-color:#06CFF1"/>
	<stop  offset="1" style="stop-color:#7784F9"/>
</linearGradient>
<path id="eXzeciATjta7" fill="url(#eXzeciATjta7_1_)" d="M474.586,131.489c0,18.037-14.623,32.661-32.66,32.661h-76.352
	c-17.965,0-32.662-14.699-32.662-32.661v-16.968c0-31.962,26.15-58.112,58.112-58.112h25.451c31.96,0,58.111,26.15,58.111,58.112
	L474.586,131.489L474.586,131.489z"/>
<linearGradient id="eXzeciATjta8_1_" gradientUnits="userSpaceOnUse" x1="23.248" y1="339.5981" x2="23.9111" y2="369.4233" gradientTransform="matrix(1.28 0 0 -1.28 373.74 564.3394)">
	<stop  offset="0" style="stop-color:#030D14"/>
	<stop  offset="1" style="stop-color:#0B2F45"/>
</linearGradient>
<path id="eXzeciATjta8" fill="url(#eXzeciATjta8_1_)" d="M452.303,128.394c-1.854,0.917-3.933,1.396-6.043,1.396h-85.021
	c-2.111,0-4.188-0.479-6.043-1.396c-4.553-2.25-7.124-6.794-6.48-11.459l0.048-0.338c2.178-15.793,16.481-27.935,34.017-28.847
	c7.418-0.386,15.205-0.586,23.326-0.539c6.363,0.037,12.512,0.224,18.432,0.529c17.604,0.906,32.012,13.001,34.197,28.853
	c0.017,0.115,0.031,0.229,0.048,0.342C459.426,121.599,456.855,126.144,452.303,128.394z"/>
<radialGradient id="eXzeciATjta9_1_" cx="-375.4063" cy="675.8843" r="0.4011" gradientTransform="matrix(39.5785 0 0 -39.5785 15239.3652 26860.7461)" gradientUnits="userSpaceOnUse">
	<stop  offset="0.1296" style="stop-color:#3280FC"/>
	<stop  offset="1" style="stop-color:#000000"/>
</radialGradient>
<path id="eXzeciATjta9" fill="url(#eXzeciATjta9_1_)" d="M381.342,126.31c8.854,0,16.031-7.178,16.031-16.031
	s-7.178-16.03-16.031-16.03s-16.031,7.177-16.031,16.03S372.488,126.31,381.342,126.31z"/>
<path id="eXzeciATjta10" fill="#EEFDFF" d="M381.342,121.787c6.355,0,11.508-5.152,11.508-11.508
	c0-6.354-5.152-11.507-11.508-11.507s-11.508,5.152-11.508,11.507C369.834,116.634,374.986,121.787,381.342,121.787z"/>
<linearGradient id="eXzeciATjta11_1_" gradientUnits="userSpaceOnUse" x1="-1.6118" y1="354.7339" x2="13.4883" y2="354.7339" gradientTransform="matrix(1.28 0 0 -1.28 373.74 564.3394)">
	<stop  offset="0" style="stop-color:#030D14"/>
	<stop  offset="1" style="stop-color:#0B2F45"/>
</linearGradient>
<path id="eXzeciATjta11" fill="url(#eXzeciATjta11_1_)" d="M381.342,119.944c5.338,0,9.664-4.327,9.664-9.665
	s-4.326-9.664-9.664-9.664s-9.664,4.326-9.664,9.664S376.004,119.944,381.342,119.944z"/>
<path id="eXzeciATjta12" fill="#EEFDFF" d="M383.953,111.354c1.979,0,3.58-1.603,3.58-3.579c0-1.979-1.602-3.58-3.58-3.58
	c-1.977,0-3.579,1.602-3.579,3.58C380.374,109.751,381.977,111.354,383.953,111.354z"/>
<path id="eXzeciATjta13" fill="#EEFDFF" d="M379.914,119.119c0.789,0,1.429-0.64,1.429-1.429c0-0.788-0.64-1.429-1.429-1.429
	s-1.429,0.641-1.429,1.429C378.485,118.479,379.125,119.119,379.914,119.119z"/>
<path id="eXzeciATjta14" fill="#EEFDFF" d="M375.656,116.261c0.395,0,0.714-0.319,0.714-0.715c0-0.393-0.319-0.713-0.714-0.713
	s-0.715,0.32-0.715,0.713C374.941,115.942,375.262,116.261,375.656,116.261z"/>
<radialGradient id="eXzeciATjta15_1_" cx="-377.041" cy="675.8843" r="0.4007" gradientTransform="matrix(39.5785 0 0 -39.5785 15347.3965 26860.7461)" gradientUnits="userSpaceOnUse">
	<stop  offset="0.1296" style="stop-color:#3280FC"/>
	<stop  offset="1" style="stop-color:#000000"/>
</radialGradient>
<path id="eXzeciATjta15" fill="url(#eXzeciATjta15_1_)" d="M424.651,126.312c8.854,0,16.032-7.179,16.032-16.033
	c0-8.854-7.178-16.031-16.032-16.031s-16.032,7.178-16.032,16.031C408.619,119.133,415.797,126.312,424.651,126.312z"/>
<path id="eXzeciATjta16" fill="#EEFDFF" d="M424.651,121.786c6.354,0,11.507-5.151,11.507-11.507
	c0-6.354-5.152-11.506-11.507-11.506s-11.507,5.151-11.507,11.506C413.145,116.634,418.297,121.786,424.651,121.786z"/>
<linearGradient id="eXzeciATjta17_1_" gradientUnits="userSpaceOnUse" x1="32.2231" y1="354.7339" x2="47.3247" y2="354.7339" gradientTransform="matrix(1.28 0 0 -1.28 373.74 564.3394)">
	<stop  offset="0" style="stop-color:#030D14"/>
	<stop  offset="1" style="stop-color:#0B2F45"/>
</linearGradient>
<path id="eXzeciATjta17" fill="url(#eXzeciATjta17_1_)" d="M424.651,119.944c5.337,0,9.665-4.327,9.665-9.665
	s-4.328-9.664-9.665-9.664s-9.665,4.326-9.665,9.664S419.314,119.944,424.651,119.944z"/>
<path id="eXzeciATjta18" fill="#EEFDFF" d="M427.264,111.354c1.977,0,3.58-1.603,3.58-3.579c0-1.979-1.604-3.58-3.58-3.58
	s-3.58,1.602-3.58,3.58C423.684,109.751,425.287,111.354,427.264,111.354z"/>
<path id="eXzeciATjta19" fill="#EEFDFF" d="M423.224,119.119c0.788,0,1.428-0.64,1.428-1.429c0-0.788-0.64-1.427-1.428-1.427
	s-1.428,0.639-1.428,1.427C421.796,118.479,422.436,119.119,423.224,119.119z"/>
<path id="eXzeciATjta20" fill="#EEFDFF" d="M418.967,116.261c0.395,0,0.714-0.319,0.714-0.715c0-0.393-0.319-0.713-0.714-0.713
	s-0.715,0.32-0.715,0.713C418.252,115.942,418.572,116.261,418.967,116.261z"/>
<linearGradient id="eXzeciATjta21_1_" gradientUnits="userSpaceOnUse" x1="13.9141" y1="425.0356" x2="27.9448" y2="427.0818" gradientTransform="matrix(1.28 0 0 -1.28 373.74 564.3394)">
	<stop  offset="0.0397" style="stop-color:#06CFF1"/>
	<stop  offset="1" style="stop-color:#7387F9"/>
</linearGradient>
<path id="eXzeciATjta21" fill="url(#eXzeciATjta21_1_)" d="M403.75,24.312c3.201,0,5.796-2.595,5.796-5.797
	c0-3.201-2.595-5.796-5.796-5.796c-3.202,0-5.797,2.595-5.797,5.796C397.953,21.717,400.548,24.312,403.75,24.312z"/>
<path id="eXzeciATjta22" fill="#FFFFFF" d="M406.012,18.021c0.977,0,1.768-0.791,1.768-1.768s-0.791-1.768-1.768-1.768
	c-0.976,0-1.768,0.791-1.768,1.768S405.036,18.021,406.012,18.021z"/>
<path id="eXzeciATjta23" fill="#FFFFFF" d="M453.664,74.997c0.078,2.706-2.132,5.943-4.662,6.22
	c-2.373,0.259-4.267-2.164-6.221-4.664c-1.925-2.463-6.137-8.792-4.459-10.582C440.533,63.61,453.483,68.612,453.664,74.997z"/>
<path id="eXzeciATjta24" fill="#FFFFFF" d="M431.996,64.68c1.112,0,2.014-0.901,2.014-2.014c0-1.113-0.901-2.015-2.014-2.015
	c-1.113,0-2.016,0.901-2.016,2.015C429.98,63.778,430.883,64.68,431.996,64.68z"/>
<path id="eXzeciATjta25" fill="#FFFFFF" d="M453.379,112.54c-0.647,0.456-5.153-8.725-17.251-16.684
	c-4.252-2.798-8.449-4.792-8.2-5.373c0.252-0.589,4.981,0.506,8.767,2.262C448.754,98.34,454.146,111.998,453.379,112.54z"/>
<path id="eXzeciATjta26" fill="#FFFFFF" d="M422.399,52.853c-0.144,0.021-0.236-0.827-0.942-2.136c0,0-0.328-0.612-0.706-1.131
	c-1.214-1.672-5.332-1.635-5.655-1.632c-6.412,0.057-10.535-0.351-10.533-0.312c0,0.034,3.008-0.029,5.211-0.074
	c6.217-0.127,9.92-0.46,11.508,1.205c0.66,0.691,0.99,1.591,0.99,1.591C422.721,51.585,422.571,52.828,422.399,52.853z"/>
<path id="eXzeciATjta27" fill="#EEFDFF" d="M421.066,136.671c-0.156,1.536-1.436,2.718-2.973,2.867l-21.236,2.047
	c-1.537,0.148-3.019-0.768-3.465-2.244c-0.2-0.656-0.354-1.335-0.457-2.03c-0.029-0.193,0.021-0.389,0.142-0.542
	c0.12-0.152,0.298-0.25,0.491-0.27l26.793-2.583c0.191-0.019,0.381,0.042,0.525,0.167c0.145,0.127,0.23,0.307,0.239,0.498
	C421.158,135.289,421.137,135.986,421.066,136.671z"/>
<linearGradient id="eXzeciATjta28_1_" gradientUnits="userSpaceOnUse" x1="22.9927" y1="328.0142" x2="44.5854" y2="349.6069" gradientTransform="matrix(1.28 0 0 -1.28 373.74 564.3394)">
	<stop  offset="0.0714" style="stop-color:#0DA9AB"/>
	<stop  offset="1" style="stop-color:#DEFA8E"/>
</linearGradient>
<path id="eXzeciATjta28" fill="url(#eXzeciATjta28_1_)" d="M421.068,136.672c-0.68,6.583-5.914,11.995-12.752,12.648
	c-6.744,0.653-12.835-3.529-14.836-9.722c0.533,1.324,1.926,2.129,3.375,1.984l21.243-2.045
	C419.633,139.386,420.906,138.208,421.068,136.672z"/>
<linearGradient id="eXzeciATjta29_1_" gradientUnits="userSpaceOnUse" x1="2.6006" y1="262.4937" x2="59.8068" y2="329.2958" gradientTransform="matrix(1.28 0 0 -1.28 373.74 564.3394)">
	<stop  offset="0.0397" style="stop-color:#06CFF1"/>
	<stop  offset="0.0408" style="stop-color:#06CFF1"/>
	<stop  offset="0.1607" style="stop-color:#37D9DB"/>
	<stop  offset="0.2745" style="stop-color:#5DE0CA"/>
	<stop  offset="0.3793" style="stop-color:#78E6BD"/>
	<stop  offset="0.4719" style="stop-color:#88E9B6"/>
	<stop  offset="0.5423" style="stop-color:#8EEAB3"/>
	<stop  offset="0.8004" style="stop-color:#B9F39F"/>
	<stop  offset="1" style="stop-color:#DEFA8E"/>
</linearGradient>
<path id="eXzeciATjta29" fill="url(#eXzeciATjta29_1_)" d="M454.528,184.371c0,0.195,0,0.382-0.01,0.56
	c-0.067,1.782-0.482,3.122-0.687,3.725c-5.846,17.857-9.35,27.274-14.261,34.892c-0.849,1.314-1.739,2.578-2.698,3.818
	c-1.255,1.654-2.629,3.266-4.156,4.929c-3.394,3.69-8.525,5.362-10.18,5.938c-6.049,2.139-11.394,1.748-14.949,1.782h-0.619
	c-3.563-0.034-8.898,0.356-14.947-1.782c-1.654-0.576-6.795-2.248-10.18-5.938c-9.332-10.154-12.92-18.597-21.116-43.639
	c-0.194-0.577-0.585-1.824-0.678-3.495c-0.024-0.482-0.034-0.968-0.009-1.451c0.178-2.994,1.392-5.929,3.547-8.609
	c3.69-4.599,9.391-7.119,15.287-7.143l28.412-0.119l27.893-0.111c6.023-0.024,11.859,2.504,15.686,7.16
	c1.85,2.256,3.029,4.691,3.462,7.203c0.059,0.356,0.11,0.721,0.144,1.077C454.502,183.563,454.528,183.962,454.528,184.371z"/>
<linearGradient id="eXzeciATjta30_1_" gradientUnits="userSpaceOnUse" x1="-0.4312" y1="295.7964" x2="33.9717" y2="335.9698" gradientTransform="matrix(1.28 0 0 -1.28 373.74 564.3394)">
	<stop  offset="0.0397" style="stop-color:#06CFF1"/>
	<stop  offset="1" style="stop-color:#DEFA8E"/>
</linearGradient>
<path id="eXzeciATjta30" fill="url(#eXzeciATjta30_1_)" d="M407.279,167.839l-28.412,0.119c-5.896,0.025-11.598,2.545-15.287,7.143
	c-2.156,2.681-3.368,5.615-3.547,8.61c0.145-3.071,1.407-6.083,3.656-8.823c3.818-4.658,9.662-7.186,15.686-7.16L407.279,167.839z"
	/>
<linearGradient id="eXzeciATjta31_1_" gradientUnits="userSpaceOnUse" x1="73.4868" y1="272.4683" x2="30.6541" y2="303.7957" gradientTransform="matrix(1.28 0 0 -1.28 373.74 564.3394)">
	<stop  offset="0.0397" style="stop-color:#06CFF1"/>
	<stop  offset="0.0734" style="stop-color:#0FD1ED"/>
	<stop  offset="0.4151" style="stop-color:#1ED4E6"/>
	<stop  offset="0.6937" style="stop-color:#3EABF5"/>
	<stop  offset="0.8955" style="stop-color:#49A3F6"/>
	<stop  offset="1" style="stop-color:#5D97F1"/>
</linearGradient>
<path id="eXzeciATjta31" fill="url(#eXzeciATjta31_1_)" d="M435.517,209.696c-0.414-22.038-3.397-26.396,1.001-31.64
	c0.506-0.6,3.085-3.676,7.328-4.461c3.381-0.625,6.449,0.457,7.9,1.279c8.818,4.996,6.202,26.656,0.393,40.328
	c-1.266,2.982-4.664,10.979-8.805,10.789c-1.697-0.078-2.948-1.506-3.826-2.533C435.622,218.91,435.579,213.019,435.517,209.696z"/>
<linearGradient id="eXzeciATjta32_1_" gradientUnits="userSpaceOnUse" x1="35.7393" y1="275.5063" x2="66.0954" y2="291.3254" gradientTransform="matrix(1.28 0 0 -1.28 373.74 564.3394)">
	<stop  offset="0.0397" style="stop-color:#06BED8"/>
	<stop  offset="1" style="stop-color:#DEFA8E"/>
</linearGradient>
<path id="eXzeciATjta32" fill="url(#eXzeciATjta32_1_)" d="M439.57,223.548c-0.848,1.314-1.738,2.578-2.697,3.816
	c-0.305-0.313-0.576-0.627-0.824-0.916c-3.885-4.548-3.928-10.435-3.984-13.759c-0.418-22.04-3.404-26.393,0.999-31.636
	c0.323-0.39,1.502-1.79,3.419-2.952c-4.344,5.227-1.383,9.62-0.967,31.593c0.059,3.326,0.109,9.213,3.986,13.769
	C439.527,223.488,439.555,223.513,439.57,223.548z"/>
<path id="eXzeciATjta33" fill="#FFFFFF" d="M452.008,191.344c-0.125-2.368-0.569-4.108-1.458-7.593
	c-1.161-4.558-2.618-6.779-1.673-7.658c0.615-0.572,1.83-0.186,2.104-0.098c4.165,1.328,5.455,9.143,5.276,14.034
	c-0.111,2.993-0.841,6.343-1.938,6.489c-0.173,0.023-0.604,0.002-0.911-0.271C452.185,195.167,452.103,193.145,452.008,191.344z"/>
<path id="eXzeciATjta34" fill="#FFFFFF" d="M454.003,200.566c0.478,0,0.864-0.387,0.864-0.864s-0.387-0.864-0.864-0.864
	s-0.864,0.387-0.864,0.864S453.525,200.566,454.003,200.566z"/>
</svg>
