<?xml version="1.0" encoding="utf-8"?>
<!-- Generator: Adobe Illustrator 16.0.0, SVG Export Plug-In . SVG Version: 6.00 Build 0)  -->
<!DOCTYPE svg PUBLIC "-//W3C//DTD SVG 1.1//EN" "http://www.w3.org/Graphics/SVG/1.1/DTD/svg11.dtd">
<svg version="1.1" id="Ñëîé_5" xmlns="http://www.w3.org/2000/svg" xmlns:xlink="http://www.w3.org/1999/xlink" x="0px" y="0px"
	 width="410px" height="194.667px" viewBox="0 0 410 194.667" enable-background="new 0 0 410 194.667" xml:space="preserve">
<g>
	<ellipse fill="#032237" cx="199.325" cy="87.015" rx="191.008" ry="72.179"/>
	<g>
		<g>
			<defs>
				<path id="SVGID_1_" d="M62.686,64.747v16.227H94.65V64.747c0-2.318,0.673-4.057,2.02-5.216c1.347-1.159,3.117-1.738,5.311-1.738
					c2.227,0,4.031,0.573,5.411,1.719c1.379,1.146,2.069,2.892,2.069,5.235v44.624c0,2.342-0.698,4.094-2.094,5.254
					s-3.191,1.738-5.386,1.738c-2.227,0-4.006-0.586-5.336-1.758s-1.994-2.917-1.994-5.234V90.323H62.686v19.045
					c0,2.344-0.698,4.096-2.094,5.254c-1.396,1.16-3.191,1.739-5.386,1.739c-2.228,0-4.006-0.586-5.335-1.758
					c-1.33-1.172-1.995-2.917-1.995-5.235V64.747c0-2.318,0.656-4.057,1.97-5.216c1.313-1.159,3.099-1.738,5.36-1.738
					c2.227,0,4.031,0.573,5.411,1.719C61.996,60.658,62.686,62.404,62.686,64.747z M175.382,94.92c0,3.143-0.632,6.041-1.895,8.693
					c-1.264,2.653-3.092,4.932-5.485,6.838c-2.394,1.907-5.253,3.368-8.577,4.385c-3.325,1.018-7.064,1.526-11.22,1.526
					c-4.123,0-7.829-0.516-11.12-1.545c-3.291-1.028-6.142-2.504-8.552-4.423c-2.411-1.919-4.239-4.186-5.485-6.801
					c-1.246-2.613-1.87-5.504-1.87-8.673c0-3.193,0.631-6.117,1.895-8.77c1.263-2.653,3.075-4.919,5.436-6.8
					c2.36-1.879,5.218-3.329,8.577-4.346c3.357-1.017,7.063-1.526,11.12-1.526c4.122,0,7.862,0.515,11.22,1.545
					c3.357,1.03,6.233,2.498,8.626,4.404c2.393,1.907,4.214,4.173,5.46,6.8C174.759,88.855,175.382,91.752,175.382,94.92z
					 M161.719,94.92c0-4.301-1.221-7.649-3.665-10.044c-2.443-2.396-5.727-3.593-9.849-3.593c-2.66,0-5.003,0.535-7.031,1.604
					c-2.028,1.069-3.59,2.646-4.687,4.732c-1.097,2.086-1.646,4.521-1.646,7.302c0,2.757,0.54,5.165,1.62,7.225
					c1.08,2.063,2.626,3.639,4.638,4.732c2.011,1.096,4.38,1.643,7.105,1.643c4.122,0,7.406-1.204,9.849-3.611
					C160.498,102.5,161.719,99.169,161.719,94.92z M186.103,109.949V64.207c0-2.112,0.606-3.709,1.82-4.791
					c1.213-1.082,2.85-1.623,4.912-1.623c2.061,0,3.723,0.535,4.986,1.603c1.263,1.069,1.895,2.672,1.895,4.811v45.742
					c0,2.139-0.641,3.742-1.92,4.811c-1.281,1.068-2.934,1.604-4.961,1.604c-1.995,0-3.616-0.555-4.862-1.66
					C186.727,113.593,186.103,112.009,186.103,109.949z M261.5,108.983l-3.49-7.108h-29.719l-3.491,7.264
					c-1.362,2.833-2.526,4.746-3.491,5.736c-0.963,0.992-2.541,1.488-4.736,1.488c-1.861,0-3.508-0.527-4.936-1.584
					c-1.431-1.056-2.146-2.253-2.146-3.593c0-0.772,0.167-1.571,0.499-2.396s0.88-1.971,1.646-3.438l18.7-36.78
					c0.531-1.056,1.172-2.324,1.919-3.805c0.748-1.481,1.547-2.711,2.396-3.689c0.847-0.979,1.961-1.771,3.341-2.376
					c1.379-0.605,3.083-0.908,5.11-0.908c2.062,0,3.781,0.303,5.162,0.908c1.379,0.605,2.491,1.385,3.34,2.337
					c0.848,0.953,1.563,1.977,2.145,3.071c0.582,1.095,1.32,2.557,2.219,4.385l19.1,36.547c1.496,2.783,2.244,4.805,2.244,6.066
					c0,1.313-0.707,2.518-2.119,3.612c-1.414,1.094-3.116,1.642-5.111,1.642c-1.164,0-2.161-0.16-2.992-0.482
					c-0.831-0.323-1.529-0.76-2.094-1.313s-1.173-1.403-1.82-2.55C262.521,110.871,261.965,109.859,261.5,108.983z M232.18,93.259
					h21.84L243,69.885L232.18,93.259z M334.952,108.983l-3.49-7.108h-29.72l-3.491,7.264c-1.362,2.833-2.526,4.746-3.49,5.736
					c-0.964,0.992-2.542,1.488-4.737,1.488c-1.86,0-3.508-0.527-4.937-1.584c-1.431-1.056-2.144-2.253-2.144-3.593
					c0-0.772,0.166-1.571,0.498-2.396s0.881-1.971,1.646-3.438l18.699-36.78c0.532-1.056,1.172-2.324,1.92-3.805
					s1.546-2.711,2.394-3.689c0.849-0.979,1.961-1.771,3.343-2.376c1.379-0.605,3.082-0.908,5.109-0.908
					c2.063,0,3.782,0.303,5.161,0.908s2.493,1.385,3.342,2.337c0.848,0.953,1.563,1.977,2.145,3.071
					c0.581,1.095,1.32,2.557,2.219,4.385l19.099,36.547c1.496,2.783,2.244,4.805,2.244,6.066c0,1.313-0.706,2.518-2.119,3.612
					c-1.413,1.094-3.115,1.642-5.11,1.642c-1.164,0-2.161-0.16-2.992-0.482c-0.831-0.323-1.529-0.76-2.095-1.313
					c-0.564-0.554-1.172-1.403-1.819-2.55C335.974,110.871,335.417,109.859,334.952,108.983z M305.63,93.259h21.842l-11.02-23.374
					L305.63,93.259z"/>
			</defs>
			<clipPath id="SVGID_2_">
				<use xlink:href="#SVGID_1_"  overflow="visible"/>
			</clipPath>
			<rect x="-25.887" y="-42.653" clip-path="url(#SVGID_2_)" fill="#F4FFEB" width="457" height="402"/>
		</g>
		<g>
			<defs>
				<path id="SVGID_3_" d="M62.686,64.747v16.227H94.65V64.747c0-2.318,0.673-4.057,2.02-5.216c1.347-1.159,3.117-1.738,5.311-1.738
					c2.227,0,4.031,0.573,5.411,1.719c1.379,1.146,2.069,2.892,2.069,5.235v44.624c0,2.342-0.698,4.094-2.094,5.254
					s-3.191,1.738-5.386,1.738c-2.227,0-4.006-0.586-5.336-1.758s-1.994-2.917-1.994-5.234V90.323H62.686v19.045
					c0,2.344-0.698,4.096-2.094,5.254c-1.396,1.16-3.191,1.739-5.386,1.739c-2.228,0-4.006-0.586-5.335-1.758
					c-1.33-1.172-1.995-2.917-1.995-5.235V64.747c0-2.318,0.656-4.057,1.97-5.216c1.313-1.159,3.099-1.738,5.36-1.738
					c2.227,0,4.031,0.573,5.411,1.719C61.996,60.658,62.686,62.404,62.686,64.747z M175.382,94.92c0,3.143-0.632,6.041-1.895,8.693
					c-1.264,2.653-3.092,4.932-5.485,6.838c-2.394,1.907-5.253,3.368-8.577,4.385c-3.325,1.018-7.064,1.526-11.22,1.526
					c-4.123,0-7.829-0.516-11.12-1.545c-3.291-1.028-6.142-2.504-8.552-4.423c-2.411-1.919-4.239-4.186-5.485-6.801
					c-1.246-2.613-1.87-5.504-1.87-8.673c0-3.193,0.631-6.117,1.895-8.77c1.263-2.653,3.075-4.919,5.436-6.8
					c2.36-1.879,5.218-3.329,8.577-4.346c3.357-1.017,7.063-1.526,11.12-1.526c4.122,0,7.862,0.515,11.22,1.545
					c3.357,1.03,6.233,2.498,8.626,4.404c2.393,1.907,4.214,4.173,5.46,6.8C174.759,88.855,175.382,91.752,175.382,94.92z
					 M161.719,94.92c0-4.301-1.221-7.649-3.665-10.044c-2.443-2.396-5.727-3.593-9.849-3.593c-2.66,0-5.003,0.535-7.031,1.604
					c-2.028,1.069-3.59,2.646-4.687,4.732c-1.097,2.086-1.646,4.521-1.646,7.302c0,2.757,0.54,5.165,1.62,7.225
					c1.08,2.063,2.626,3.639,4.638,4.732c2.011,1.096,4.38,1.643,7.105,1.643c4.122,0,7.406-1.204,9.849-3.611
					C160.498,102.5,161.719,99.169,161.719,94.92z M186.103,109.949V64.207c0-2.112,0.606-3.709,1.82-4.791
					c1.213-1.082,2.85-1.623,4.912-1.623c2.061,0,3.723,0.535,4.986,1.603c1.263,1.069,1.895,2.672,1.895,4.811v45.742
					c0,2.139-0.641,3.742-1.92,4.811c-1.281,1.068-2.934,1.604-4.961,1.604c-1.995,0-3.616-0.555-4.862-1.66
					C186.727,113.593,186.103,112.009,186.103,109.949z M261.5,108.983l-3.49-7.108h-29.719l-3.491,7.264
					c-1.362,2.833-2.526,4.746-3.491,5.736c-0.963,0.992-2.541,1.488-4.736,1.488c-1.861,0-3.508-0.527-4.936-1.584
					c-1.431-1.056-2.146-2.253-2.146-3.593c0-0.772,0.167-1.571,0.499-2.396s0.88-1.971,1.646-3.438l18.7-36.78
					c0.531-1.056,1.172-2.324,1.919-3.805c0.748-1.481,1.547-2.711,2.396-3.689c0.847-0.979,1.961-1.771,3.341-2.376
					c1.379-0.605,3.083-0.908,5.11-0.908c2.062,0,3.781,0.303,5.162,0.908c1.379,0.605,2.491,1.385,3.34,2.337
					c0.848,0.953,1.563,1.977,2.145,3.071c0.582,1.095,1.32,2.557,2.219,4.385l19.1,36.547c1.496,2.783,2.244,4.805,2.244,6.066
					c0,1.313-0.707,2.518-2.119,3.612c-1.414,1.094-3.116,1.642-5.111,1.642c-1.164,0-2.161-0.16-2.992-0.482
					c-0.831-0.323-1.529-0.76-2.094-1.313s-1.173-1.403-1.82-2.55C262.521,110.871,261.965,109.859,261.5,108.983z M232.18,93.259
					h21.84L243,69.885L232.18,93.259z M334.952,108.983l-3.49-7.108h-29.72l-3.491,7.264c-1.362,2.833-2.526,4.746-3.49,5.736
					c-0.964,0.992-2.542,1.488-4.737,1.488c-1.86,0-3.508-0.527-4.937-1.584c-1.431-1.056-2.144-2.253-2.144-3.593
					c0-0.772,0.166-1.571,0.498-2.396s0.881-1.971,1.646-3.438l18.699-36.78c0.532-1.056,1.172-2.324,1.92-3.805
					s1.546-2.711,2.394-3.689c0.849-0.979,1.961-1.771,3.343-2.376c1.379-0.605,3.082-0.908,5.109-0.908
					c2.063,0,3.782,0.303,5.161,0.908s2.493,1.385,3.342,2.337c0.848,0.953,1.563,1.977,2.145,3.071
					c0.581,1.095,1.32,2.557,2.219,4.385l19.099,36.547c1.496,2.783,2.244,4.805,2.244,6.066c0,1.313-0.706,2.518-2.119,3.612
					c-1.413,1.094-3.115,1.642-5.11,1.642c-1.164,0-2.161-0.16-2.992-0.482c-0.831-0.323-1.529-0.76-2.095-1.313
					c-0.564-0.554-1.172-1.403-1.819-2.55C335.974,110.871,335.417,109.859,334.952,108.983z M305.63,93.259h21.842l-11.02-23.374
					L305.63,93.259z"/>
			</defs>
			<clipPath id="SVGID_4_">
				<use xlink:href="#SVGID_3_"  overflow="visible"/>
			</clipPath>
			
				<linearGradient id="SVGID_5_" gradientUnits="userSpaceOnUse" x1="0.0386" y1="373.3247" x2="13.8804" y2="375.3433" gradientTransform="matrix(1 0 0 -1 270 375.667)">
				<stop  offset="0.0397" style="stop-color:#06CFF1"/>
				<stop  offset="1" style="stop-color:#DEFA8E"/>
			</linearGradient>
			<rect x="277.134" y="-14.17" clip-path="url(#SVGID_4_)" fill="url(#SVGID_5_)" width="4.613" height="30.281"/>
		</g>
		<g>
			<defs>
				<path id="SVGID_6_" d="M62.686,64.747v16.227H94.65V64.747c0-2.318,0.673-4.057,2.02-5.216c1.347-1.159,3.117-1.738,5.311-1.738
					c2.227,0,4.031,0.573,5.411,1.719c1.379,1.146,2.069,2.892,2.069,5.235v44.624c0,2.342-0.698,4.094-2.094,5.254
					s-3.191,1.738-5.386,1.738c-2.227,0-4.006-0.586-5.336-1.758s-1.994-2.917-1.994-5.234V90.323H62.686v19.045
					c0,2.344-0.698,4.096-2.094,5.254c-1.396,1.16-3.191,1.739-5.386,1.739c-2.228,0-4.006-0.586-5.335-1.758
					c-1.33-1.172-1.995-2.917-1.995-5.235V64.747c0-2.318,0.656-4.057,1.97-5.216c1.313-1.159,3.099-1.738,5.36-1.738
					c2.227,0,4.031,0.573,5.411,1.719C61.996,60.658,62.686,62.404,62.686,64.747z M175.382,94.92c0,3.143-0.632,6.041-1.895,8.693
					c-1.264,2.653-3.092,4.932-5.485,6.838c-2.394,1.907-5.253,3.368-8.577,4.385c-3.325,1.018-7.064,1.526-11.22,1.526
					c-4.123,0-7.829-0.516-11.12-1.545c-3.291-1.028-6.142-2.504-8.552-4.423c-2.411-1.919-4.239-4.186-5.485-6.801
					c-1.246-2.613-1.87-5.504-1.87-8.673c0-3.193,0.631-6.117,1.895-8.77c1.263-2.653,3.075-4.919,5.436-6.8
					c2.36-1.879,5.218-3.329,8.577-4.346c3.357-1.017,7.063-1.526,11.12-1.526c4.122,0,7.862,0.515,11.22,1.545
					c3.357,1.03,6.233,2.498,8.626,4.404c2.393,1.907,4.214,4.173,5.46,6.8C174.759,88.855,175.382,91.752,175.382,94.92z
					 M161.719,94.92c0-4.301-1.221-7.649-3.665-10.044c-2.443-2.396-5.727-3.593-9.849-3.593c-2.66,0-5.003,0.535-7.031,1.604
					c-2.028,1.069-3.59,2.646-4.687,4.732c-1.097,2.086-1.646,4.521-1.646,7.302c0,2.757,0.54,5.165,1.62,7.225
					c1.08,2.063,2.626,3.639,4.638,4.732c2.011,1.096,4.38,1.643,7.105,1.643c4.122,0,7.406-1.204,9.849-3.611
					C160.498,102.5,161.719,99.169,161.719,94.92z M186.103,109.949V64.207c0-2.112,0.606-3.709,1.82-4.791
					c1.213-1.082,2.85-1.623,4.912-1.623c2.061,0,3.723,0.535,4.986,1.603c1.263,1.069,1.895,2.672,1.895,4.811v45.742
					c0,2.139-0.641,3.742-1.92,4.811c-1.281,1.068-2.934,1.604-4.961,1.604c-1.995,0-3.616-0.555-4.862-1.66
					C186.727,113.593,186.103,112.009,186.103,109.949z M261.5,108.983l-3.49-7.108h-29.719l-3.491,7.264
					c-1.362,2.833-2.526,4.746-3.491,5.736c-0.963,0.992-2.541,1.488-4.736,1.488c-1.861,0-3.508-0.527-4.936-1.584
					c-1.431-1.056-2.146-2.253-2.146-3.593c0-0.772,0.167-1.571,0.499-2.396s0.88-1.971,1.646-3.438l18.7-36.78
					c0.531-1.056,1.172-2.324,1.919-3.805c0.748-1.481,1.547-2.711,2.396-3.689c0.847-0.979,1.961-1.771,3.341-2.376
					c1.379-0.605,3.083-0.908,5.11-0.908c2.062,0,3.781,0.303,5.162,0.908c1.379,0.605,2.491,1.385,3.34,2.337
					c0.848,0.953,1.563,1.977,2.145,3.071c0.582,1.095,1.32,2.557,2.219,4.385l19.1,36.547c1.496,2.783,2.244,4.805,2.244,6.066
					c0,1.313-0.707,2.518-2.119,3.612c-1.414,1.094-3.116,1.642-5.111,1.642c-1.164,0-2.161-0.16-2.992-0.482
					c-0.831-0.323-1.529-0.76-2.094-1.313s-1.173-1.403-1.82-2.55C262.521,110.871,261.965,109.859,261.5,108.983z M232.18,93.259
					h21.84L243,69.885L232.18,93.259z M334.952,108.983l-3.49-7.108h-29.72l-3.491,7.264c-1.362,2.833-2.526,4.746-3.49,5.736
					c-0.964,0.992-2.542,1.488-4.737,1.488c-1.86,0-3.508-0.527-4.937-1.584c-1.431-1.056-2.144-2.253-2.144-3.593
					c0-0.772,0.166-1.571,0.498-2.396s0.881-1.971,1.646-3.438l18.699-36.78c0.532-1.056,1.172-2.324,1.92-3.805
					s1.546-2.711,2.394-3.689c0.849-0.979,1.961-1.771,3.343-2.376c1.379-0.605,3.082-0.908,5.109-0.908
					c2.063,0,3.782,0.303,5.161,0.908s2.493,1.385,3.342,2.337c0.848,0.953,1.563,1.977,2.145,3.071
					c0.581,1.095,1.32,2.557,2.219,4.385l19.099,36.547c1.496,2.783,2.244,4.805,2.244,6.066c0,1.313-0.706,2.518-2.119,3.612
					c-1.413,1.094-3.115,1.642-5.11,1.642c-1.164,0-2.161-0.16-2.992-0.482c-0.831-0.323-1.529-0.76-2.095-1.313
					c-0.564-0.554-1.172-1.403-1.819-2.55C335.974,110.871,335.417,109.859,334.952,108.983z M305.63,93.259h21.842l-11.02-23.374
					L305.63,93.259z"/>
			</defs>
			<clipPath id="SVGID_7_">
				<use xlink:href="#SVGID_6_"  overflow="visible"/>
			</clipPath>
			
				<linearGradient id="SVGID_8_" gradientUnits="userSpaceOnUse" x1="-3.4951" y1="338.1743" x2="21.0719" y2="365.9113" gradientTransform="matrix(1 0 0 -1 270 375.667)">
				<stop  offset="0.0397" style="stop-color:#06CFF1"/>
				<stop  offset="1" style="stop-color:#DEFA8E"/>
			</linearGradient>
			<path clip-path="url(#SVGID_7_)" fill="url(#SVGID_8_)" d="M295.375,32.838h-31.869c-2.35,0-4.255-1.904-4.255-4.254v-11.39
				c0-2.35,1.905-4.255,4.255-4.255h31.869c2.352,0,4.254,1.905,4.254,4.255v11.39C299.629,30.934,297.727,32.838,295.375,32.838z"
				/>
		</g>
		<g>
			<defs>
				<path id="SVGID_9_" d="M62.686,64.747v16.227H94.65V64.747c0-2.318,0.673-4.057,2.02-5.216c1.347-1.159,3.117-1.738,5.311-1.738
					c2.227,0,4.031,0.573,5.411,1.719c1.379,1.146,2.069,2.892,2.069,5.235v44.624c0,2.342-0.698,4.094-2.094,5.254
					s-3.191,1.738-5.386,1.738c-2.227,0-4.006-0.586-5.336-1.758s-1.994-2.917-1.994-5.234V90.323H62.686v19.045
					c0,2.344-0.698,4.096-2.094,5.254c-1.396,1.16-3.191,1.739-5.386,1.739c-2.228,0-4.006-0.586-5.335-1.758
					c-1.33-1.172-1.995-2.917-1.995-5.235V64.747c0-2.318,0.656-4.057,1.97-5.216c1.313-1.159,3.099-1.738,5.36-1.738
					c2.227,0,4.031,0.573,5.411,1.719C61.996,60.658,62.686,62.404,62.686,64.747z M175.382,94.92c0,3.143-0.632,6.041-1.895,8.693
					c-1.264,2.653-3.092,4.932-5.485,6.838c-2.394,1.907-5.253,3.368-8.577,4.385c-3.325,1.018-7.064,1.526-11.22,1.526
					c-4.123,0-7.829-0.516-11.12-1.545c-3.291-1.028-6.142-2.504-8.552-4.423c-2.411-1.919-4.239-4.186-5.485-6.801
					c-1.246-2.613-1.87-5.504-1.87-8.673c0-3.193,0.631-6.117,1.895-8.77c1.263-2.653,3.075-4.919,5.436-6.8
					c2.36-1.879,5.218-3.329,8.577-4.346c3.357-1.017,7.063-1.526,11.12-1.526c4.122,0,7.862,0.515,11.22,1.545
					c3.357,1.03,6.233,2.498,8.626,4.404c2.393,1.907,4.214,4.173,5.46,6.8C174.759,88.855,175.382,91.752,175.382,94.92z
					 M161.719,94.92c0-4.301-1.221-7.649-3.665-10.044c-2.443-2.396-5.727-3.593-9.849-3.593c-2.66,0-5.003,0.535-7.031,1.604
					c-2.028,1.069-3.59,2.646-4.687,4.732c-1.097,2.086-1.646,4.521-1.646,7.302c0,2.757,0.54,5.165,1.62,7.225
					c1.08,2.063,2.626,3.639,4.638,4.732c2.011,1.096,4.38,1.643,7.105,1.643c4.122,0,7.406-1.204,9.849-3.611
					C160.498,102.5,161.719,99.169,161.719,94.92z M186.103,109.949V64.207c0-2.112,0.606-3.709,1.82-4.791
					c1.213-1.082,2.85-1.623,4.912-1.623c2.061,0,3.723,0.535,4.986,1.603c1.263,1.069,1.895,2.672,1.895,4.811v45.742
					c0,2.139-0.641,3.742-1.92,4.811c-1.281,1.068-2.934,1.604-4.961,1.604c-1.995,0-3.616-0.555-4.862-1.66
					C186.727,113.593,186.103,112.009,186.103,109.949z M261.5,108.983l-3.49-7.108h-29.719l-3.491,7.264
					c-1.362,2.833-2.526,4.746-3.491,5.736c-0.963,0.992-2.541,1.488-4.736,1.488c-1.861,0-3.508-0.527-4.936-1.584
					c-1.431-1.056-2.146-2.253-2.146-3.593c0-0.772,0.167-1.571,0.499-2.396s0.88-1.971,1.646-3.438l18.7-36.78
					c0.531-1.056,1.172-2.324,1.919-3.805c0.748-1.481,1.547-2.711,2.396-3.689c0.847-0.979,1.961-1.771,3.341-2.376
					c1.379-0.605,3.083-0.908,5.11-0.908c2.062,0,3.781,0.303,5.162,0.908c1.379,0.605,2.491,1.385,3.34,2.337
					c0.848,0.953,1.563,1.977,2.145,3.071c0.582,1.095,1.32,2.557,2.219,4.385l19.1,36.547c1.496,2.783,2.244,4.805,2.244,6.066
					c0,1.313-0.707,2.518-2.119,3.612c-1.414,1.094-3.116,1.642-5.111,1.642c-1.164,0-2.161-0.16-2.992-0.482
					c-0.831-0.323-1.529-0.76-2.094-1.313s-1.173-1.403-1.82-2.55C262.521,110.871,261.965,109.859,261.5,108.983z M232.18,93.259
					h21.84L243,69.885L232.18,93.259z M334.952,108.983l-3.49-7.108h-29.72l-3.491,7.264c-1.362,2.833-2.526,4.746-3.49,5.736
					c-0.964,0.992-2.542,1.488-4.737,1.488c-1.86,0-3.508-0.527-4.937-1.584c-1.431-1.056-2.144-2.253-2.144-3.593
					c0-0.772,0.166-1.571,0.498-2.396s0.881-1.971,1.646-3.438l18.699-36.78c0.532-1.056,1.172-2.324,1.92-3.805
					s1.546-2.711,2.394-3.689c0.849-0.979,1.961-1.771,3.343-2.376c1.379-0.605,3.082-0.908,5.109-0.908
					c2.063,0,3.782,0.303,5.161,0.908s2.493,1.385,3.342,2.337c0.848,0.953,1.563,1.977,2.145,3.071
					c0.581,1.095,1.32,2.557,2.219,4.385l19.099,36.547c1.496,2.783,2.244,4.805,2.244,6.066c0,1.313-0.706,2.518-2.119,3.612
					c-1.413,1.094-3.115,1.642-5.11,1.642c-1.164,0-2.161-0.16-2.992-0.482c-0.831-0.323-1.529-0.76-2.095-1.313
					c-0.564-0.554-1.172-1.403-1.819-2.55C335.974,110.871,335.417,109.859,334.952,108.983z M305.63,93.259h21.842l-11.02-23.374
					L305.63,93.259z"/>
			</defs>
			<clipPath id="SVGID_10_">
				<use xlink:href="#SVGID_9_"  overflow="visible"/>
			</clipPath>
			
				<linearGradient id="SVGID_11_" gradientUnits="userSpaceOnUse" x1="-39.0771" y1="242.1011" x2="58.2706" y2="339.4489" gradientTransform="matrix(1 0 0 -1 270 375.667)">
				<stop  offset="0.0397" style="stop-color:#06CFF1"/>
				<stop  offset="1" style="stop-color:#DEFA8E"/>
			</linearGradient>
			<path clip-path="url(#SVGID_10_)" fill="url(#SVGID_11_)" d="M351.683,99.026c0,18.396-14.911,33.31-33.309,33.31h-77.868
				c-18.318,0-33.309-14.989-33.309-33.31V81.721c0-32.596,26.669-59.266,59.266-59.266h25.956
				c32.594,0,59.264,26.669,59.264,59.266V99.026z"/>
		</g>
		<g>
			<defs>
				<path id="SVGID_12_" d="M62.686,64.747v16.227H94.65V64.747c0-2.318,0.673-4.057,2.02-5.216
					c1.347-1.159,3.117-1.738,5.311-1.738c2.227,0,4.031,0.573,5.411,1.719c1.379,1.146,2.069,2.892,2.069,5.235v44.624
					c0,2.342-0.698,4.094-2.094,5.254s-3.191,1.738-5.386,1.738c-2.227,0-4.006-0.586-5.336-1.758s-1.994-2.917-1.994-5.234V90.323
					H62.686v19.045c0,2.344-0.698,4.096-2.094,5.254c-1.396,1.16-3.191,1.739-5.386,1.739c-2.228,0-4.006-0.586-5.335-1.758
					c-1.33-1.172-1.995-2.917-1.995-5.235V64.747c0-2.318,0.656-4.057,1.97-5.216c1.313-1.159,3.099-1.738,5.36-1.738
					c2.227,0,4.031,0.573,5.411,1.719C61.996,60.658,62.686,62.404,62.686,64.747z M175.382,94.92c0,3.143-0.632,6.041-1.895,8.693
					c-1.264,2.653-3.092,4.932-5.485,6.838c-2.394,1.907-5.253,3.368-8.577,4.385c-3.325,1.018-7.064,1.526-11.22,1.526
					c-4.123,0-7.829-0.516-11.12-1.545c-3.291-1.028-6.142-2.504-8.552-4.423c-2.411-1.919-4.239-4.186-5.485-6.801
					c-1.246-2.613-1.87-5.504-1.87-8.673c0-3.193,0.631-6.117,1.895-8.77c1.263-2.653,3.075-4.919,5.436-6.8
					c2.36-1.879,5.218-3.329,8.577-4.346c3.357-1.017,7.063-1.526,11.12-1.526c4.122,0,7.862,0.515,11.22,1.545
					c3.357,1.03,6.233,2.498,8.626,4.404c2.393,1.907,4.214,4.173,5.46,6.8C174.759,88.855,175.382,91.752,175.382,94.92z
					 M161.719,94.92c0-4.301-1.221-7.649-3.665-10.044c-2.443-2.396-5.727-3.593-9.849-3.593c-2.66,0-5.003,0.535-7.031,1.604
					c-2.028,1.069-3.59,2.646-4.687,4.732c-1.097,2.086-1.646,4.521-1.646,7.302c0,2.757,0.54,5.165,1.62,7.225
					c1.08,2.063,2.626,3.639,4.638,4.732c2.011,1.096,4.38,1.643,7.105,1.643c4.122,0,7.406-1.204,9.849-3.611
					C160.498,102.5,161.719,99.169,161.719,94.92z M186.103,109.949V64.207c0-2.112,0.606-3.709,1.82-4.791
					c1.213-1.082,2.85-1.623,4.912-1.623c2.061,0,3.723,0.535,4.986,1.603c1.263,1.069,1.895,2.672,1.895,4.811v45.742
					c0,2.139-0.641,3.742-1.92,4.811c-1.281,1.068-2.934,1.604-4.961,1.604c-1.995,0-3.616-0.555-4.862-1.66
					C186.727,113.593,186.103,112.009,186.103,109.949z M261.5,108.983l-3.49-7.108h-29.719l-3.491,7.264
					c-1.362,2.833-2.526,4.746-3.491,5.736c-0.963,0.992-2.541,1.488-4.736,1.488c-1.861,0-3.508-0.527-4.936-1.584
					c-1.431-1.056-2.146-2.253-2.146-3.593c0-0.772,0.167-1.571,0.499-2.396s0.88-1.971,1.646-3.438l18.7-36.78
					c0.531-1.056,1.172-2.324,1.919-3.805c0.748-1.481,1.547-2.711,2.396-3.689c0.847-0.979,1.961-1.771,3.341-2.376
					c1.379-0.605,3.083-0.908,5.11-0.908c2.062,0,3.781,0.303,5.162,0.908c1.379,0.605,2.491,1.385,3.34,2.337
					c0.848,0.953,1.563,1.977,2.145,3.071c0.582,1.095,1.32,2.557,2.219,4.385l19.1,36.547c1.496,2.783,2.244,4.805,2.244,6.066
					c0,1.313-0.707,2.518-2.119,3.612c-1.414,1.094-3.116,1.642-5.111,1.642c-1.164,0-2.161-0.16-2.992-0.482
					c-0.831-0.323-1.529-0.76-2.094-1.313s-1.173-1.403-1.82-2.55C262.521,110.871,261.965,109.859,261.5,108.983z M232.18,93.259
					h21.84L243,69.885L232.18,93.259z M334.952,108.983l-3.49-7.108h-29.72l-3.491,7.264c-1.362,2.833-2.526,4.746-3.49,5.736
					c-0.964,0.992-2.542,1.488-4.737,1.488c-1.86,0-3.508-0.527-4.937-1.584c-1.431-1.056-2.144-2.253-2.144-3.593
					c0-0.772,0.166-1.571,0.498-2.396s0.881-1.971,1.646-3.438l18.699-36.78c0.532-1.056,1.172-2.324,1.92-3.805
					s1.546-2.711,2.394-3.689c0.849-0.979,1.961-1.771,3.343-2.376c1.379-0.605,3.082-0.908,5.109-0.908
					c2.063,0,3.782,0.303,5.161,0.908s2.493,1.385,3.342,2.337c0.848,0.953,1.563,1.977,2.145,3.071
					c0.581,1.095,1.32,2.557,2.219,4.385l19.099,36.547c1.496,2.783,2.244,4.805,2.244,6.066c0,1.313-0.706,2.518-2.119,3.612
					c-1.413,1.094-3.115,1.642-5.11,1.642c-1.164,0-2.161-0.16-2.992-0.482c-0.831-0.323-1.529-0.76-2.095-1.313
					c-0.564-0.554-1.172-1.403-1.819-2.55C335.974,110.871,335.417,109.859,334.952,108.983z M305.63,93.259h21.842l-11.02-23.374
					L305.63,93.259z"/>
			</defs>
			<clipPath id="SVGID_13_">
				<use xlink:href="#SVGID_12_"  overflow="visible"/>
			</clipPath>
			
				<linearGradient id="SVGID_14_" gradientUnits="userSpaceOnUse" x1="9.1846" y1="278.5103" x2="10.0497" y2="317.4437" gradientTransform="matrix(1 0 0 -1 270 375.667)">
				<stop  offset="0" style="stop-color:#030D14"/>
				<stop  offset="1" style="stop-color:#0B2F45"/>
			</linearGradient>
			<path clip-path="url(#SVGID_13_)" fill="url(#SVGID_14_)" d="M328.958,95.871L328.958,95.871c-1.89,0.935-4.01,1.424-6.163,1.424
				h-86.707c-2.152,0-4.273-0.489-6.163-1.424l0,0c-4.644-2.295-7.265-6.93-6.61-11.686l0.047-0.346
				c2.223-16.107,16.811-28.49,34.693-29.419c7.565-0.394,15.508-0.597,23.789-0.548c6.489,0.037,12.762,0.227,18.799,0.539
				c17.95,0.925,32.646,13.26,34.875,29.426c0.018,0.117,0.032,0.233,0.05,0.349C336.222,88.94,333.601,93.576,328.958,95.871z"/>
		</g>
		<g>
			<defs>
				<path id="SVGID_15_" d="M62.686,64.747v16.227H94.65V64.747c0-2.318,0.673-4.057,2.02-5.216
					c1.347-1.159,3.117-1.738,5.311-1.738c2.227,0,4.031,0.573,5.411,1.719c1.379,1.146,2.069,2.892,2.069,5.235v44.624
					c0,2.342-0.698,4.094-2.094,5.254s-3.191,1.738-5.386,1.738c-2.227,0-4.006-0.586-5.336-1.758s-1.994-2.917-1.994-5.234V90.323
					H62.686v19.045c0,2.344-0.698,4.096-2.094,5.254c-1.396,1.16-3.191,1.739-5.386,1.739c-2.228,0-4.006-0.586-5.335-1.758
					c-1.33-1.172-1.995-2.917-1.995-5.235V64.747c0-2.318,0.656-4.057,1.97-5.216c1.313-1.159,3.099-1.738,5.36-1.738
					c2.227,0,4.031,0.573,5.411,1.719C61.996,60.658,62.686,62.404,62.686,64.747z M175.382,94.92c0,3.143-0.632,6.041-1.895,8.693
					c-1.264,2.653-3.092,4.932-5.485,6.838c-2.394,1.907-5.253,3.368-8.577,4.385c-3.325,1.018-7.064,1.526-11.22,1.526
					c-4.123,0-7.829-0.516-11.12-1.545c-3.291-1.028-6.142-2.504-8.552-4.423c-2.411-1.919-4.239-4.186-5.485-6.801
					c-1.246-2.613-1.87-5.504-1.87-8.673c0-3.193,0.631-6.117,1.895-8.77c1.263-2.653,3.075-4.919,5.436-6.8
					c2.36-1.879,5.218-3.329,8.577-4.346c3.357-1.017,7.063-1.526,11.12-1.526c4.122,0,7.862,0.515,11.22,1.545
					c3.357,1.03,6.233,2.498,8.626,4.404c2.393,1.907,4.214,4.173,5.46,6.8C174.759,88.855,175.382,91.752,175.382,94.92z
					 M161.719,94.92c0-4.301-1.221-7.649-3.665-10.044c-2.443-2.396-5.727-3.593-9.849-3.593c-2.66,0-5.003,0.535-7.031,1.604
					c-2.028,1.069-3.59,2.646-4.687,4.732c-1.097,2.086-1.646,4.521-1.646,7.302c0,2.757,0.54,5.165,1.62,7.225
					c1.08,2.063,2.626,3.639,4.638,4.732c2.011,1.096,4.38,1.643,7.105,1.643c4.122,0,7.406-1.204,9.849-3.611
					C160.498,102.5,161.719,99.169,161.719,94.92z M186.103,109.949V64.207c0-2.112,0.606-3.709,1.82-4.791
					c1.213-1.082,2.85-1.623,4.912-1.623c2.061,0,3.723,0.535,4.986,1.603c1.263,1.069,1.895,2.672,1.895,4.811v45.742
					c0,2.139-0.641,3.742-1.92,4.811c-1.281,1.068-2.934,1.604-4.961,1.604c-1.995,0-3.616-0.555-4.862-1.66
					C186.727,113.593,186.103,112.009,186.103,109.949z M261.5,108.983l-3.49-7.108h-29.719l-3.491,7.264
					c-1.362,2.833-2.526,4.746-3.491,5.736c-0.963,0.992-2.541,1.488-4.736,1.488c-1.861,0-3.508-0.527-4.936-1.584
					c-1.431-1.056-2.146-2.253-2.146-3.593c0-0.772,0.167-1.571,0.499-2.396s0.88-1.971,1.646-3.438l18.7-36.78
					c0.531-1.056,1.172-2.324,1.919-3.805c0.748-1.481,1.547-2.711,2.396-3.689c0.847-0.979,1.961-1.771,3.341-2.376
					c1.379-0.605,3.083-0.908,5.11-0.908c2.062,0,3.781,0.303,5.162,0.908c1.379,0.605,2.491,1.385,3.34,2.337
					c0.848,0.953,1.563,1.977,2.145,3.071c0.582,1.095,1.32,2.557,2.219,4.385l19.1,36.547c1.496,2.783,2.244,4.805,2.244,6.066
					c0,1.313-0.707,2.518-2.119,3.612c-1.414,1.094-3.116,1.642-5.111,1.642c-1.164,0-2.161-0.16-2.992-0.482
					c-0.831-0.323-1.529-0.76-2.094-1.313s-1.173-1.403-1.82-2.55C262.521,110.871,261.965,109.859,261.5,108.983z M232.18,93.259
					h21.84L243,69.885L232.18,93.259z M334.952,108.983l-3.49-7.108h-29.72l-3.491,7.264c-1.362,2.833-2.526,4.746-3.49,5.736
					c-0.964,0.992-2.542,1.488-4.737,1.488c-1.86,0-3.508-0.527-4.937-1.584c-1.431-1.056-2.144-2.253-2.144-3.593
					c0-0.772,0.166-1.571,0.498-2.396s0.881-1.971,1.646-3.438l18.699-36.78c0.532-1.056,1.172-2.324,1.92-3.805
					s1.546-2.711,2.394-3.689c0.849-0.979,1.961-1.771,3.343-2.376c1.379-0.605,3.082-0.908,5.109-0.908
					c2.063,0,3.782,0.303,5.161,0.908s2.493,1.385,3.342,2.337c0.848,0.953,1.563,1.977,2.145,3.071
					c0.581,1.095,1.32,2.557,2.219,4.385l19.099,36.547c1.496,2.783,2.244,4.805,2.244,6.066c0,1.313-0.706,2.518-2.119,3.612
					c-1.413,1.094-3.115,1.642-5.11,1.642c-1.164,0-2.161-0.16-2.992-0.482c-0.831-0.323-1.529-0.76-2.095-1.313
					c-0.564-0.554-1.172-1.403-1.819-2.55C335.974,110.871,335.417,109.859,334.952,108.983z M305.63,93.259h21.842l-11.02-23.374
					L305.63,93.259z"/>
			</defs>
			<clipPath id="SVGID_16_">
				<use xlink:href="#SVGID_15_"  overflow="visible"/>
			</clipPath>
			<g clip-path="url(#SVGID_16_)">
				
					<radialGradient id="SVGID_17_" cx="-13.4121" cy="298.271" r="16.1808" gradientTransform="matrix(1 0 0 -1 270 375.667)" gradientUnits="userSpaceOnUse">
					<stop  offset="0.1296" style="stop-color:#3280FC"/>
					<stop  offset="1" style="stop-color:#000000"/>
				</radialGradient>
				<circle fill="url(#SVGID_17_)" cx="256.588" cy="77.396" r="16.35"/>
				<g>
					<circle fill="#EEFDFF" cx="256.588" cy="77.396" r="11.735"/>
				</g>
				<g>
					
						<linearGradient id="SVGID_18_" gradientUnits="userSpaceOnUse" x1="-23.2676" y1="298.271" x2="-3.5566" y2="298.271" gradientTransform="matrix(1 0 0 -1 270 375.667)">
						<stop  offset="0" style="stop-color:#030D14"/>
						<stop  offset="1" style="stop-color:#0B2F45"/>
					</linearGradient>
					<circle fill="url(#SVGID_18_)" cx="256.588" cy="77.396" r="9.856"/>
				</g>
				<g>
					<circle fill="#EEFDFF" cx="259.251" cy="74.841" r="3.652"/>
				</g>
				<g>
					<circle fill="#EEFDFF" cx="255.132" cy="84.954" r="1.457"/>
				</g>
				<g>
					<circle fill="#EEFDFF" cx="250.791" cy="82.768" r="0.728"/>
				</g>
			</g>
		</g>
		<g>
			<defs>
				<path id="SVGID_19_" d="M62.686,64.747v16.227H94.65V64.747c0-2.318,0.673-4.057,2.02-5.216
					c1.347-1.159,3.117-1.738,5.311-1.738c2.227,0,4.031,0.573,5.411,1.719c1.379,1.146,2.069,2.892,2.069,5.235v44.624
					c0,2.342-0.698,4.094-2.094,5.254s-3.191,1.738-5.386,1.738c-2.227,0-4.006-0.586-5.336-1.758s-1.994-2.917-1.994-5.234V90.323
					H62.686v19.045c0,2.344-0.698,4.096-2.094,5.254c-1.396,1.16-3.191,1.739-5.386,1.739c-2.228,0-4.006-0.586-5.335-1.758
					c-1.33-1.172-1.995-2.917-1.995-5.235V64.747c0-2.318,0.656-4.057,1.97-5.216c1.313-1.159,3.099-1.738,5.36-1.738
					c2.227,0,4.031,0.573,5.411,1.719C61.996,60.658,62.686,62.404,62.686,64.747z M175.382,94.92c0,3.143-0.632,6.041-1.895,8.693
					c-1.264,2.653-3.092,4.932-5.485,6.838c-2.394,1.907-5.253,3.368-8.577,4.385c-3.325,1.018-7.064,1.526-11.22,1.526
					c-4.123,0-7.829-0.516-11.12-1.545c-3.291-1.028-6.142-2.504-8.552-4.423c-2.411-1.919-4.239-4.186-5.485-6.801
					c-1.246-2.613-1.87-5.504-1.87-8.673c0-3.193,0.631-6.117,1.895-8.77c1.263-2.653,3.075-4.919,5.436-6.8
					c2.36-1.879,5.218-3.329,8.577-4.346c3.357-1.017,7.063-1.526,11.12-1.526c4.122,0,7.862,0.515,11.22,1.545
					c3.357,1.03,6.233,2.498,8.626,4.404c2.393,1.907,4.214,4.173,5.46,6.8C174.759,88.855,175.382,91.752,175.382,94.92z
					 M161.719,94.92c0-4.301-1.221-7.649-3.665-10.044c-2.443-2.396-5.727-3.593-9.849-3.593c-2.66,0-5.003,0.535-7.031,1.604
					c-2.028,1.069-3.59,2.646-4.687,4.732c-1.097,2.086-1.646,4.521-1.646,7.302c0,2.757,0.54,5.165,1.62,7.225
					c1.08,2.063,2.626,3.639,4.638,4.732c2.011,1.096,4.38,1.643,7.105,1.643c4.122,0,7.406-1.204,9.849-3.611
					C160.498,102.5,161.719,99.169,161.719,94.92z M186.103,109.949V64.207c0-2.112,0.606-3.709,1.82-4.791
					c1.213-1.082,2.85-1.623,4.912-1.623c2.061,0,3.723,0.535,4.986,1.603c1.263,1.069,1.895,2.672,1.895,4.811v45.742
					c0,2.139-0.641,3.742-1.92,4.811c-1.281,1.068-2.934,1.604-4.961,1.604c-1.995,0-3.616-0.555-4.862-1.66
					C186.727,113.593,186.103,112.009,186.103,109.949z M261.5,108.983l-3.49-7.108h-29.719l-3.491,7.264
					c-1.362,2.833-2.526,4.746-3.491,5.736c-0.963,0.992-2.541,1.488-4.736,1.488c-1.861,0-3.508-0.527-4.936-1.584
					c-1.431-1.056-2.146-2.253-2.146-3.593c0-0.772,0.167-1.571,0.499-2.396s0.88-1.971,1.646-3.438l18.7-36.78
					c0.531-1.056,1.172-2.324,1.919-3.805c0.748-1.481,1.547-2.711,2.396-3.689c0.847-0.979,1.961-1.771,3.341-2.376
					c1.379-0.605,3.083-0.908,5.11-0.908c2.062,0,3.781,0.303,5.162,0.908c1.379,0.605,2.491,1.385,3.34,2.337
					c0.848,0.953,1.563,1.977,2.145,3.071c0.582,1.095,1.32,2.557,2.219,4.385l19.1,36.547c1.496,2.783,2.244,4.805,2.244,6.066
					c0,1.313-0.707,2.518-2.119,3.612c-1.414,1.094-3.116,1.642-5.111,1.642c-1.164,0-2.161-0.16-2.992-0.482
					c-0.831-0.323-1.529-0.76-2.094-1.313s-1.173-1.403-1.82-2.55C262.521,110.871,261.965,109.859,261.5,108.983z M232.18,93.259
					h21.84L243,69.885L232.18,93.259z M334.952,108.983l-3.49-7.108h-29.72l-3.491,7.264c-1.362,2.833-2.526,4.746-3.49,5.736
					c-0.964,0.992-2.542,1.488-4.737,1.488c-1.86,0-3.508-0.527-4.937-1.584c-1.431-1.056-2.144-2.253-2.144-3.593
					c0-0.772,0.166-1.571,0.498-2.396s0.881-1.971,1.646-3.438l18.699-36.78c0.532-1.056,1.172-2.324,1.92-3.805
					s1.546-2.711,2.394-3.689c0.849-0.979,1.961-1.771,3.343-2.376c1.379-0.605,3.082-0.908,5.109-0.908
					c2.063,0,3.782,0.303,5.161,0.908s2.493,1.385,3.342,2.337c0.848,0.953,1.563,1.977,2.145,3.071
					c0.581,1.095,1.32,2.557,2.219,4.385l19.099,36.547c1.496,2.783,2.244,4.805,2.244,6.066c0,1.313-0.706,2.518-2.119,3.612
					c-1.413,1.094-3.115,1.642-5.11,1.642c-1.164,0-2.161-0.16-2.992-0.482c-0.831-0.323-1.529-0.76-2.095-1.313
					c-0.564-0.554-1.172-1.403-1.819-2.55C335.974,110.871,335.417,109.859,334.952,108.983z M305.63,93.259h21.842l-11.02-23.374
					L305.63,93.259z"/>
			</defs>
			<clipPath id="SVGID_20_">
				<use xlink:href="#SVGID_19_"  overflow="visible"/>
			</clipPath>
			<g clip-path="url(#SVGID_20_)">
				
					<radialGradient id="SVGID_21_" cx="30.7583" cy="298.271" r="16.1808" gradientTransform="matrix(1 0 0 -1 270 375.667)" gradientUnits="userSpaceOnUse">
					<stop  offset="0.1296" style="stop-color:#3280FC"/>
					<stop  offset="1" style="stop-color:#000000"/>
				</radialGradient>
				<circle fill="url(#SVGID_21_)" cx="300.758" cy="77.396" r="16.35"/>
				<g>
					<circle fill="#EEFDFF" cx="300.758" cy="77.396" r="11.735"/>
				</g>
				<g>
					
						<linearGradient id="SVGID_22_" gradientUnits="userSpaceOnUse" x1="20.9004" y1="298.271" x2="40.6152" y2="298.271" gradientTransform="matrix(1 0 0 -1 270 375.667)">
						<stop  offset="0" style="stop-color:#030D14"/>
						<stop  offset="1" style="stop-color:#0B2F45"/>
					</linearGradient>
					<circle fill="url(#SVGID_22_)" cx="300.758" cy="77.396" r="9.857"/>
				</g>
				<g>
					<circle fill="#EEFDFF" cx="303.421" cy="74.841" r="3.651"/>
				</g>
				<g>
					<circle fill="#EEFDFF" cx="299.301" cy="84.954" r="1.457"/>
				</g>
				<g>
					<circle fill="#EEFDFF" cx="294.96" cy="82.768" r="0.729"/>
				</g>
			</g>
		</g>
		<g>
			<defs>
				<path id="SVGID_23_" d="M62.686,64.747v16.227H94.65V64.747c0-2.318,0.673-4.057,2.02-5.216
					c1.347-1.159,3.117-1.738,5.311-1.738c2.227,0,4.031,0.573,5.411,1.719c1.379,1.146,2.069,2.892,2.069,5.235v44.624
					c0,2.342-0.698,4.094-2.094,5.254s-3.191,1.738-5.386,1.738c-2.227,0-4.006-0.586-5.336-1.758s-1.994-2.917-1.994-5.234V90.323
					H62.686v19.045c0,2.344-0.698,4.096-2.094,5.254c-1.396,1.16-3.191,1.739-5.386,1.739c-2.228,0-4.006-0.586-5.335-1.758
					c-1.33-1.172-1.995-2.917-1.995-5.235V64.747c0-2.318,0.656-4.057,1.97-5.216c1.313-1.159,3.099-1.738,5.36-1.738
					c2.227,0,4.031,0.573,5.411,1.719C61.996,60.658,62.686,62.404,62.686,64.747z M175.382,94.92c0,3.143-0.632,6.041-1.895,8.693
					c-1.264,2.653-3.092,4.932-5.485,6.838c-2.394,1.907-5.253,3.368-8.577,4.385c-3.325,1.018-7.064,1.526-11.22,1.526
					c-4.123,0-7.829-0.516-11.12-1.545c-3.291-1.028-6.142-2.504-8.552-4.423c-2.411-1.919-4.239-4.186-5.485-6.801
					c-1.246-2.613-1.87-5.504-1.87-8.673c0-3.193,0.631-6.117,1.895-8.77c1.263-2.653,3.075-4.919,5.436-6.8
					c2.36-1.879,5.218-3.329,8.577-4.346c3.357-1.017,7.063-1.526,11.12-1.526c4.122,0,7.862,0.515,11.22,1.545
					c3.357,1.03,6.233,2.498,8.626,4.404c2.393,1.907,4.214,4.173,5.46,6.8C174.759,88.855,175.382,91.752,175.382,94.92z
					 M161.719,94.92c0-4.301-1.221-7.649-3.665-10.044c-2.443-2.396-5.727-3.593-9.849-3.593c-2.66,0-5.003,0.535-7.031,1.604
					c-2.028,1.069-3.59,2.646-4.687,4.732c-1.097,2.086-1.646,4.521-1.646,7.302c0,2.757,0.54,5.165,1.62,7.225
					c1.08,2.063,2.626,3.639,4.638,4.732c2.011,1.096,4.38,1.643,7.105,1.643c4.122,0,7.406-1.204,9.849-3.611
					C160.498,102.5,161.719,99.169,161.719,94.92z M186.103,109.949V64.207c0-2.112,0.606-3.709,1.82-4.791
					c1.213-1.082,2.85-1.623,4.912-1.623c2.061,0,3.723,0.535,4.986,1.603c1.263,1.069,1.895,2.672,1.895,4.811v45.742
					c0,2.139-0.641,3.742-1.92,4.811c-1.281,1.068-2.934,1.604-4.961,1.604c-1.995,0-3.616-0.555-4.862-1.66
					C186.727,113.593,186.103,112.009,186.103,109.949z M261.5,108.983l-3.49-7.108h-29.719l-3.491,7.264
					c-1.362,2.833-2.526,4.746-3.491,5.736c-0.963,0.992-2.541,1.488-4.736,1.488c-1.861,0-3.508-0.527-4.936-1.584
					c-1.431-1.056-2.146-2.253-2.146-3.593c0-0.772,0.167-1.571,0.499-2.396s0.88-1.971,1.646-3.438l18.7-36.78
					c0.531-1.056,1.172-2.324,1.919-3.805c0.748-1.481,1.547-2.711,2.396-3.689c0.847-0.979,1.961-1.771,3.341-2.376
					c1.379-0.605,3.083-0.908,5.11-0.908c2.062,0,3.781,0.303,5.162,0.908c1.379,0.605,2.491,1.385,3.34,2.337
					c0.848,0.953,1.563,1.977,2.145,3.071c0.582,1.095,1.32,2.557,2.219,4.385l19.1,36.547c1.496,2.783,2.244,4.805,2.244,6.066
					c0,1.313-0.707,2.518-2.119,3.612c-1.414,1.094-3.116,1.642-5.111,1.642c-1.164,0-2.161-0.16-2.992-0.482
					c-0.831-0.323-1.529-0.76-2.094-1.313s-1.173-1.403-1.82-2.55C262.521,110.871,261.965,109.859,261.5,108.983z M232.18,93.259
					h21.84L243,69.885L232.18,93.259z M334.952,108.983l-3.49-7.108h-29.72l-3.491,7.264c-1.362,2.833-2.526,4.746-3.49,5.736
					c-0.964,0.992-2.542,1.488-4.737,1.488c-1.86,0-3.508-0.527-4.937-1.584c-1.431-1.056-2.144-2.253-2.144-3.593
					c0-0.772,0.166-1.571,0.498-2.396s0.881-1.971,1.646-3.438l18.699-36.78c0.532-1.056,1.172-2.324,1.92-3.805
					s1.546-2.711,2.394-3.689c0.849-0.979,1.961-1.771,3.343-2.376c1.379-0.605,3.082-0.908,5.109-0.908
					c2.063,0,3.782,0.303,5.161,0.908s2.493,1.385,3.342,2.337c0.848,0.953,1.563,1.977,2.145,3.071
					c0.581,1.095,1.32,2.557,2.219,4.385l19.099,36.547c1.496,2.783,2.244,4.805,2.244,6.066c0,1.313-0.706,2.518-2.119,3.612
					c-1.413,1.094-3.115,1.642-5.11,1.642c-1.164,0-2.161-0.16-2.992-0.482c-0.831-0.323-1.529-0.76-2.095-1.313
					c-0.564-0.554-1.172-1.403-1.819-2.55C335.974,110.871,335.417,109.859,334.952,108.983z M305.63,93.259h21.842l-11.02-23.374
					L305.63,93.259z"/>
			</defs>
			<clipPath id="SVGID_24_">
				<use xlink:href="#SVGID_23_"  overflow="visible"/>
			</clipPath>
			
				<linearGradient id="SVGID_25_" gradientUnits="userSpaceOnUse" x1="-3.0039" y1="390.0405" x2="15.3167" y2="392.7123" gradientTransform="matrix(1 0 0 -1 270 375.667)">
				<stop  offset="0.0397" style="stop-color:#06CFF1"/>
				<stop  offset="1" style="stop-color:#DEFA8E"/>
			</linearGradient>
			<circle clip-path="url(#SVGID_24_)" fill="url(#SVGID_25_)" cx="279.441" cy="-16.189" r="5.912"/>
		</g>
		<g>
			<defs>
				<path id="SVGID_26_" d="M62.686,64.747v16.227H94.65V64.747c0-2.318,0.673-4.057,2.02-5.216
					c1.347-1.159,3.117-1.738,5.311-1.738c2.227,0,4.031,0.573,5.411,1.719c1.379,1.146,2.069,2.892,2.069,5.235v44.624
					c0,2.342-0.698,4.094-2.094,5.254s-3.191,1.738-5.386,1.738c-2.227,0-4.006-0.586-5.336-1.758s-1.994-2.917-1.994-5.234V90.323
					H62.686v19.045c0,2.344-0.698,4.096-2.094,5.254c-1.396,1.16-3.191,1.739-5.386,1.739c-2.228,0-4.006-0.586-5.335-1.758
					c-1.33-1.172-1.995-2.917-1.995-5.235V64.747c0-2.318,0.656-4.057,1.97-5.216c1.313-1.159,3.099-1.738,5.36-1.738
					c2.227,0,4.031,0.573,5.411,1.719C61.996,60.658,62.686,62.404,62.686,64.747z M175.382,94.92c0,3.143-0.632,6.041-1.895,8.693
					c-1.264,2.653-3.092,4.932-5.485,6.838c-2.394,1.907-5.253,3.368-8.577,4.385c-3.325,1.018-7.064,1.526-11.22,1.526
					c-4.123,0-7.829-0.516-11.12-1.545c-3.291-1.028-6.142-2.504-8.552-4.423c-2.411-1.919-4.239-4.186-5.485-6.801
					c-1.246-2.613-1.87-5.504-1.87-8.673c0-3.193,0.631-6.117,1.895-8.77c1.263-2.653,3.075-4.919,5.436-6.8
					c2.36-1.879,5.218-3.329,8.577-4.346c3.357-1.017,7.063-1.526,11.12-1.526c4.122,0,7.862,0.515,11.22,1.545
					c3.357,1.03,6.233,2.498,8.626,4.404c2.393,1.907,4.214,4.173,5.46,6.8C174.759,88.855,175.382,91.752,175.382,94.92z
					 M161.719,94.92c0-4.301-1.221-7.649-3.665-10.044c-2.443-2.396-5.727-3.593-9.849-3.593c-2.66,0-5.003,0.535-7.031,1.604
					c-2.028,1.069-3.59,2.646-4.687,4.732c-1.097,2.086-1.646,4.521-1.646,7.302c0,2.757,0.54,5.165,1.62,7.225
					c1.08,2.063,2.626,3.639,4.638,4.732c2.011,1.096,4.38,1.643,7.105,1.643c4.122,0,7.406-1.204,9.849-3.611
					C160.498,102.5,161.719,99.169,161.719,94.92z M186.103,109.949V64.207c0-2.112,0.606-3.709,1.82-4.791
					c1.213-1.082,2.85-1.623,4.912-1.623c2.061,0,3.723,0.535,4.986,1.603c1.263,1.069,1.895,2.672,1.895,4.811v45.742
					c0,2.139-0.641,3.742-1.92,4.811c-1.281,1.068-2.934,1.604-4.961,1.604c-1.995,0-3.616-0.555-4.862-1.66
					C186.727,113.593,186.103,112.009,186.103,109.949z M261.5,108.983l-3.49-7.108h-29.719l-3.491,7.264
					c-1.362,2.833-2.526,4.746-3.491,5.736c-0.963,0.992-2.541,1.488-4.736,1.488c-1.861,0-3.508-0.527-4.936-1.584
					c-1.431-1.056-2.146-2.253-2.146-3.593c0-0.772,0.167-1.571,0.499-2.396s0.88-1.971,1.646-3.438l18.7-36.78
					c0.531-1.056,1.172-2.324,1.919-3.805c0.748-1.481,1.547-2.711,2.396-3.689c0.847-0.979,1.961-1.771,3.341-2.376
					c1.379-0.605,3.083-0.908,5.11-0.908c2.062,0,3.781,0.303,5.162,0.908c1.379,0.605,2.491,1.385,3.34,2.337
					c0.848,0.953,1.563,1.977,2.145,3.071c0.582,1.095,1.32,2.557,2.219,4.385l19.1,36.547c1.496,2.783,2.244,4.805,2.244,6.066
					c0,1.313-0.707,2.518-2.119,3.612c-1.414,1.094-3.116,1.642-5.111,1.642c-1.164,0-2.161-0.16-2.992-0.482
					c-0.831-0.323-1.529-0.76-2.094-1.313s-1.173-1.403-1.82-2.55C262.521,110.871,261.965,109.859,261.5,108.983z M232.18,93.259
					h21.84L243,69.885L232.18,93.259z M334.952,108.983l-3.49-7.108h-29.72l-3.491,7.264c-1.362,2.833-2.526,4.746-3.49,5.736
					c-0.964,0.992-2.542,1.488-4.737,1.488c-1.86,0-3.508-0.527-4.937-1.584c-1.431-1.056-2.144-2.253-2.144-3.593
					c0-0.772,0.166-1.571,0.498-2.396s0.881-1.971,1.646-3.438l18.699-36.78c0.532-1.056,1.172-2.324,1.92-3.805
					s1.546-2.711,2.394-3.689c0.849-0.979,1.961-1.771,3.343-2.376c1.379-0.605,3.082-0.908,5.109-0.908
					c2.063,0,3.782,0.303,5.161,0.908s2.493,1.385,3.342,2.337c0.848,0.953,1.563,1.977,2.145,3.071
					c0.581,1.095,1.32,2.557,2.219,4.385l19.099,36.547c1.496,2.783,2.244,4.805,2.244,6.066c0,1.313-0.706,2.518-2.119,3.612
					c-1.413,1.094-3.115,1.642-5.11,1.642c-1.164,0-2.161-0.16-2.992-0.482c-0.831-0.323-1.529-0.76-2.095-1.313
					c-0.564-0.554-1.172-1.403-1.819-2.55C335.974,110.871,335.417,109.859,334.952,108.983z M305.63,93.259h21.842l-11.02-23.374
					L305.63,93.259z"/>
			</defs>
			<clipPath id="SVGID_27_">
				<use xlink:href="#SVGID_26_"  overflow="visible"/>
			</clipPath>
			<circle clip-path="url(#SVGID_27_)" fill="#FFFFFF" cx="281.748" cy="-18.496" r="1.802"/>
		</g>
		<g>
			<defs>
				<path id="SVGID_28_" d="M62.686,64.747v16.227H94.65V64.747c0-2.318,0.673-4.057,2.02-5.216
					c1.347-1.159,3.117-1.738,5.311-1.738c2.227,0,4.031,0.573,5.411,1.719c1.379,1.146,2.069,2.892,2.069,5.235v44.624
					c0,2.342-0.698,4.094-2.094,5.254s-3.191,1.738-5.386,1.738c-2.227,0-4.006-0.586-5.336-1.758s-1.994-2.917-1.994-5.234V90.323
					H62.686v19.045c0,2.344-0.698,4.096-2.094,5.254c-1.396,1.16-3.191,1.739-5.386,1.739c-2.228,0-4.006-0.586-5.335-1.758
					c-1.33-1.172-1.995-2.917-1.995-5.235V64.747c0-2.318,0.656-4.057,1.97-5.216c1.313-1.159,3.099-1.738,5.36-1.738
					c2.227,0,4.031,0.573,5.411,1.719C61.996,60.658,62.686,62.404,62.686,64.747z M175.382,94.92c0,3.143-0.632,6.041-1.895,8.693
					c-1.264,2.653-3.092,4.932-5.485,6.838c-2.394,1.907-5.253,3.368-8.577,4.385c-3.325,1.018-7.064,1.526-11.22,1.526
					c-4.123,0-7.829-0.516-11.12-1.545c-3.291-1.028-6.142-2.504-8.552-4.423c-2.411-1.919-4.239-4.186-5.485-6.801
					c-1.246-2.613-1.87-5.504-1.87-8.673c0-3.193,0.631-6.117,1.895-8.77c1.263-2.653,3.075-4.919,5.436-6.8
					c2.36-1.879,5.218-3.329,8.577-4.346c3.357-1.017,7.063-1.526,11.12-1.526c4.122,0,7.862,0.515,11.22,1.545
					c3.357,1.03,6.233,2.498,8.626,4.404c2.393,1.907,4.214,4.173,5.46,6.8C174.759,88.855,175.382,91.752,175.382,94.92z
					 M161.719,94.92c0-4.301-1.221-7.649-3.665-10.044c-2.443-2.396-5.727-3.593-9.849-3.593c-2.66,0-5.003,0.535-7.031,1.604
					c-2.028,1.069-3.59,2.646-4.687,4.732c-1.097,2.086-1.646,4.521-1.646,7.302c0,2.757,0.54,5.165,1.62,7.225
					c1.08,2.063,2.626,3.639,4.638,4.732c2.011,1.096,4.38,1.643,7.105,1.643c4.122,0,7.406-1.204,9.849-3.611
					C160.498,102.5,161.719,99.169,161.719,94.92z M186.103,109.949V64.207c0-2.112,0.606-3.709,1.82-4.791
					c1.213-1.082,2.85-1.623,4.912-1.623c2.061,0,3.723,0.535,4.986,1.603c1.263,1.069,1.895,2.672,1.895,4.811v45.742
					c0,2.139-0.641,3.742-1.92,4.811c-1.281,1.068-2.934,1.604-4.961,1.604c-1.995,0-3.616-0.555-4.862-1.66
					C186.727,113.593,186.103,112.009,186.103,109.949z M261.5,108.983l-3.49-7.108h-29.719l-3.491,7.264
					c-1.362,2.833-2.526,4.746-3.491,5.736c-0.963,0.992-2.541,1.488-4.736,1.488c-1.861,0-3.508-0.527-4.936-1.584
					c-1.431-1.056-2.146-2.253-2.146-3.593c0-0.772,0.167-1.571,0.499-2.396s0.88-1.971,1.646-3.438l18.7-36.78
					c0.531-1.056,1.172-2.324,1.919-3.805c0.748-1.481,1.547-2.711,2.396-3.689c0.847-0.979,1.961-1.771,3.341-2.376
					c1.379-0.605,3.083-0.908,5.11-0.908c2.062,0,3.781,0.303,5.162,0.908c1.379,0.605,2.491,1.385,3.34,2.337
					c0.848,0.953,1.563,1.977,2.145,3.071c0.582,1.095,1.32,2.557,2.219,4.385l19.1,36.547c1.496,2.783,2.244,4.805,2.244,6.066
					c0,1.313-0.707,2.518-2.119,3.612c-1.414,1.094-3.116,1.642-5.111,1.642c-1.164,0-2.161-0.16-2.992-0.482
					c-0.831-0.323-1.529-0.76-2.094-1.313s-1.173-1.403-1.82-2.55C262.521,110.871,261.965,109.859,261.5,108.983z M232.18,93.259
					h21.84L243,69.885L232.18,93.259z M334.952,108.983l-3.49-7.108h-29.72l-3.491,7.264c-1.362,2.833-2.526,4.746-3.49,5.736
					c-0.964,0.992-2.542,1.488-4.737,1.488c-1.86,0-3.508-0.527-4.937-1.584c-1.431-1.056-2.144-2.253-2.144-3.593
					c0-0.772,0.166-1.571,0.498-2.396s0.881-1.971,1.646-3.438l18.699-36.78c0.532-1.056,1.172-2.324,1.92-3.805
					s1.546-2.711,2.394-3.689c0.849-0.979,1.961-1.771,3.343-2.376c1.379-0.605,3.082-0.908,5.109-0.908
					c2.063,0,3.782,0.303,5.161,0.908s2.493,1.385,3.342,2.337c0.848,0.953,1.563,1.977,2.145,3.071
					c0.581,1.095,1.32,2.557,2.219,4.385l19.099,36.547c1.496,2.783,2.244,4.805,2.244,6.066c0,1.313-0.706,2.518-2.119,3.612
					c-1.413,1.094-3.115,1.642-5.11,1.642c-1.164,0-2.161-0.16-2.992-0.482c-0.831-0.323-1.529-0.76-2.095-1.313
					c-0.564-0.554-1.172-1.403-1.819-2.55C335.974,110.871,335.417,109.859,334.952,108.983z M305.63,93.259h21.842l-11.02-23.374
					L305.63,93.259z"/>
			</defs>
			<clipPath id="SVGID_29_">
				<use xlink:href="#SVGID_28_"  overflow="visible"/>
			</clipPath>
			<path clip-path="url(#SVGID_29_)" fill="#FFFFFF" d="M330.346,41.413c0.08,2.76-2.174,6.061-4.755,6.343
				c-2.419,0.265-4.351-2.207-6.344-4.756c-1.963-2.512-6.258-8.966-4.547-10.791C316.955,29.801,330.162,34.9,330.346,41.413z"/>
		</g>
		<g>
			<defs>
				<path id="SVGID_30_" d="M62.686,64.747v16.227H94.65V64.747c0-2.318,0.673-4.057,2.02-5.216
					c1.347-1.159,3.117-1.738,5.311-1.738c2.227,0,4.031,0.573,5.411,1.719c1.379,1.146,2.069,2.892,2.069,5.235v44.624
					c0,2.342-0.698,4.094-2.094,5.254s-3.191,1.738-5.386,1.738c-2.227,0-4.006-0.586-5.336-1.758s-1.994-2.917-1.994-5.234V90.323
					H62.686v19.045c0,2.344-0.698,4.096-2.094,5.254c-1.396,1.16-3.191,1.739-5.386,1.739c-2.228,0-4.006-0.586-5.335-1.758
					c-1.33-1.172-1.995-2.917-1.995-5.235V64.747c0-2.318,0.656-4.057,1.97-5.216c1.313-1.159,3.099-1.738,5.36-1.738
					c2.227,0,4.031,0.573,5.411,1.719C61.996,60.658,62.686,62.404,62.686,64.747z M175.382,94.92c0,3.143-0.632,6.041-1.895,8.693
					c-1.264,2.653-3.092,4.932-5.485,6.838c-2.394,1.907-5.253,3.368-8.577,4.385c-3.325,1.018-7.064,1.526-11.22,1.526
					c-4.123,0-7.829-0.516-11.12-1.545c-3.291-1.028-6.142-2.504-8.552-4.423c-2.411-1.919-4.239-4.186-5.485-6.801
					c-1.246-2.613-1.87-5.504-1.87-8.673c0-3.193,0.631-6.117,1.895-8.77c1.263-2.653,3.075-4.919,5.436-6.8
					c2.36-1.879,5.218-3.329,8.577-4.346c3.357-1.017,7.063-1.526,11.12-1.526c4.122,0,7.862,0.515,11.22,1.545
					c3.357,1.03,6.233,2.498,8.626,4.404c2.393,1.907,4.214,4.173,5.46,6.8C174.759,88.855,175.382,91.752,175.382,94.92z
					 M161.719,94.92c0-4.301-1.221-7.649-3.665-10.044c-2.443-2.396-5.727-3.593-9.849-3.593c-2.66,0-5.003,0.535-7.031,1.604
					c-2.028,1.069-3.59,2.646-4.687,4.732c-1.097,2.086-1.646,4.521-1.646,7.302c0,2.757,0.54,5.165,1.62,7.225
					c1.08,2.063,2.626,3.639,4.638,4.732c2.011,1.096,4.38,1.643,7.105,1.643c4.122,0,7.406-1.204,9.849-3.611
					C160.498,102.5,161.719,99.169,161.719,94.92z M186.103,109.949V64.207c0-2.112,0.606-3.709,1.82-4.791
					c1.213-1.082,2.85-1.623,4.912-1.623c2.061,0,3.723,0.535,4.986,1.603c1.263,1.069,1.895,2.672,1.895,4.811v45.742
					c0,2.139-0.641,3.742-1.92,4.811c-1.281,1.068-2.934,1.604-4.961,1.604c-1.995,0-3.616-0.555-4.862-1.66
					C186.727,113.593,186.103,112.009,186.103,109.949z M261.5,108.983l-3.49-7.108h-29.719l-3.491,7.264
					c-1.362,2.833-2.526,4.746-3.491,5.736c-0.963,0.992-2.541,1.488-4.736,1.488c-1.861,0-3.508-0.527-4.936-1.584
					c-1.431-1.056-2.146-2.253-2.146-3.593c0-0.772,0.167-1.571,0.499-2.396s0.88-1.971,1.646-3.438l18.7-36.78
					c0.531-1.056,1.172-2.324,1.919-3.805c0.748-1.481,1.547-2.711,2.396-3.689c0.847-0.979,1.961-1.771,3.341-2.376
					c1.379-0.605,3.083-0.908,5.11-0.908c2.062,0,3.781,0.303,5.162,0.908c1.379,0.605,2.491,1.385,3.34,2.337
					c0.848,0.953,1.563,1.977,2.145,3.071c0.582,1.095,1.32,2.557,2.219,4.385l19.1,36.547c1.496,2.783,2.244,4.805,2.244,6.066
					c0,1.313-0.707,2.518-2.119,3.612c-1.414,1.094-3.116,1.642-5.111,1.642c-1.164,0-2.161-0.16-2.992-0.482
					c-0.831-0.323-1.529-0.76-2.094-1.313s-1.173-1.403-1.82-2.55C262.521,110.871,261.965,109.859,261.5,108.983z M232.18,93.259
					h21.84L243,69.885L232.18,93.259z M334.952,108.983l-3.49-7.108h-29.72l-3.491,7.264c-1.362,2.833-2.526,4.746-3.49,5.736
					c-0.964,0.992-2.542,1.488-4.737,1.488c-1.86,0-3.508-0.527-4.937-1.584c-1.431-1.056-2.144-2.253-2.144-3.593
					c0-0.772,0.166-1.571,0.498-2.396s0.881-1.971,1.646-3.438l18.699-36.78c0.532-1.056,1.172-2.324,1.92-3.805
					s1.546-2.711,2.394-3.689c0.849-0.979,1.961-1.771,3.343-2.376c1.379-0.605,3.082-0.908,5.109-0.908
					c2.063,0,3.782,0.303,5.161,0.908s2.493,1.385,3.342,2.337c0.848,0.953,1.563,1.977,2.145,3.071
					c0.581,1.095,1.32,2.557,2.219,4.385l19.099,36.547c1.496,2.783,2.244,4.805,2.244,6.066c0,1.313-0.706,2.518-2.119,3.612
					c-1.413,1.094-3.115,1.642-5.11,1.642c-1.164,0-2.161-0.16-2.992-0.482c-0.831-0.323-1.529-0.76-2.095-1.313
					c-0.564-0.554-1.172-1.403-1.819-2.55C335.974,110.871,335.417,109.859,334.952,108.983z M305.63,93.259h21.842l-11.02-23.374
					L305.63,93.259z"/>
			</defs>
			<clipPath id="SVGID_31_">
				<use xlink:href="#SVGID_30_"  overflow="visible"/>
			</clipPath>
			<circle clip-path="url(#SVGID_31_)" fill="#FFFFFF" cx="308.248" cy="28.836" r="2.055"/>
		</g>
		<g>
			<defs>
				<path id="SVGID_32_" d="M62.686,64.747v16.227H94.65V64.747c0-2.318,0.673-4.057,2.02-5.216
					c1.347-1.159,3.117-1.738,5.311-1.738c2.227,0,4.031,0.573,5.411,1.719c1.379,1.146,2.069,2.892,2.069,5.235v44.624
					c0,2.342-0.698,4.094-2.094,5.254s-3.191,1.738-5.386,1.738c-2.227,0-4.006-0.586-5.336-1.758s-1.994-2.917-1.994-5.234V90.323
					H62.686v19.045c0,2.344-0.698,4.096-2.094,5.254c-1.396,1.16-3.191,1.739-5.386,1.739c-2.228,0-4.006-0.586-5.335-1.758
					c-1.33-1.172-1.995-2.917-1.995-5.235V64.747c0-2.318,0.656-4.057,1.97-5.216c1.313-1.159,3.099-1.738,5.36-1.738
					c2.227,0,4.031,0.573,5.411,1.719C61.996,60.658,62.686,62.404,62.686,64.747z M175.382,94.92c0,3.143-0.632,6.041-1.895,8.693
					c-1.264,2.653-3.092,4.932-5.485,6.838c-2.394,1.907-5.253,3.368-8.577,4.385c-3.325,1.018-7.064,1.526-11.22,1.526
					c-4.123,0-7.829-0.516-11.12-1.545c-3.291-1.028-6.142-2.504-8.552-4.423c-2.411-1.919-4.239-4.186-5.485-6.801
					c-1.246-2.613-1.87-5.504-1.87-8.673c0-3.193,0.631-6.117,1.895-8.77c1.263-2.653,3.075-4.919,5.436-6.8
					c2.36-1.879,5.218-3.329,8.577-4.346c3.357-1.017,7.063-1.526,11.12-1.526c4.122,0,7.862,0.515,11.22,1.545
					c3.357,1.03,6.233,2.498,8.626,4.404c2.393,1.907,4.214,4.173,5.46,6.8C174.759,88.855,175.382,91.752,175.382,94.92z
					 M161.719,94.92c0-4.301-1.221-7.649-3.665-10.044c-2.443-2.396-5.727-3.593-9.849-3.593c-2.66,0-5.003,0.535-7.031,1.604
					c-2.028,1.069-3.59,2.646-4.687,4.732c-1.097,2.086-1.646,4.521-1.646,7.302c0,2.757,0.54,5.165,1.62,7.225
					c1.08,2.063,2.626,3.639,4.638,4.732c2.011,1.096,4.38,1.643,7.105,1.643c4.122,0,7.406-1.204,9.849-3.611
					C160.498,102.5,161.719,99.169,161.719,94.92z M186.103,109.949V64.207c0-2.112,0.606-3.709,1.82-4.791
					c1.213-1.082,2.85-1.623,4.912-1.623c2.061,0,3.723,0.535,4.986,1.603c1.263,1.069,1.895,2.672,1.895,4.811v45.742
					c0,2.139-0.641,3.742-1.92,4.811c-1.281,1.068-2.934,1.604-4.961,1.604c-1.995,0-3.616-0.555-4.862-1.66
					C186.727,113.593,186.103,112.009,186.103,109.949z M261.5,108.983l-3.49-7.108h-29.719l-3.491,7.264
					c-1.362,2.833-2.526,4.746-3.491,5.736c-0.963,0.992-2.541,1.488-4.736,1.488c-1.861,0-3.508-0.527-4.936-1.584
					c-1.431-1.056-2.146-2.253-2.146-3.593c0-0.772,0.167-1.571,0.499-2.396s0.88-1.971,1.646-3.438l18.7-36.78
					c0.531-1.056,1.172-2.324,1.919-3.805c0.748-1.481,1.547-2.711,2.396-3.689c0.847-0.979,1.961-1.771,3.341-2.376
					c1.379-0.605,3.083-0.908,5.11-0.908c2.062,0,3.781,0.303,5.162,0.908c1.379,0.605,2.491,1.385,3.34,2.337
					c0.848,0.953,1.563,1.977,2.145,3.071c0.582,1.095,1.32,2.557,2.219,4.385l19.1,36.547c1.496,2.783,2.244,4.805,2.244,6.066
					c0,1.313-0.707,2.518-2.119,3.612c-1.414,1.094-3.116,1.642-5.111,1.642c-1.164,0-2.161-0.16-2.992-0.482
					c-0.831-0.323-1.529-0.76-2.094-1.313s-1.173-1.403-1.82-2.55C262.521,110.871,261.965,109.859,261.5,108.983z M232.18,93.259
					h21.84L243,69.885L232.18,93.259z M334.952,108.983l-3.49-7.108h-29.72l-3.491,7.264c-1.362,2.833-2.526,4.746-3.49,5.736
					c-0.964,0.992-2.542,1.488-4.737,1.488c-1.86,0-3.508-0.527-4.937-1.584c-1.431-1.056-2.144-2.253-2.144-3.593
					c0-0.772,0.166-1.571,0.498-2.396s0.881-1.971,1.646-3.438l18.699-36.78c0.532-1.056,1.172-2.324,1.92-3.805
					s1.546-2.711,2.394-3.689c0.849-0.979,1.961-1.771,3.343-2.376c1.379-0.605,3.082-0.908,5.109-0.908
					c2.063,0,3.782,0.303,5.161,0.908s2.493,1.385,3.342,2.337c0.848,0.953,1.563,1.977,2.145,3.071
					c0.581,1.095,1.32,2.557,2.219,4.385l19.099,36.547c1.496,2.783,2.244,4.805,2.244,6.066c0,1.313-0.706,2.518-2.119,3.612
					c-1.413,1.094-3.115,1.642-5.11,1.642c-1.164,0-2.161-0.16-2.992-0.482c-0.831-0.323-1.529-0.76-2.095-1.313
					c-0.564-0.554-1.172-1.403-1.819-2.55C335.974,110.871,335.417,109.859,334.952,108.983z M305.63,93.259h21.842l-11.02-23.374
					L305.63,93.259z"/>
			</defs>
			<clipPath id="SVGID_33_">
				<use xlink:href="#SVGID_32_"  overflow="visible"/>
			</clipPath>
			<path clip-path="url(#SVGID_33_)" fill="#FFFFFF" d="M330.054,79.701c-0.659,0.465-5.255-8.898-17.593-17.016
				c-4.336-2.854-8.617-4.888-8.363-5.479c0.26-0.601,5.081,0.516,8.941,2.307C325.338,65.219,330.837,79.147,330.054,79.701z"/>
		</g>
		<g>
			<defs>
				<path id="SVGID_34_" d="M62.686,64.747v16.227H94.65V64.747c0-2.318,0.673-4.057,2.02-5.216
					c1.347-1.159,3.117-1.738,5.311-1.738c2.227,0,4.031,0.573,5.411,1.719c1.379,1.146,2.069,2.892,2.069,5.235v44.624
					c0,2.342-0.698,4.094-2.094,5.254s-3.191,1.738-5.386,1.738c-2.227,0-4.006-0.586-5.336-1.758s-1.994-2.917-1.994-5.234V90.323
					H62.686v19.045c0,2.344-0.698,4.096-2.094,5.254c-1.396,1.16-3.191,1.739-5.386,1.739c-2.228,0-4.006-0.586-5.335-1.758
					c-1.33-1.172-1.995-2.917-1.995-5.235V64.747c0-2.318,0.656-4.057,1.97-5.216c1.313-1.159,3.099-1.738,5.36-1.738
					c2.227,0,4.031,0.573,5.411,1.719C61.996,60.658,62.686,62.404,62.686,64.747z M175.382,94.92c0,3.143-0.632,6.041-1.895,8.693
					c-1.264,2.653-3.092,4.932-5.485,6.838c-2.394,1.907-5.253,3.368-8.577,4.385c-3.325,1.018-7.064,1.526-11.22,1.526
					c-4.123,0-7.829-0.516-11.12-1.545c-3.291-1.028-6.142-2.504-8.552-4.423c-2.411-1.919-4.239-4.186-5.485-6.801
					c-1.246-2.613-1.87-5.504-1.87-8.673c0-3.193,0.631-6.117,1.895-8.77c1.263-2.653,3.075-4.919,5.436-6.8
					c2.36-1.879,5.218-3.329,8.577-4.346c3.357-1.017,7.063-1.526,11.12-1.526c4.122,0,7.862,0.515,11.22,1.545
					c3.357,1.03,6.233,2.498,8.626,4.404c2.393,1.907,4.214,4.173,5.46,6.8C174.759,88.855,175.382,91.752,175.382,94.92z
					 M161.719,94.92c0-4.301-1.221-7.649-3.665-10.044c-2.443-2.396-5.727-3.593-9.849-3.593c-2.66,0-5.003,0.535-7.031,1.604
					c-2.028,1.069-3.59,2.646-4.687,4.732c-1.097,2.086-1.646,4.521-1.646,7.302c0,2.757,0.54,5.165,1.62,7.225
					c1.08,2.063,2.626,3.639,4.638,4.732c2.011,1.096,4.38,1.643,7.105,1.643c4.122,0,7.406-1.204,9.849-3.611
					C160.498,102.5,161.719,99.169,161.719,94.92z M186.103,109.949V64.207c0-2.112,0.606-3.709,1.82-4.791
					c1.213-1.082,2.85-1.623,4.912-1.623c2.061,0,3.723,0.535,4.986,1.603c1.263,1.069,1.895,2.672,1.895,4.811v45.742
					c0,2.139-0.641,3.742-1.92,4.811c-1.281,1.068-2.934,1.604-4.961,1.604c-1.995,0-3.616-0.555-4.862-1.66
					C186.727,113.593,186.103,112.009,186.103,109.949z M261.5,108.983l-3.49-7.108h-29.719l-3.491,7.264
					c-1.362,2.833-2.526,4.746-3.491,5.736c-0.963,0.992-2.541,1.488-4.736,1.488c-1.861,0-3.508-0.527-4.936-1.584
					c-1.431-1.056-2.146-2.253-2.146-3.593c0-0.772,0.167-1.571,0.499-2.396s0.88-1.971,1.646-3.438l18.7-36.78
					c0.531-1.056,1.172-2.324,1.919-3.805c0.748-1.481,1.547-2.711,2.396-3.689c0.847-0.979,1.961-1.771,3.341-2.376
					c1.379-0.605,3.083-0.908,5.11-0.908c2.062,0,3.781,0.303,5.162,0.908c1.379,0.605,2.491,1.385,3.34,2.337
					c0.848,0.953,1.563,1.977,2.145,3.071c0.582,1.095,1.32,2.557,2.219,4.385l19.1,36.547c1.496,2.783,2.244,4.805,2.244,6.066
					c0,1.313-0.707,2.518-2.119,3.612c-1.414,1.094-3.116,1.642-5.111,1.642c-1.164,0-2.161-0.16-2.992-0.482
					c-0.831-0.323-1.529-0.76-2.094-1.313s-1.173-1.403-1.82-2.55C262.521,110.871,261.965,109.859,261.5,108.983z M232.18,93.259
					h21.84L243,69.885L232.18,93.259z M334.952,108.983l-3.49-7.108h-29.72l-3.491,7.264c-1.362,2.833-2.526,4.746-3.49,5.736
					c-0.964,0.992-2.542,1.488-4.737,1.488c-1.86,0-3.508-0.527-4.937-1.584c-1.431-1.056-2.144-2.253-2.144-3.593
					c0-0.772,0.166-1.571,0.498-2.396s0.881-1.971,1.646-3.438l18.699-36.78c0.532-1.056,1.172-2.324,1.92-3.805
					s1.546-2.711,2.394-3.689c0.849-0.979,1.961-1.771,3.343-2.376c1.379-0.605,3.082-0.908,5.109-0.908
					c2.063,0,3.782,0.303,5.161,0.908s2.493,1.385,3.342,2.337c0.848,0.953,1.563,1.977,2.145,3.071
					c0.581,1.095,1.32,2.557,2.219,4.385l19.099,36.547c1.496,2.783,2.244,4.805,2.244,6.066c0,1.313-0.706,2.518-2.119,3.612
					c-1.413,1.094-3.115,1.642-5.11,1.642c-1.164,0-2.161-0.16-2.992-0.482c-0.831-0.323-1.529-0.76-2.095-1.313
					c-0.564-0.554-1.172-1.403-1.819-2.55C335.974,110.871,335.417,109.859,334.952,108.983z M305.63,93.259h21.842l-11.02-23.374
					L305.63,93.259z"/>
			</defs>
			<clipPath id="SVGID_35_">
				<use xlink:href="#SVGID_34_"  overflow="visible"/>
			</clipPath>
			<path clip-path="url(#SVGID_35_)" fill="#FFFFFF" d="M298.461,18.83c-0.146,0.021-0.241-0.843-0.961-2.178
				c0,0-0.335-0.624-0.72-1.153c-1.239-1.705-5.438-1.667-5.769-1.664c-6.539,0.057-10.744-0.358-10.742-0.319
				c0,0.034,3.066-0.029,5.314-0.075c6.34-0.129,10.116-0.47,11.736,1.229c0.671,0.705,1.009,1.622,1.009,1.622
				C298.789,17.537,298.636,18.805,298.461,18.83z"/>
		</g>
		<g>
			<defs>
				<path id="SVGID_36_" d="M62.686,64.747v16.227H94.65V64.747c0-2.318,0.673-4.057,2.02-5.216
					c1.347-1.159,3.117-1.738,5.311-1.738c2.227,0,4.031,0.573,5.411,1.719c1.379,1.146,2.069,2.892,2.069,5.235v44.624
					c0,2.342-0.698,4.094-2.094,5.254s-3.191,1.738-5.386,1.738c-2.227,0-4.006-0.586-5.336-1.758s-1.994-2.917-1.994-5.234V90.323
					H62.686v19.045c0,2.344-0.698,4.096-2.094,5.254c-1.396,1.16-3.191,1.739-5.386,1.739c-2.228,0-4.006-0.586-5.335-1.758
					c-1.33-1.172-1.995-2.917-1.995-5.235V64.747c0-2.318,0.656-4.057,1.97-5.216c1.313-1.159,3.099-1.738,5.36-1.738
					c2.227,0,4.031,0.573,5.411,1.719C61.996,60.658,62.686,62.404,62.686,64.747z M175.382,94.92c0,3.143-0.632,6.041-1.895,8.693
					c-1.264,2.653-3.092,4.932-5.485,6.838c-2.394,1.907-5.253,3.368-8.577,4.385c-3.325,1.018-7.064,1.526-11.22,1.526
					c-4.123,0-7.829-0.516-11.12-1.545c-3.291-1.028-6.142-2.504-8.552-4.423c-2.411-1.919-4.239-4.186-5.485-6.801
					c-1.246-2.613-1.87-5.504-1.87-8.673c0-3.193,0.631-6.117,1.895-8.77c1.263-2.653,3.075-4.919,5.436-6.8
					c2.36-1.879,5.218-3.329,8.577-4.346c3.357-1.017,7.063-1.526,11.12-1.526c4.122,0,7.862,0.515,11.22,1.545
					c3.357,1.03,6.233,2.498,8.626,4.404c2.393,1.907,4.214,4.173,5.46,6.8C174.759,88.855,175.382,91.752,175.382,94.92z
					 M161.719,94.92c0-4.301-1.221-7.649-3.665-10.044c-2.443-2.396-5.727-3.593-9.849-3.593c-2.66,0-5.003,0.535-7.031,1.604
					c-2.028,1.069-3.59,2.646-4.687,4.732c-1.097,2.086-1.646,4.521-1.646,7.302c0,2.757,0.54,5.165,1.62,7.225
					c1.08,2.063,2.626,3.639,4.638,4.732c2.011,1.096,4.38,1.643,7.105,1.643c4.122,0,7.406-1.204,9.849-3.611
					C160.498,102.5,161.719,99.169,161.719,94.92z M186.103,109.949V64.207c0-2.112,0.606-3.709,1.82-4.791
					c1.213-1.082,2.85-1.623,4.912-1.623c2.061,0,3.723,0.535,4.986,1.603c1.263,1.069,1.895,2.672,1.895,4.811v45.742
					c0,2.139-0.641,3.742-1.92,4.811c-1.281,1.068-2.934,1.604-4.961,1.604c-1.995,0-3.616-0.555-4.862-1.66
					C186.727,113.593,186.103,112.009,186.103,109.949z M261.5,108.983l-3.49-7.108h-29.719l-3.491,7.264
					c-1.362,2.833-2.526,4.746-3.491,5.736c-0.963,0.992-2.541,1.488-4.736,1.488c-1.861,0-3.508-0.527-4.936-1.584
					c-1.431-1.056-2.146-2.253-2.146-3.593c0-0.772,0.167-1.571,0.499-2.396s0.88-1.971,1.646-3.438l18.7-36.78
					c0.531-1.056,1.172-2.324,1.919-3.805c0.748-1.481,1.547-2.711,2.396-3.689c0.847-0.979,1.961-1.771,3.341-2.376
					c1.379-0.605,3.083-0.908,5.11-0.908c2.062,0,3.781,0.303,5.162,0.908c1.379,0.605,2.491,1.385,3.34,2.337
					c0.848,0.953,1.563,1.977,2.145,3.071c0.582,1.095,1.32,2.557,2.219,4.385l19.1,36.547c1.496,2.783,2.244,4.805,2.244,6.066
					c0,1.313-0.707,2.518-2.119,3.612c-1.414,1.094-3.116,1.642-5.111,1.642c-1.164,0-2.161-0.16-2.992-0.482
					c-0.831-0.323-1.529-0.76-2.094-1.313s-1.173-1.403-1.82-2.55C262.521,110.871,261.965,109.859,261.5,108.983z M232.18,93.259
					h21.84L243,69.885L232.18,93.259z M334.952,108.983l-3.49-7.108h-29.72l-3.491,7.264c-1.362,2.833-2.526,4.746-3.49,5.736
					c-0.964,0.992-2.542,1.488-4.737,1.488c-1.86,0-3.508-0.527-4.937-1.584c-1.431-1.056-2.144-2.253-2.144-3.593
					c0-0.772,0.166-1.571,0.498-2.396s0.881-1.971,1.646-3.438l18.699-36.78c0.532-1.056,1.172-2.324,1.92-3.805
					s1.546-2.711,2.394-3.689c0.849-0.979,1.961-1.771,3.343-2.376c1.379-0.605,3.082-0.908,5.109-0.908
					c2.063,0,3.782,0.303,5.161,0.908s2.493,1.385,3.342,2.337c0.848,0.953,1.563,1.977,2.145,3.071
					c0.581,1.095,1.32,2.557,2.219,4.385l19.099,36.547c1.496,2.783,2.244,4.805,2.244,6.066c0,1.313-0.706,2.518-2.119,3.612
					c-1.413,1.094-3.115,1.642-5.11,1.642c-1.164,0-2.161-0.16-2.992-0.482c-0.831-0.323-1.529-0.76-2.095-1.313
					c-0.564-0.554-1.172-1.403-1.819-2.55C335.974,110.871,335.417,109.859,334.952,108.983z M305.63,93.259h21.842l-11.02-23.374
					L305.63,93.259z"/>
			</defs>
			<clipPath id="SVGID_37_">
				<use xlink:href="#SVGID_36_"  overflow="visible"/>
			</clipPath>
			
				<linearGradient id="SVGID_38_" gradientUnits="userSpaceOnUse" x1="8.8486" y1="263.3901" x2="37.0355" y2="291.5771" gradientTransform="matrix(1 0 0 -1 270 375.667)">
				<stop  offset="0.0714" style="stop-color:#0DA9AB"/>
				<stop  offset="1" style="stop-color:#DEFA8E"/>
			</linearGradient>
			<path clip-path="url(#SVGID_37_)" fill="url(#SVGID_38_)" d="M297.104,104.313c-0.693,6.713-6.03,12.233-13.004,12.899
				c-6.88,0.666-13.092-3.6-15.133-9.916c0.544,1.351,1.965,2.174,3.443,2.027l21.664-2.087
				C295.641,107.082,296.939,105.878,297.104,104.313z"/>
		</g>
		<g>
			<defs>
				<path id="SVGID_39_" d="M62.686,64.747v16.227H94.65V64.747c0-2.318,0.673-4.057,2.02-5.216
					c1.347-1.159,3.117-1.738,5.311-1.738c2.227,0,4.031,0.573,5.411,1.719c1.379,1.146,2.069,2.892,2.069,5.235v44.624
					c0,2.342-0.698,4.094-2.094,5.254s-3.191,1.738-5.386,1.738c-2.227,0-4.006-0.586-5.336-1.758s-1.994-2.917-1.994-5.234V90.323
					H62.686v19.045c0,2.344-0.698,4.096-2.094,5.254c-1.396,1.16-3.191,1.739-5.386,1.739c-2.228,0-4.006-0.586-5.335-1.758
					c-1.33-1.172-1.995-2.917-1.995-5.235V64.747c0-2.318,0.656-4.057,1.97-5.216c1.313-1.159,3.099-1.738,5.36-1.738
					c2.227,0,4.031,0.573,5.411,1.719C61.996,60.658,62.686,62.404,62.686,64.747z M175.382,94.92c0,3.143-0.632,6.041-1.895,8.693
					c-1.264,2.653-3.092,4.932-5.485,6.838c-2.394,1.907-5.253,3.368-8.577,4.385c-3.325,1.018-7.064,1.526-11.22,1.526
					c-4.123,0-7.829-0.516-11.12-1.545c-3.291-1.028-6.142-2.504-8.552-4.423c-2.411-1.919-4.239-4.186-5.485-6.801
					c-1.246-2.613-1.87-5.504-1.87-8.673c0-3.193,0.631-6.117,1.895-8.77c1.263-2.653,3.075-4.919,5.436-6.8
					c2.36-1.879,5.218-3.329,8.577-4.346c3.357-1.017,7.063-1.526,11.12-1.526c4.122,0,7.862,0.515,11.22,1.545
					c3.357,1.03,6.233,2.498,8.626,4.404c2.393,1.907,4.214,4.173,5.46,6.8C174.759,88.855,175.382,91.752,175.382,94.92z
					 M161.719,94.92c0-4.301-1.221-7.649-3.665-10.044c-2.443-2.396-5.727-3.593-9.849-3.593c-2.66,0-5.003,0.535-7.031,1.604
					c-2.028,1.069-3.59,2.646-4.687,4.732c-1.097,2.086-1.646,4.521-1.646,7.302c0,2.757,0.54,5.165,1.62,7.225
					c1.08,2.063,2.626,3.639,4.638,4.732c2.011,1.096,4.38,1.643,7.105,1.643c4.122,0,7.406-1.204,9.849-3.611
					C160.498,102.5,161.719,99.169,161.719,94.92z M186.103,109.949V64.207c0-2.112,0.606-3.709,1.82-4.791
					c1.213-1.082,2.85-1.623,4.912-1.623c2.061,0,3.723,0.535,4.986,1.603c1.263,1.069,1.895,2.672,1.895,4.811v45.742
					c0,2.139-0.641,3.742-1.92,4.811c-1.281,1.068-2.934,1.604-4.961,1.604c-1.995,0-3.616-0.555-4.862-1.66
					C186.727,113.593,186.103,112.009,186.103,109.949z M261.5,108.983l-3.49-7.108h-29.719l-3.491,7.264
					c-1.362,2.833-2.526,4.746-3.491,5.736c-0.963,0.992-2.541,1.488-4.736,1.488c-1.861,0-3.508-0.527-4.936-1.584
					c-1.431-1.056-2.146-2.253-2.146-3.593c0-0.772,0.167-1.571,0.499-2.396s0.88-1.971,1.646-3.438l18.7-36.78
					c0.531-1.056,1.172-2.324,1.919-3.805c0.748-1.481,1.547-2.711,2.396-3.689c0.847-0.979,1.961-1.771,3.341-2.376
					c1.379-0.605,3.083-0.908,5.11-0.908c2.062,0,3.781,0.303,5.162,0.908c1.379,0.605,2.491,1.385,3.34,2.337
					c0.848,0.953,1.563,1.977,2.145,3.071c0.582,1.095,1.32,2.557,2.219,4.385l19.1,36.547c1.496,2.783,2.244,4.805,2.244,6.066
					c0,1.313-0.707,2.518-2.119,3.612c-1.414,1.094-3.116,1.642-5.111,1.642c-1.164,0-2.161-0.16-2.992-0.482
					c-0.831-0.323-1.529-0.76-2.094-1.313s-1.173-1.403-1.82-2.55C262.521,110.871,261.965,109.859,261.5,108.983z M232.18,93.259
					h21.84L243,69.885L232.18,93.259z M334.952,108.983l-3.49-7.108h-29.72l-3.491,7.264c-1.362,2.833-2.526,4.746-3.49,5.736
					c-0.964,0.992-2.542,1.488-4.737,1.488c-1.86,0-3.508-0.527-4.937-1.584c-1.431-1.056-2.144-2.253-2.144-3.593
					c0-0.772,0.166-1.571,0.498-2.396s0.881-1.971,1.646-3.438l18.699-36.78c0.532-1.056,1.172-2.324,1.92-3.805
					s1.546-2.711,2.394-3.689c0.849-0.979,1.961-1.771,3.343-2.376c1.379-0.605,3.082-0.908,5.109-0.908
					c2.063,0,3.782,0.303,5.161,0.908s2.493,1.385,3.342,2.337c0.848,0.953,1.563,1.977,2.145,3.071
					c0.581,1.095,1.32,2.557,2.219,4.385l19.099,36.547c1.496,2.783,2.244,4.805,2.244,6.066c0,1.313-0.706,2.518-2.119,3.612
					c-1.413,1.094-3.115,1.642-5.11,1.642c-1.164,0-2.161-0.16-2.992-0.482c-0.831-0.323-1.529-0.76-2.095-1.313
					c-0.564-0.554-1.172-1.403-1.819-2.55C335.974,110.871,335.417,109.859,334.952,108.983z M305.63,93.259h21.842l-11.02-23.374
					L305.63,93.259z"/>
			</defs>
			<clipPath id="SVGID_40_">
				<use xlink:href="#SVGID_39_"  overflow="visible"/>
			</clipPath>
			<circle clip-path="url(#SVGID_40_)" fill="#FFFFFF" cx="174.599" cy="30.892" r="0.974"/>
		</g>
	</g>
	
		<radialGradient id="SVGID_41_" cx="-624.6787" cy="-48.1147" r="1.7178" gradientTransform="matrix(3.980102e-016 6.5 -94.5 5.786456e-015 -4341.8594 4236.4155)" gradientUnits="userSpaceOnUse">
		<stop  offset="0.0876" style="stop-color:#032237"/>
		<stop  offset="0.3505" style="stop-color:#032237"/>
		<stop  offset="0.6495" style="stop-color:#032237;stop-opacity:0.5"/>
		<stop  offset="0.8351" style="stop-color:#032237;stop-opacity:0.7964"/>
		<stop  offset="1" style="stop-color:#032237;stop-opacity:0"/>
	</radialGradient>
	<ellipse fill="url(#SVGID_41_)" fill-opacity="0.1" cx="205.001" cy="176" rx="162.349" ry="11.167"/>
</g>
</svg>
